<svg xmlns="http://www.w3.org/2000/svg" version="1.1" xmlns:xlink="http://www.w3.org/1999/xlink" xmlns:svgjs="http://svgjs.dev/svgjs" width="1440" height="560" preserveAspectRatio="none" viewBox="0 0 1440 560"><g mask="url(&quot;#SvgjsMask1012&quot;)" fill="none"><path d="M442.86 623.26C629.7 588.92 712.45 124.57 1012 119.79 1311.55 115.01 1435.26 247.79 1581.14 248.59" stroke="rgba(51,121,194,0.58)" stroke-width="2"></path><path d="M293.63 661.83C437.3 642.39 513.32 312.51 754.14 309.36 994.96 306.21 984.39 379.36 1214.64 379.36 1444.9 379.36 1558.7 309.56 1675.15 309.36" stroke="rgba(51,121,194,0.58)" stroke-width="2"></path><path d="M687.77 632.97C854.78 598.49 925.29 169.86 1185.47 166.49 1445.64 163.12 1552.3 326.85 1683.16 328.89" stroke="rgba(51,121,194,0.58)" stroke-width="2"></path><path d="M414.39 574.39C571.75 523.51 600.61 79.8 839.12 67.22 1077.63 54.64 1051.49 137.22 1263.86 137.22 1476.22 137.22 1580.97 67.45 1688.59 67.22" stroke="rgba(51,121,194,0.58)" stroke-width="2"></path><path d="M247.52 610.99C428.95 596.85 555.2 236 871.01 235.35 1186.82 234.7 1332.71 407.34 1494.5 408.95" stroke="rgba(51,121,194,0.58)" stroke-width="2"></path></g><defs><mask id="SvgjsMask1012"><rect width="1440" height="560" fill="#ffffff"></rect></mask></defs></svg>
