<svg xmlns="http://www.w3.org/2000/svg" width="1140" height="1997" fill="none"><path fill="#fff" d="M568 220h2v8h-2z"/><path fill="#D1D5DB" d="M568 228h2v8h-2z"/><path fill="#fff" d="M568 236h2v8h-2z"/><path fill="#D1D5DB" d="M568 244h2v8h-2z"/><path fill="#fff" d="M568 252h2v8h-2z"/><path fill="#D1D5DB" d="M568 260h2v8h-2z"/><path fill="#fff" d="M568 268h2v8h-2z"/><path fill="#D1D5DB" d="M568 276h2v8h-2z"/><path fill="#fff" d="M568 284h2v8h-2z"/><path fill="#D1D5DB" d="M568 292h2v8h-2z"/><path fill="#fff" d="M568 300h2v8h-2z"/><path fill="#D1D5DB" d="M568 308h2v8h-2z"/><path fill="#fff" d="M568 316h2v8h-2z"/><path fill="#D1D5DB" d="M568 324h2v8h-2z"/><path fill="#fff" d="M568 332h2v8h-2z"/><path fill="#D1D5DB" d="M568 340h2v8h-2z"/><path fill="#fff" d="M568 348h2v8h-2z"/><path fill="#D1D5DB" d="M568 356h2v8h-2z"/><path fill="#fff" d="M568 364h2v8h-2z"/><path fill="#D1D5DB" d="M568 372h2v8h-2z"/><path fill="#fff" d="M568 380h2v8h-2z"/><path fill="#D1D5DB" d="M568 388h2v8h-2z"/><path fill="#fff" d="M568 396h2v8h-2z"/><path fill="#D1D5DB" d="M568 404h2v8h-2z"/><path fill="#fff" d="M568 412h2v8h-2z"/><path fill="#D1D5DB" d="M568 420h2v8h-2z"/><path fill="#fff" d="M568 428h2v8h-2z"/><path fill="#D1D5DB" d="M568 436h2v8h-2z"/><path fill="#fff" d="M568 444h2v8h-2z"/><path fill="#D1D5DB" d="M568 452h2v8h-2z"/><path fill="#fff" d="M568 460h2v8h-2z"/><path fill="#D1D5DB" d="M568 468h2v8h-2z"/><path fill="#fff" d="M568 476h2v8h-2z"/><path fill="#D1D5DB" d="M568 484h2v8h-2z"/><path fill="#fff" d="M568 492h2v8h-2z"/><path fill="#D1D5DB" d="M568 500h2v8h-2z"/><path fill="#fff" d="M568 508h2v8h-2z"/><path fill="#D1D5DB" d="M568 516h2v8h-2z"/><path fill="#fff" d="M568 524h2v8h-2z"/><path fill="#D1D5DB" d="M568 532h2v8h-2z"/><path fill="#fff" d="M568 540h2v8h-2z"/><path fill="#D1D5DB" d="M568 548h2v8h-2z"/><path fill="#fff" d="M568 556h2v8h-2z"/><path fill="#D1D5DB" d="M568 564h2v8h-2z"/><path fill="#fff" d="M568 572h2v8h-2z"/><path fill="#D1D5DB" d="M568 580h2v8h-2z"/><path fill="#fff" d="M568 588h2v8h-2z"/><path fill="#D1D5DB" d="M568 596h2v8h-2z"/><path fill="#fff" d="M568 604h2v8h-2z"/><path fill="#D1D5DB" d="M568 612h2v8h-2z"/><path fill="#fff" d="M568 620h2v8h-2z"/><path fill="#D1D5DB" d="M568 628h2v8h-2z"/><path fill="#fff" d="M568 636h2v8h-2z"/><path fill="#D1D5DB" d="M568 644h2v8h-2z"/><path fill="#fff" d="M568 652h2v8h-2z"/><path fill="#D1D5DB" d="M568 660h2v8h-2z"/><path fill="#fff" d="M568 668h2v8h-2z"/><path fill="#D1D5DB" d="M568 676h2v8h-2z"/><path fill="#fff" d="M568 684h2v8h-2z"/><path fill="#D1D5DB" d="M568 692h2v8h-2z"/><path fill="#fff" d="M568 700h2v8h-2z"/><path fill="#D1D5DB" d="M568 708h2v8h-2z"/><path fill="#fff" d="M568 716h2v8h-2z"/><path fill="#D1D5DB" d="M568 724h2v8h-2z"/><path fill="#fff" d="M568 732h2v8h-2z"/><path fill="#D1D5DB" d="M568 740h2v8h-2z"/><path fill="#fff" d="M568 748h2v8h-2z"/><path fill="#D1D5DB" d="M568 756h2v8h-2z"/><path fill="#fff" d="M568 764h2v8h-2z"/><path fill="#D1D5DB" d="M568 772h2v8h-2z"/><path fill="#fff" d="M568 780h2v8h-2z"/><path fill="#D1D5DB" d="M568 788h2v8h-2z"/><path fill="#fff" d="M568 796h2v8h-2z"/><path fill="#D1D5DB" d="M568 804h2v8h-2z"/><path fill="#fff" d="M568 812h2v8h-2z"/><path fill="#D1D5DB" d="M568 820h2v8h-2z"/><path fill="#fff" d="M568 828h2v8h-2z"/><path fill="#D1D5DB" d="M568 836h2v8h-2z"/><path fill="#fff" d="M568 844h2v8h-2z"/><path fill="#D1D5DB" d="M568 852h2v8h-2z"/><path fill="#fff" d="M568 860h2v8h-2z"/><path fill="#D1D5DB" d="M568 868h2v8h-2z"/><path fill="#fff" d="M568 876h2v8h-2z"/><path fill="#D1D5DB" d="M568 884h2v8h-2z"/><path fill="#fff" d="M568 892h2v8h-2z"/><path fill="#D1D5DB" d="M568 900h2v8h-2z"/><path fill="#fff" d="M568 908h2v8h-2z"/><path fill="#D1D5DB" d="M568 916h2v8h-2z"/><path fill="#fff" d="M568 924h2v8h-2z"/><path fill="#D1D5DB" d="M568 932h2v8h-2z"/><path fill="#fff" d="M568 940h2v8h-2z"/><path fill="#D1D5DB" d="M568 948h2v8h-2z"/><path fill="#fff" d="M568 956h2v8h-2z"/><path fill="#D1D5DB" d="M568 964h2v8h-2z"/><path fill="#fff" d="M568 972h2v8h-2z"/><path fill="#D1D5DB" d="M568 980h2v8h-2z"/><path fill="#fff" d="M568 988h2v8h-2z"/><path fill="#D1D5DB" d="M568 996h2v8h-2z"/><path fill="#fff" d="M568 1004h2v8h-2z"/><path fill="#D1D5DB" d="M568 1012h2v8h-2z"/><path fill="#fff" d="M568 1020h2v8h-2z"/><path fill="#D1D5DB" d="M568 1028h2v8h-2z"/><path fill="#fff" d="M568 1036h2v8h-2z"/><path fill="#D1D5DB" d="M568 1044h2v8h-2z"/><path fill="#fff" d="M568 1052h2v8h-2z"/><path fill="#D1D5DB" d="M568 1060h2v8h-2z"/><path fill="#fff" d="M568 1068h2v8h-2z"/><path fill="#D1D5DB" d="M568 1076h2v8h-2z"/><path fill="#fff" d="M568 1084h2v8h-2z"/><path fill="#D1D5DB" d="M568 1092h2v8h-2z"/><path fill="#fff" d="M568 1100h2v8h-2z"/><path fill="#D1D5DB" d="M568 1108h2v8h-2z"/><path fill="#fff" d="M568 1116h2v8h-2z"/><path fill="#D1D5DB" d="M568 1124h2v8h-2z"/><path fill="#fff" d="M568 1132h2v8h-2z"/><path fill="#D1D5DB" d="M568 1140h2v8h-2z"/><path fill="#fff" d="M568 1148h2v8h-2z"/><path fill="#D1D5DB" d="M568 1156h2v8h-2z"/><path fill="#fff" d="M568 1164h2v8h-2z"/><path fill="#D1D5DB" d="M568 1172h2v8h-2z"/><path fill="#fff" d="M568 1180h2v8h-2z"/><path fill="#D1D5DB" d="M568 1188h2v8h-2z"/><path fill="#fff" d="M568 1196h2v8h-2z"/><path fill="#D1D5DB" d="M568 1204h2v8h-2z"/><path fill="#fff" d="M568 1212h2v8h-2z"/><path fill="#D1D5DB" d="M568 1220h2v8h-2z"/><path fill="#fff" d="M568 1228h2v8h-2z"/><path fill="#D1D5DB" d="M568 1236h2v8h-2z"/><path fill="#fff" d="M568 1244h2v8h-2z"/><path fill="#D1D5DB" d="M568 1252h2v8h-2z"/><path fill="#fff" d="M568 1260h2v8h-2z"/><path fill="#D1D5DB" d="M568 1268h2v8h-2z"/><path fill="#fff" d="M568 1276h2v8h-2z"/><path fill="#D1D5DB" d="M568 1284h2v8h-2z"/><path fill="#fff" d="M568 1292h2v8h-2z"/><path fill="#D1D5DB" d="M568 1300h2v8h-2z"/><path fill="#fff" d="M568 1308h2v8h-2z"/><path fill="#D1D5DB" d="M568 1316h2v8h-2z"/><path fill="#fff" d="M568 1324h2v8h-2z"/><path fill="#D1D5DB" d="M568 1332h2v8h-2z"/><path fill="#fff" d="M568 1340h2v8h-2z"/><path fill="#D1D5DB" d="M568 1348h2v8h-2z"/><path fill="#fff" d="M568 1356h2v8h-2z"/><path fill="#D1D5DB" d="M568 1364h2v8h-2z"/><path fill="#fff" d="M568 1372h2v8h-2z"/><path fill="#D1D5DB" d="M568 1380h2v8h-2z"/><path fill="#fff" d="M568 1388h2v8h-2z"/><path fill="#D1D5DB" d="M568 1396h2v8h-2z"/><path fill="#fff" d="M568 1404h2v8h-2z"/><path fill="#D1D5DB" d="M568 1412h2v8h-2z"/><path fill="#fff" d="M568 1420h2v8h-2z"/><path fill="#D1D5DB" d="M568 1428h2v8h-2z"/><path fill="#fff" d="M568 1436h2v8h-2z"/><path fill="#D1D5DB" d="M568 1444h2v8h-2z"/><path fill="#fff" d="M568 1452h2v8h-2z"/><path fill="#D1D5DB" d="M568 1460h2v8h-2z"/><path fill="#fff" d="M568 1468h2v8h-2z"/><path fill="#D1D5DB" d="M568 1476h2v8h-2z"/><path fill="#fff" d="M568 1484h2v8h-2z"/><path fill="#D1D5DB" d="M568 1492h2v8h-2z"/><path fill="#fff" d="M568 1500h2v8h-2z"/><path fill="#D1D5DB" d="M568 1508h2v8h-2z"/><path fill="#fff" d="M568 1516h2v8h-2z"/><path fill="#D1D5DB" d="M568 1524h2v8h-2z"/><path fill="#fff" d="M568 1532h2v8h-2z"/><path fill="#D1D5DB" d="M568 1540h2v8h-2z"/><path fill="#fff" d="M568 1548h2v8h-2z"/><path fill="#D1D5DB" d="M568 1556h2v8h-2z"/><path fill="#fff" d="M568 1564h2v8h-2z"/><path fill="#D1D5DB" d="M568 1572h2v8h-2z"/><path fill="#fff" d="M568 1580h2v8h-2z"/><path fill="#D1D5DB" d="M568 1588h2v8h-2z"/><path fill="#fff" d="M568 1596h2v8h-2z"/><path fill="#D1D5DB" d="M568 1604h2v8h-2z"/><path fill="#fff" d="M568 1612h2v8h-2z"/><path fill="#D1D5DB" d="M568 1620h2v8h-2z"/><path fill="#fff" d="M568 1628h2v8h-2z"/><path fill="#D1D5DB" d="M568 1636h2v8h-2z"/><path fill="#fff" d="M568 1644h2v8h-2z"/><path fill="#D1D5DB" d="M568 1652h2v8h-2z"/><path fill="#fff" d="M568 1660h2v8h-2z"/><path fill="#D1D5DB" d="M568 1668h2v8h-2z"/><path fill="#fff" d="M568 1676h2v8h-2z"/><path fill="#D1D5DB" d="M568 1684h2v8h-2z"/><path fill="#fff" d="M568 1692h2v8h-2z"/><path fill="#D1D5DB" d="M568 1700h2v8h-2z"/><path fill="#fff" d="M568 1708h2v8h-2z"/><path fill="#D1D5DB" d="M568 1716h2v8h-2z"/><path fill="#fff" d="M568 1724h2v8h-2z"/><path fill="#D1D5DB" d="M568 1732h2v8h-2z"/><path fill="#fff" d="M568 1740h2v8h-2z"/><path fill="#D1D5DB" d="M568 1748h2v8h-2z"/><path fill="#fff" d="M568 1756h2v8h-2z"/><path fill="#D1D5DB" d="M568 1764h2v8h-2z"/><rect width="238.5" height="56.5" x="444.75" y="1742.75" fill="#DBEAFE" rx="11.25"/><rect width="238.5" height="56.5" x="444.75" y="1742.75" stroke="#4B5563" stroke-dasharray="8 8" stroke-width="1.5" rx="11.25"/><path fill="#222" d="M534.34 1781.29a7.27 7.27 0 0 1-7.06-4.92l2.4-1.01a5.46 5.46 0 0 0 1.9 2.54c.83.6 1.8.89 2.88.89.64 0 1.2-.09 1.68-.29.48-.2.85-.49 1.1-.86.28-.37.41-.79.41-1.27 0-.66-.18-1.18-.55-1.56a3.67 3.67 0 0 0-1.63-.91l-3.36-1.06a6.3 6.3 0 0 1-3.07-1.9 4.63 4.63 0 0 1-1.06-3.02c0-1.01.25-1.89.75-2.64a5.04 5.04 0 0 1 2.04-1.8 6.75 6.75 0 0 1 3-.65 7.15 7.15 0 0 1 5.18 2.11c.64.66 1.1 1.42 1.4 2.28l-2.36 1.04a4.4 4.4 0 0 0-4.22-2.96c-.6 0-1.12.11-1.56.32-.45.19-.8.48-1.06.86-.24.37-.36.8-.36 1.3 0 .57.18 1.08.55 1.53.37.45.93.79 1.68 1.01l3.12.98a6.85 6.85 0 0 1 3.22 1.88c.72.8 1.08 1.8 1.08 3 0 .99-.27 1.87-.8 2.64a5.39 5.39 0 0 1-2.13 1.82c-.91.43-1.97.65-3.17.65Zm14.63-.15a4.22 4.22 0 0 1-3.17-1.15 4.44 4.44 0 0 1-1.13-3.24v-6.29h-2.28v-2.44h.36c.61 0 1.08-.18 1.42-.53a2 2 0 0 0 .5-1.44v-1.01h2.72v2.98h2.95v2.44h-2.95v6.17c0 .45.07.83.21 1.15.15.31.38.55.7.72.32.16.73.24 1.25.24.12 0 .27 0 .43-.02l.45-.05v2.33l-.74.1c-.27.03-.51.04-.72.04Zm9.97.15c-1.3 0-2.45-.3-3.45-.89a6.43 6.43 0 0 1-2.33-2.45 7.22 7.22 0 0 1-.84-3.48c0-1.31.28-2.47.84-3.48a6.37 6.37 0 0 1 5.57-3.26c.97 0 1.84.17 2.61.5a5.87 5.87 0 0 1 3.14 3.39 6.64 6.64 0 0 1 .32 3.67h-10.35v-2.16h8.81l-1.3.98a3.37 3.37 0 0 0-1.36-3.55 3.18 3.18 0 0 0-1.87-.55 3.4 3.4 0 0 0-3.22 2.09c-.3.65-.42 1.45-.36 2.4a3.8 3.8 0 0 0 1.75 3.84c.61.36 1.3.55 2.07.55a3.6 3.6 0 0 0 1.99-.53c.56-.35 1-.81 1.32-1.37l2.2 1.08a4.75 4.75 0 0 1-1.2 1.66c-.52.48-1.16.86-1.91 1.15-.74.27-1.55.41-2.43.41Zm8.62 4.51v-17.78h2.6v2.68l-.32-.62a5.01 5.01 0 0 1 1.92-1.73c.8-.41 1.72-.62 2.74-.62a6.28 6.28 0 0 1 5.64 3.31c.58 1.02.86 2.18.86 3.46a6.9 6.9 0 0 1-3.16 5.9c-.98.59-2.1.89-3.34.89-1 0-1.93-.21-2.76-.63a4.4 4.4 0 0 1-1.9-1.8l.44-.5v7.44h-2.72Zm6.68-7.03c.76 0 1.44-.19 2.04-.55.59-.37 1.05-.88 1.39-1.52.35-.65.53-1.39.53-2.2 0-.82-.18-1.55-.53-2.19a3.77 3.77 0 0 0-3.43-2.06 3.84 3.84 0 0 0-3.46 2.06c-.34.64-.5 1.37-.5 2.19 0 .81.16 1.55.5 2.2.35.64.82 1.15 1.42 1.52.6.36 1.28.55 2.04.55Zm21.47 2.23v-4.03h-8.52v-2.35l8.4-11.5h2.8v11.5h2.48v2.35h-2.47v4.03h-2.69Zm-6.43-5.35-.46-1.03h6.89v-9.24l.77.24-7.2 10.03Z"/><path fill="#60A5FA" d="M443.69 1772.94a1.5 1.5 0 1 0 0-3v3Zm-167.75-187a1.5 1.5 0 0 0 0 2.12l9.55 9.55a1.5 1.5 0 1 0 2.12-2.12l-8.49-8.49 8.49-8.48c.58-.59.58-1.54 0-2.13a1.51 1.51 0 0 0-2.13 0l-9.54 9.55Zm155.75 185.5v-1.5 1.5Zm12-1.5h-12v3h12v-3Zm-34.5-22.5V1611h-3v136.44h3Zm-25.5-161.94h-106.7v3h106.7v-3Zm25.5 25.5a25.5 25.5 0 0 0-25.5-25.5v3a22.5 22.5 0 0 1 22.5 22.5h3Zm22.5 158.94a22.5 22.5 0 0 1-22.5-22.5h-3a25.5 25.5 0 0 0 25.5 25.5v-3Z"/><path fill="#60A5FA" d="M443.69 1770.5a1.5 1.5 0 1 1 0 3v-3Zm-167.75 187a1.5 1.5 0 0 1 0-2.12l9.55-9.55a1.5 1.5 0 1 1 2.12 2.12l-8.49 8.49 8.49 8.48c.58.59.58 1.54 0 2.13-.59.58-1.54.58-2.12 0l-9.55-9.55Zm167.75-184h-12v-3h12v3Zm-34.5 22.5v136.44h-3V1796h3Zm-25.5 161.94H277v-3h106.69v3Zm25.5-25.5a25.5 25.5 0 0 1-25.5 25.5v-3a22.5 22.5 0 0 0 22.5-22.5h3Zm22.5-158.94a22.5 22.5 0 0 0-22.5 22.5h-3a25.5 25.5 0 0 1 25.5-25.5v3Z"/><circle cx="444" cy="1771" r="6.5" fill="#EFF6FF" stroke="#60A5FA" stroke-width="3"/><path fill="#60A5FA" d="M432 1771.63a1.5 1.5 0 1 0 0-3v3Zm-156-2.56a1.5 1.5 0 0 0 0 2.12l9.55 9.54a1.5 1.5 0 1 0 2.12-2.12l-8.49-8.48 8.49-8.49a1.5 1.5 0 1 0-2.12-2.12l-9.55 9.55Zm156-.44H277.06v3H432v-3Z"/><rect width="275" height="69" y="1551" fill="url(#a)" rx="20"/><path fill="#000" d="M48.72 1595.5v-17.88h11.64v2.52h-8.81v5.38h7.85v2.52h-7.85v7.46h-2.83Zm13.75 0v-12.98h2.7v12.98h-2.7Zm0-14.76v-3.12h2.7v3.12h-2.7Zm5.88 14.76v-18.17h2.71v18.17h-2.71Zm11.98.29c-1.3 0-2.45-.3-3.46-.89a6.43 6.43 0 0 1-2.33-2.45 7.22 7.22 0 0 1-.84-3.48c0-1.31.28-2.47.84-3.48a6.37 6.37 0 0 1 5.57-3.26c.98 0 1.85.17 2.62.5a5.87 5.87 0 0 1 3.14 3.39 6.64 6.64 0 0 1 .31 3.67H75.84v-2.16h8.8l-1.29.98a3.37 3.37 0 0 0-1.37-3.55 3.18 3.18 0 0 0-1.87-.55 3.4 3.4 0 0 0-3.21 2.09c-.3.65-.43 1.45-.36 2.4a3.8 3.8 0 0 0 1.75 3.84c.6.36 1.3.55 2.06.55a3.6 3.6 0 0 0 2-.53c.55-.35 1-.81 1.31-1.37l2.21 1.08a4.75 4.75 0 0 1-1.2 1.66c-.53.48-1.17.86-1.92 1.15-.73.27-1.54.41-2.42.41Zm13.08-.29v-17.88h6.5c1.2 0 2.26.22 3.17.67a4.83 4.83 0 0 1 2.16 1.92c.52.83.77 1.83.77 3 0 1.15-.26 2.15-.8 2.98a5.1 5.1 0 0 1-2.13 1.92c-.9.45-1.97.67-3.17.67h-3.67v6.72h-2.83Zm2.83-9.24H100c.64 0 1.2-.13 1.68-.38a2.9 2.9 0 0 0 1.13-1.06c.27-.46.4-1.01.4-1.63 0-.63-.13-1.16-.4-1.61a2.7 2.7 0 0 0-1.13-1.06 3.59 3.59 0 0 0-1.68-.38h-3.75v6.12Zm12.42 9.24v-12.98h2.6v2.61l-.25-.38c.3-.85.76-1.46 1.4-1.83.64-.38 1.4-.57 2.3-.57h.8v2.47h-1.14c-.9 0-1.62.28-2.18.84-.54.54-.82 1.33-.82 2.35v7.49h-2.7Zm14.8.29c-1.3 0-2.45-.3-3.46-.89a6.43 6.43 0 0 1-2.33-2.45 7.22 7.22 0 0 1-.84-3.48c0-1.31.28-2.47.84-3.48a6.37 6.37 0 0 1 5.57-3.26c.97 0 1.84.17 2.61.5a5.87 5.87 0 0 1 3.14 3.39 6.64 6.64 0 0 1 .32 3.67h-10.34v-2.16h8.8l-1.3.98a3.37 3.37 0 0 0-1.36-3.55 3.18 3.18 0 0 0-1.87-.55 3.4 3.4 0 0 0-3.22 2.09c-.3.65-.42 1.45-.36 2.4a3.8 3.8 0 0 0 1.75 3.84c.61.36 1.3.55 2.07.55a3.6 3.6 0 0 0 1.99-.53c.56-.35 1-.81 1.32-1.37l2.2 1.08a4.75 4.75 0 0 1-1.2 1.66c-.52.48-1.16.86-1.91 1.15-.74.27-1.55.41-2.43.41Zm8.62 4.51v-17.78h2.59v2.68l-.31-.62a5.01 5.01 0 0 1 1.92-1.73c.8-.41 1.7-.62 2.73-.62a6.28 6.28 0 0 1 5.64 3.31c.58 1.02.87 2.18.87 3.46a6.9 6.9 0 0 1-3.17 5.9c-.98.59-2.09.89-3.34.89-1 0-1.93-.21-2.76-.63a4.4 4.4 0 0 1-1.9-1.8l.44-.5v7.44h-2.71Zm6.67-7.03c.77 0 1.45-.19 2.04-.55.59-.37 1.05-.88 1.39-1.52.35-.65.53-1.39.53-2.2 0-.82-.18-1.55-.53-2.19a3.77 3.77 0 0 0-3.43-2.06 3.84 3.84 0 0 0-3.46 2.06c-.33.64-.5 1.37-.5 2.19 0 .81.17 1.55.5 2.2.35.64.83 1.15 1.42 1.52.6.36 1.29.55 2.04.55Zm13.3 2.52a5.5 5.5 0 0 1-2.34-.46 3.85 3.85 0 0 1-1.53-1.29 3.51 3.51 0 0 1-.55-1.97c0-.71.15-1.34.45-1.9.32-.56.81-1.03 1.47-1.41a7 7 0 0 1 2.47-.82l4.51-.74v2.13l-3.98.7c-.72.13-1.25.36-1.59.69-.33.32-.5.74-.5 1.25 0 .5.18.91.55 1.23.38.3.87.45 1.46.45.74 0 1.38-.16 1.92-.48a3.4 3.4 0 0 0 1.76-3.07v-3.34c0-.64-.24-1.16-.72-1.56a2.73 2.73 0 0 0-1.88-.62c-.72 0-1.35.19-1.9.58-.52.36-.91.84-1.17 1.44l-2.25-1.13c.24-.64.63-1.2 1.17-1.68.55-.5 1.18-.88 1.9-1.15a6.48 6.48 0 0 1 2.33-.41c1.02 0 1.92.19 2.7.57a4.36 4.36 0 0 1 2.53 3.96v8.74h-2.6v-2.35l.56.07a5.2 5.2 0 0 1-2.78 2.26c-.6.2-1.26.31-2 .31Zm9.98-.29v-12.98h2.6v2.61l-.25-.38c.29-.85.75-1.46 1.4-1.83.63-.38 1.4-.57 2.3-.57h.79v2.47h-1.13c-.9 0-1.62.28-2.18.84-.55.54-.82 1.33-.82 2.35v7.49h-2.71Zm12.58.29a5.5 5.5 0 0 1-2.33-.46 3.85 3.85 0 0 1-1.53-1.29 3.51 3.51 0 0 1-.55-1.97c0-.71.15-1.34.45-1.9.32-.56.81-1.03 1.47-1.41a7 7 0 0 1 2.47-.82l4.51-.74v2.13l-3.98.7c-.72.13-1.25.36-1.59.69-.33.32-.5.74-.5 1.25 0 .5.18.91.55 1.23.38.3.87.45 1.46.45.74 0 1.38-.16 1.93-.48a3.4 3.4 0 0 0 1.75-3.07v-3.34c0-.64-.24-1.16-.72-1.56a2.73 2.73 0 0 0-1.88-.62c-.72 0-1.35.19-1.9.58-.52.36-.91.84-1.17 1.44l-2.25-1.13c.24-.64.63-1.2 1.17-1.68.55-.5 1.18-.88 1.9-1.15a6.48 6.48 0 0 1 2.33-.41c1.02 0 1.93.19 2.7.57a4.36 4.36 0 0 1 2.53 3.96v8.74h-2.6v-2.35l.56.07a5.2 5.2 0 0 1-2.78 2.26c-.6.2-1.26.31-2 .31Zm15.37-.15a4.22 4.22 0 0 1-3.17-1.15 4.44 4.44 0 0 1-1.13-3.24v-6.29h-2.28v-2.44h.36c.61 0 1.09-.18 1.42-.53a2 2 0 0 0 .5-1.44v-1.01h2.72v2.98h2.95v2.44h-2.95v6.17c0 .45.07.83.21 1.15.15.31.38.55.7.72.32.16.73.24 1.25.24.13 0 .27 0 .43-.02l.45-.05v2.33l-.74.1c-.27.03-.51.04-.72.04Zm4.11-.14v-12.98h2.71v12.98h-2.7Zm0-14.76v-3.12h2.71v3.12h-2.7Zm12.15 15.05a6.71 6.71 0 0 1-6.8-6.79 6.56 6.56 0 0 1 3.37-5.88 6.66 6.66 0 0 1 3.43-.89c1.28 0 2.42.29 3.43.89a6.56 6.56 0 0 1 3.34 5.88 6.71 6.71 0 0 1-3.36 5.92 6.8 6.8 0 0 1-3.41.87Zm0-2.52c.77 0 1.45-.19 2.04-.55.6-.37 1.06-.88 1.4-1.52.34-.65.52-1.39.52-2.2 0-.82-.18-1.55-.53-2.19a3.77 3.77 0 0 0-3.43-2.06 3.84 3.84 0 0 0-3.46 2.06c-.33.64-.5 1.37-.5 2.19 0 .81.17 1.55.5 2.2.35.64.83 1.15 1.42 1.52.6.36 1.29.55 2.04.55Zm9.41 2.23v-12.98h2.6v2.54l-.32-.34c.32-.81.84-1.43 1.54-1.84.7-.44 1.52-.65 2.45-.65.96 0 1.8.21 2.54.62.74.42 1.31.99 1.73 1.73.42.74.62 1.58.62 2.54v8.38h-2.68v-7.66c0-.65-.12-1.2-.36-1.65a2.42 2.42 0 0 0-1.04-1.06 2.92 2.92 0 0 0-1.48-.38c-.56 0-1.07.13-1.52.38-.43.24-.76.59-1 1.06a3.53 3.53 0 0 0-.36 1.65v7.66h-2.72Z"/><rect width="275" height="69" y="1736" fill="url(#b)" rx="20"/><path fill="#000" d="M30.7 1780.5v-17.88h5.86c1.86 0 3.46.38 4.82 1.13a7.72 7.72 0 0 1 3.2 3.12 9.4 9.4 0 0 1 1.12 4.68c0 1.76-.37 3.32-1.12 4.68a7.95 7.95 0 0 1-3.2 3.14 9.84 9.84 0 0 1-4.82 1.13H30.7Zm2.84-2.52h3.07c1.26 0 2.36-.26 3.29-.79a5.44 5.44 0 0 0 2.18-2.23c.51-.96.77-2.1.77-3.41s-.27-2.44-.8-3.39a5.48 5.48 0 0 0-2.15-2.23 6.52 6.52 0 0 0-3.3-.79h-3.06v12.84Zm20.78 2.81c-1.3 0-2.44-.3-3.45-.89a6.43 6.43 0 0 1-2.33-2.45 7.22 7.22 0 0 1-.84-3.48c0-1.31.28-2.47.84-3.48a6.37 6.37 0 0 1 5.57-3.26c.97 0 1.85.17 2.61.5a5.87 5.87 0 0 1 3.14 3.39 6.64 6.64 0 0 1 .32 3.67H49.84v-2.16h8.8l-1.3.98a3.37 3.37 0 0 0-1.36-3.55 3.18 3.18 0 0 0-1.87-.55 3.4 3.4 0 0 0-3.22 2.09c-.3.65-.42 1.45-.36 2.4a3.8 3.8 0 0 0 1.75 3.84c.61.36 1.3.55 2.07.55a3.6 3.6 0 0 0 1.99-.53c.56-.35 1-.81 1.32-1.37l2.2 1.08a4.75 4.75 0 0 1-1.2 1.66c-.52.48-1.16.86-1.91 1.15-.74.27-1.55.41-2.43.41Zm8.63-.29v-18.17h2.7v18.17h-2.7Zm5.88 0v-12.98h2.71v12.98h-2.71Zm0-14.76v-3.12h2.71v3.12h-2.71Zm9.65 14.76-5.09-12.98h2.95l3.92 10.58h-1.08l3.9-10.58h2.98l-5.1 12.98h-2.48Zm15.29.29c-1.3 0-2.45-.3-3.46-.89a6.43 6.43 0 0 1-2.32-2.45 7.22 7.22 0 0 1-.84-3.48c0-1.31.28-2.47.84-3.48a6.37 6.37 0 0 1 5.56-3.26c.98 0 1.85.17 2.62.5a5.87 5.87 0 0 1 3.14 3.39 6.64 6.64 0 0 1 .32 3.67H89.28v-2.16h8.81l-1.3.98a3.37 3.37 0 0 0-1.36-3.55 3.18 3.18 0 0 0-1.88-.55 3.4 3.4 0 0 0-3.21 2.09c-.3.65-.43 1.45-.36 2.4a3.8 3.8 0 0 0 1.75 3.84c.6.36 1.3.55 2.06.55a3.6 3.6 0 0 0 2-.53c.56-.35 1-.81 1.32-1.37l2.2 1.08a4.75 4.75 0 0 1-1.2 1.66c-.52.48-1.16.86-1.92 1.15-.73.27-1.54.41-2.42.41Zm8.62-.29v-12.98h2.6v2.61l-.24-.38c.28-.85.75-1.46 1.39-1.83.64-.38 1.4-.57 2.3-.57h.8v2.47h-1.13c-.9 0-1.63.28-2.19.84-.54.54-.81 1.33-.81 2.35v7.49h-2.72Zm9.85 5.3a5.2 5.2 0 0 1-1.8-.33v-2.33c.2.05.42.09.7.12.27.05.53.07.79.07.75 0 1.3-.17 1.65-.5.37-.32.7-.83.99-1.51l.86-1.97-.05 2.28-5.61-14.11h2.9l4.15 10.82h-.98l4.13-10.82h2.93l-5.74 14.4a7.7 7.7 0 0 1-1.15 2.01 4.71 4.71 0 0 1-1.61 1.37c-.6.34-1.33.5-2.16.5Zm22.16-5.01a6.28 6.28 0 0 1-2.79-.58 4.8 4.8 0 0 1-1.9-1.65 4.65 4.65 0 0 1-.67-2.5 5.06 5.06 0 0 1 1.51-3.62c.44-.44.87-.8 1.3-1.08.43-.29.8-.52 1.08-.68l1.47-.81c.47-.27.93-.56 1.36-.87.44-.3.79-.64 1.06-1.03.27-.38.4-.81.4-1.29 0-.58-.19-1.06-.57-1.44-.38-.4-.86-.6-1.44-.6s-1.06.19-1.44.57c-.38.39-.58.88-.58 1.49 0 .42.1.82.3 1.22.2.4.44.78.71 1.13l.84.96 9.6 10.49h-3.38l-8.23-8.86c-.39-.41-.77-.85-1.16-1.32-.36-.48-.68-1-.93-1.58a4.97 4.97 0 0 1-.36-1.92c0-.91.2-1.7.62-2.38a4.52 4.52 0 0 1 3.99-2.11 4.59 4.59 0 0 1 3.93 2.11c.42.66.63 1.4.63 2.24 0 .86-.2 1.6-.6 2.23-.4.62-.9 1.15-1.47 1.58-.56.43-1.09.8-1.58 1.11l-1.47.86c-.38.22-.79.5-1.22.84-.41.32-.77.7-1.06 1.15-.28.43-.43.95-.43 1.56 0 .75.24 1.34.7 1.75.48.42 1.1.63 1.87.63a3.4 3.4 0 0 0 2.33-.87c.3-.25.57-.53.8-.84l.64-.88 2.78-4.08h2.9l-3.2 4.99-.92 1.29a6.5 6.5 0 0 1-5.42 2.79Zm17.6-.29v-17.88h2.82v7.87h8.28v-7.87h2.81v17.88h-2.8v-7.49h-8.29v7.49H152Zm21.24.29a5.5 5.5 0 0 1-2.33-.46 3.85 3.85 0 0 1-1.53-1.29 3.51 3.51 0 0 1-.55-1.97c0-.71.15-1.34.45-1.9.32-.56.81-1.03 1.47-1.41a7 7 0 0 1 2.47-.82l4.51-.74v2.13l-3.98.7c-.72.13-1.25.36-1.59.69-.33.32-.5.74-.5 1.25 0 .5.18.91.55 1.23.38.3.87.45 1.46.45.74 0 1.38-.16 1.92-.48a3.4 3.4 0 0 0 1.76-3.07v-3.34c0-.64-.24-1.16-.72-1.56a2.73 2.73 0 0 0-1.88-.62c-.72 0-1.35.19-1.9.58-.52.36-.91.84-1.17 1.44l-2.25-1.13c.24-.64.63-1.2 1.17-1.68.55-.5 1.18-.88 1.9-1.15a6.48 6.48 0 0 1 2.33-.41c1.02 0 1.92.19 2.7.57a4.36 4.36 0 0 1 2.53 3.96v8.74h-2.6v-2.35l.56.07a5.2 5.2 0 0 1-2.78 2.26c-.6.2-1.26.31-2 .31Zm9.99-.29v-12.98h2.6v2.54l-.32-.34c.32-.81.83-1.43 1.53-1.84.7-.44 1.53-.65 2.45-.65.96 0 1.81.21 2.55.62.73.42 1.3.99 1.72 1.73.42.74.63 1.58.63 2.54v8.38h-2.69v-7.66c0-.65-.12-1.2-.36-1.65a2.42 2.42 0 0 0-1.03-1.06 2.92 2.92 0 0 0-1.49-.38c-.56 0-1.06.13-1.51.38-.43.24-.77.59-1 1.06a3.53 3.53 0 0 0-.37 1.65v7.66h-2.71Zm20.06.29c-1.25 0-2.37-.3-3.36-.89a6.68 6.68 0 0 1-3.17-5.9c0-1.28.3-2.44.87-3.46a6.52 6.52 0 0 1 2.33-2.42c.97-.6 2.07-.89 3.3-.89 1.05 0 1.97.21 2.77.62.8.42 1.43.99 1.9 1.73l-.42.62v-7.87h2.7v18.17h-2.58v-2.64l.32.5a4.38 4.38 0 0 1-1.92 1.8c-.84.42-1.75.63-2.74.63Zm.27-2.52a3.8 3.8 0 0 0 3.43-2.07c.35-.65.52-1.39.52-2.2 0-.82-.17-1.55-.52-2.19a3.8 3.8 0 0 0-3.44-2.06 3.84 3.84 0 0 0-3.45 2.06c-.34.64-.5 1.37-.5 2.19 0 .81.16 1.55.5 2.2.34.64.8 1.15 1.4 1.52.6.36 1.29.55 2.06.55Zm16.07 2.52a6.71 6.71 0 0 1-6.8-6.79 6.56 6.56 0 0 1 3.37-5.88 6.66 6.66 0 0 1 3.43-.89c1.28 0 2.43.29 3.44.89a6.56 6.56 0 0 1 3.34 5.88 6.71 6.71 0 0 1-3.37 5.92 6.8 6.8 0 0 1-3.4.87Zm0-2.52c.77 0 1.45-.19 2.04-.55.6-.37 1.06-.88 1.4-1.52.35-.65.52-1.39.52-2.2 0-.82-.17-1.55-.53-2.19a3.77 3.77 0 0 0-3.43-2.06 3.84 3.84 0 0 0-3.45 2.06c-.34.64-.5 1.37-.5 2.19 0 .81.16 1.55.5 2.2.35.64.82 1.15 1.41 1.52.61.36 1.3.55 2.04.55Zm10.53 2.23v-10.54h-2.4v-2.44h2.4v-.68c0-.97.2-1.79.6-2.44.4-.68.95-1.19 1.66-1.54a5.59 5.59 0 0 1 3.62-.41v2.35a1.91 1.91 0 0 0-.43-.04 3.26 3.26 0 0 0-.39-.03c-.72 0-1.3.17-1.72.51-.44.32-.65.85-.65 1.6v.68h6.22v2.44h-6.22v10.54h-2.69Zm9.38 0v-10.54h-2.37v-2.44h2.38v-.68c0-.97.2-1.79.6-2.44.41-.68.97-1.19 1.67-1.54a5.53 5.53 0 0 1 3.63-.41v2.35c-.14-.03-.3-.04-.46-.04a2.83 2.83 0 0 0-.38-.03c-.72 0-1.3.17-1.73.51-.41.32-.62.85-.62 1.6v.68h2.97v2.44h-2.97v10.54h-2.72Z"/><rect width="275" height="83" y="1914" fill="url(#c)" rx="20"/><path fill="#000" d="M59.03 1949.5v-17.88h6.5c1.2 0 2.26.22 3.17.67a4.83 4.83 0 0 1 2.16 1.92c.51.83.77 1.83.77 3 0 1.15-.27 2.15-.8 2.98a5.1 5.1 0 0 1-2.13 1.92c-.91.45-1.97.67-3.17.67h-3.67v6.72h-2.83Zm2.83-9.24h3.74c.64 0 1.2-.13 1.68-.38a2.9 2.9 0 0 0 1.13-1.06c.27-.46.41-1.01.41-1.63 0-.63-.14-1.16-.4-1.61a2.7 2.7 0 0 0-1.14-1.06 3.59 3.59 0 0 0-1.68-.38h-3.74v6.12Zm18.21 9.53a6.71 6.71 0 0 1-6.8-6.79 6.56 6.56 0 0 1 3.37-5.88 6.66 6.66 0 0 1 3.43-.89c1.28 0 2.43.29 3.44.89a6.56 6.56 0 0 1 3.34 5.88 6.71 6.71 0 0 1-3.37 5.92 6.8 6.8 0 0 1-3.4.87Zm0-2.52c.77 0 1.45-.19 2.04-.55.6-.37 1.06-.88 1.4-1.52.35-.65.52-1.39.52-2.2 0-.82-.17-1.55-.52-2.19a3.77 3.77 0 0 0-3.43-2.06 3.84 3.84 0 0 0-3.46 2.06c-.34.64-.5 1.37-.5 2.19 0 .81.16 1.55.5 2.2.35.64.82 1.15 1.41 1.52.61.36 1.3.55 2.04.55Zm14.22 2.52c-1.33 0-2.5-.33-3.5-.99a5.18 5.18 0 0 1-2.1-2.64l2.1-.98a4.4 4.4 0 0 0 1.44 1.75c.62.43 1.3.65 2.06.65a2.6 2.6 0 0 0 1.56-.43c.4-.29.6-.68.6-1.18 0-.32-.09-.57-.26-.77-.18-.2-.4-.37-.68-.5a3.85 3.85 0 0 0-.79-.29l-2.04-.57a5.12 5.12 0 0 1-2.52-1.44 3.48 3.48 0 0 1-.81-2.28c0-.79.2-1.47.6-2.04.4-.6.95-1.05 1.65-1.37.7-.32 1.5-.48 2.38-.48a5.7 5.7 0 0 1 3.17.89 4.65 4.65 0 0 1 1.96 2.42l-2.08.98a3.15 3.15 0 0 0-1.23-1.48 3.21 3.21 0 0 0-1.85-.56c-.59 0-1.06.15-1.41.44A1.3 1.3 0 0 0 92 1940c0 .3.08.56.24.76.16.2.37.36.62.48.26.12.52.21.8.29l2.1.63c1.08.3 1.9.78 2.48 1.44.58.64.86 1.4.86 2.3 0 .77-.2 1.45-.62 2.04a4.1 4.1 0 0 1-1.68 1.37c-.72.32-1.56.48-2.52.48Zm13.1-.15a4.22 4.22 0 0 1-3.17-1.15 4.44 4.44 0 0 1-1.13-3.24v-6.29h-2.28v-2.44h.36c.61 0 1.08-.18 1.42-.53a2 2 0 0 0 .5-1.44v-1.01h2.71v2.98h2.96v2.44h-2.96v6.17c0 .45.08.83.22 1.15.14.31.38.55.7.72.32.16.73.24 1.24.24.13 0 .28 0 .44-.02l.45-.05v2.33l-.74.1c-.27.03-.51.04-.72.04Zm4.52-5.44v-2.4h9.6v2.4h-9.6Zm13.45 5.3v-17.88h5.85c1.86 0 3.47.38 4.83 1.13a7.72 7.72 0 0 1 3.19 3.12 9.4 9.4 0 0 1 1.13 4.68c0 1.76-.38 3.32-1.13 4.68a7.95 7.95 0 0 1-3.2 3.14 9.84 9.84 0 0 1-4.82 1.13h-5.85Zm2.83-2.52h3.07c1.26 0 2.36-.26 3.29-.79a5.44 5.44 0 0 0 2.18-2.23c.51-.96.77-2.1.77-3.41s-.26-2.44-.8-3.39a5.48 5.48 0 0 0-2.15-2.23 6.52 6.52 0 0 0-3.29-.79h-3.07v12.84Zm20.79 2.81c-1.3 0-2.45-.3-3.46-.89a6.43 6.43 0 0 1-2.33-2.45 7.22 7.22 0 0 1-.84-3.48c0-1.31.28-2.47.84-3.48a6.37 6.37 0 0 1 5.57-3.26c.98 0 1.85.17 2.62.5a5.87 5.87 0 0 1 3.14 3.39 6.64 6.64 0 0 1 .31 3.67H144.5v-2.16h8.8l-1.29.98a3.37 3.37 0 0 0-1.37-3.55 3.18 3.18 0 0 0-1.87-.55 3.4 3.4 0 0 0-3.22 2.09c-.3.65-.42 1.45-.35 2.4a3.8 3.8 0 0 0 1.75 3.84c.6.36 1.3.55 2.06.55a3.6 3.6 0 0 0 2-.53c.55-.35 1-.81 1.31-1.37l2.21 1.08a4.75 4.75 0 0 1-1.2 1.66c-.53.48-1.17.86-1.92 1.15-.74.27-1.54.41-2.42.41Zm8.62-.29v-18.17h2.71v18.17h-2.71Zm5.88 0v-12.98h2.71v12.98h-2.7Zm0-14.76v-3.12h2.71v3.12h-2.7Zm9.65 14.76-5.09-12.98H171l3.9 10.58h-1.07l3.91-10.58h2.98l-5.12 12.98h-2.47Zm15.3.29c-1.3 0-2.46-.3-3.46-.89a6.43 6.43 0 0 1-2.33-2.45 7.22 7.22 0 0 1-.84-3.48c0-1.31.28-2.47.84-3.48a6.37 6.37 0 0 1 5.57-3.26c.97 0 1.84.17 2.61.5a5.87 5.87 0 0 1 3.14 3.39 6.64 6.64 0 0 1 .32 3.67h-10.35v-2.16h8.81l-1.3.98a3.37 3.37 0 0 0-1.36-3.55 3.18 3.18 0 0 0-1.87-.55 3.4 3.4 0 0 0-3.22 2.09c-.3.65-.42 1.45-.36 2.4a3.8 3.8 0 0 0 1.75 3.84c.61.36 1.3.55 2.07.55a3.6 3.6 0 0 0 1.99-.53c.56-.35 1-.81 1.32-1.37l2.2 1.08a4.75 4.75 0 0 1-1.2 1.66c-.52.48-1.16.86-1.91 1.15-.74.27-1.55.41-2.43.41Zm8.61-.29v-12.98h2.6v2.61l-.24-.38c.28-.85.75-1.46 1.39-1.83.64-.38 1.4-.57 2.3-.57h.8v2.47h-1.13c-.9 0-1.63.28-2.19.84-.54.54-.81 1.33-.81 2.35v7.49h-2.72Zm9.85 5.3a5.2 5.2 0 0 1-1.8-.33v-2.33c.2.05.43.09.7.12.27.05.53.07.79.07.75 0 1.3-.17 1.66-.5.36-.32.7-.83.98-1.51l.86-1.97-.04 2.28-5.62-14.11h2.9l4.16 10.82h-.99l4.13-10.82h2.93l-5.74 14.4a7.7 7.7 0 0 1-1.15 2.01 4.71 4.71 0 0 1-1.6 1.37c-.62.34-1.34.5-2.17.5Zm-109.32 26.99a7.27 7.27 0 0 1-7.06-4.92l2.4-1.01a5.46 5.46 0 0 0 1.9 2.54c.83.6 1.79.89 2.88.89.64 0 1.2-.09 1.68-.29.48-.2.84-.49 1.1-.86.27-.37.4-.79.4-1.27 0-.66-.18-1.18-.55-1.56a3.67 3.67 0 0 0-1.63-.91l-3.36-1.06a6.3 6.3 0 0 1-3.07-1.9 4.63 4.63 0 0 1-1.05-3.02c0-1.01.24-1.89.74-2.64a5.04 5.04 0 0 1 2.04-1.8 6.75 6.75 0 0 1 3-.65 7.15 7.15 0 0 1 5.18 2.11c.64.66 1.1 1.42 1.4 2.28l-2.36 1.04a4.4 4.4 0 0 0-4.22-2.96c-.6 0-1.11.11-1.56.32-.45.19-.8.48-1.06.86-.24.37-.36.8-.36 1.3 0 .57.19 1.08.56 1.53.36.45.92.79 1.68 1.01l3.12.98a6.85 6.85 0 0 1 3.21 1.88c.72.8 1.08 1.8 1.08 3 0 .99-.26 1.87-.8 2.64a5.39 5.39 0 0 1-2.13 1.82c-.9.43-1.96.65-3.16.65Zm13.64 0a5 5 0 0 1-2.57-.65 4.67 4.67 0 0 1-1.73-1.85 6.1 6.1 0 0 1-.6-2.76v-8.01h2.71v7.77c0 .59.12 1.11.36 1.56.24.45.58.8 1.01 1.06.43.24.93.36 1.49.36.58 0 1.08-.13 1.51-.39.43-.25.77-.61 1.01-1.08.26-.46.38-1 .38-1.63v-7.65h2.7v12.98h-2.58v-2.54l.3.33c-.31.8-.82 1.42-1.52 1.85-.7.43-1.53.65-2.47.65Zm9.43 4.51v-17.78h2.6v2.68l-.32-.62a5.01 5.01 0 0 1 1.92-1.73c.8-.41 1.71-.62 2.73-.62a6.28 6.28 0 0 1 5.64 3.31c.58 1.02.87 2.18.87 3.46a6.9 6.9 0 0 1-3.17 5.9c-.97.59-2.09.89-3.33.89-1.01 0-1.93-.21-2.77-.63a4.4 4.4 0 0 1-1.9-1.8l.44-.5v7.44h-2.71Zm6.67-7.03c.77 0 1.45-.19 2.04-.55.6-.37 1.06-.88 1.4-1.52.34-.65.52-1.39.52-2.2 0-.82-.18-1.55-.53-2.19a3.77 3.77 0 0 0-3.43-2.06 3.84 3.84 0 0 0-3.45 2.06c-.34.64-.5 1.37-.5 2.19 0 .81.16 1.55.5 2.2.35.64.82 1.15 1.41 1.52.6.36 1.29.55 2.04.55Zm9.4 7.03v-17.78h2.6v2.68l-.31-.62a5.01 5.01 0 0 1 1.92-1.73c.8-.41 1.7-.62 2.73-.62a6.28 6.28 0 0 1 5.64 3.31c.58 1.02.87 2.18.87 3.46a6.9 6.9 0 0 1-3.17 5.9c-.98.59-2.09.89-3.34.89-1 0-1.93-.21-2.76-.63a4.4 4.4 0 0 1-1.9-1.8l.44-.5v7.44h-2.71Zm6.68-7.03c.77 0 1.45-.19 2.04-.55.6-.37 1.06-.88 1.4-1.52.34-.65.52-1.39.52-2.2 0-.82-.18-1.55-.53-2.19a3.77 3.77 0 0 0-3.43-2.06 3.84 3.84 0 0 0-3.46 2.06c-.33.64-.5 1.37-.5 2.19 0 .81.17 1.55.5 2.2.35.64.83 1.15 1.42 1.52.6.36 1.29.55 2.04.55Zm15.67 2.52a6.71 6.71 0 0 1-6.8-6.79 6.56 6.56 0 0 1 3.37-5.88 6.66 6.66 0 0 1 3.43-.89c1.28 0 2.42.29 3.43.89a6.56 6.56 0 0 1 3.34 5.88 6.71 6.71 0 0 1-3.36 5.92 6.8 6.8 0 0 1-3.41.87Zm0-2.52c.77 0 1.45-.19 2.04-.55.6-.37 1.06-.88 1.4-1.52.34-.65.52-1.39.52-2.2 0-.82-.18-1.55-.53-2.19a3.77 3.77 0 0 0-3.43-2.06 3.84 3.84 0 0 0-3.46 2.06c-.33.64-.5 1.37-.5 2.19 0 .81.17 1.55.5 2.2.36.64.83 1.15 1.42 1.52.6.36 1.29.55 2.04.55Zm9.41 2.23v-12.98h2.6v2.61l-.24-.38c.28-.85.75-1.46 1.39-1.83.64-.38 1.4-.57 2.3-.57h.8v2.47h-1.13c-.9 0-1.63.28-2.19.84-.54.54-.81 1.33-.81 2.35v7.49h-2.72Zm14.55.14a4.22 4.22 0 0 1-3.17-1.15 4.44 4.44 0 0 1-1.13-3.24v-6.29h-2.28v-2.44h.36c.61 0 1.08-.18 1.42-.53a2 2 0 0 0 .5-1.44v-1.01h2.72v2.98h2.95v2.44h-2.95v6.17c0 .45.07.83.21 1.15.15.31.38.55.7.72.32.16.73.24 1.25.24.12 0 .27 0 .43-.02l.45-.05v2.33l-.74.1c-.27.03-.51.04-.72.04Z"/><rect width="238.5" height="56.5" x="448.75" y="1232.75" fill="#DBEAFE" rx="11.25"/><rect width="238.5" height="56.5" x="448.75" y="1232.75" stroke="#4B5563" stroke-dasharray="8 8" stroke-width="1.5" rx="11.25"/><path fill="#222" d="M539.26 1271.29a7.27 7.27 0 0 1-7.06-4.92l2.4-1.01a5.46 5.46 0 0 0 1.9 2.54c.84.6 1.8.89 2.88.89.64 0 1.2-.09 1.68-.29.48-.2.85-.49 1.1-.86.28-.37.42-.79.42-1.27 0-.66-.19-1.18-.56-1.56a3.67 3.67 0 0 0-1.63-.91l-3.36-1.06a6.3 6.3 0 0 1-3.07-1.9 4.63 4.63 0 0 1-1.06-3.02c0-1.01.25-1.89.75-2.64a5.04 5.04 0 0 1 2.04-1.8 6.75 6.75 0 0 1 3-.65 7.15 7.15 0 0 1 5.18 2.11c.64.66 1.1 1.42 1.4 2.28l-2.36 1.04a4.4 4.4 0 0 0-4.22-2.96c-.6 0-1.11.11-1.56.32-.45.19-.8.48-1.06.86-.24.37-.36.8-.36 1.3 0 .57.19 1.08.55 1.53.37.45.93.79 1.68 1.01l3.12.98a6.85 6.85 0 0 1 3.22 1.88c.72.8 1.08 1.8 1.08 3 0 .99-.26 1.87-.8 2.64a5.39 5.39 0 0 1-2.13 1.82c-.91.43-1.97.65-3.17.65Zm14.63-.15a4.22 4.22 0 0 1-3.17-1.15 4.44 4.44 0 0 1-1.13-3.24v-6.29h-2.27v-2.44h.35c.61 0 1.09-.18 1.42-.53a2 2 0 0 0 .5-1.44v-1.01h2.72v2.98h2.95v2.44h-2.95v6.17c0 .45.07.83.21 1.15.15.31.38.55.7.72.32.16.74.24 1.25.24.13 0 .27 0 .43-.02l.46-.05v2.33l-.75.1c-.27.03-.51.04-.72.04Zm9.97.15c-1.3 0-2.44-.3-3.45-.89a6.43 6.43 0 0 1-2.33-2.45 7.22 7.22 0 0 1-.84-3.48c0-1.31.28-2.47.84-3.48a6.37 6.37 0 0 1 5.57-3.26c.97 0 1.85.17 2.61.5a5.87 5.87 0 0 1 3.14 3.39 6.64 6.64 0 0 1 .32 3.67h-10.34v-2.16h8.8l-1.3.98a3.37 3.37 0 0 0-1.36-3.55 3.18 3.18 0 0 0-1.87-.55 3.4 3.4 0 0 0-3.22 2.09c-.3.65-.42 1.45-.36 2.4a3.8 3.8 0 0 0 1.75 3.84c.61.36 1.3.55 2.07.55a3.6 3.6 0 0 0 1.99-.53c.56-.35 1-.81 1.32-1.37l2.2 1.08a4.75 4.75 0 0 1-1.2 1.66c-.52.48-1.16.86-1.91 1.15-.74.27-1.55.41-2.43.41Zm8.63 4.51v-17.78h2.59v2.68l-.31-.62a5.01 5.01 0 0 1 1.92-1.73c.8-.41 1.7-.62 2.73-.62a6.28 6.28 0 0 1 5.64 3.31c.58 1.02.87 2.18.87 3.46a6.9 6.9 0 0 1-3.17 5.9c-.98.59-2.09.89-3.34.89-1 0-1.93-.21-2.76-.63a4.4 4.4 0 0 1-1.9-1.8l.44-.5v7.44h-2.71Zm6.67-7.03c.77 0 1.45-.19 2.04-.55.59-.37 1.05-.88 1.39-1.52.35-.65.53-1.39.53-2.2 0-.82-.18-1.55-.53-2.19a3.77 3.77 0 0 0-3.43-2.06 3.84 3.84 0 0 0-3.46 2.06c-.33.64-.5 1.37-.5 2.19 0 .81.17 1.55.5 2.2.35.64.83 1.15 1.42 1.52.6.36 1.29.55 2.04.55Zm19.05 2.52c-.96 0-1.87-.18-2.71-.53a6.34 6.34 0 0 1-2.16-1.49 5.63 5.63 0 0 1-1.28-2.25l2.4-.92c.32.85.81 1.51 1.47 1.97.65.47 1.41.7 2.28.7.7 0 1.31-.14 1.82-.41.53-.27.94-.66 1.23-1.15.3-.5.45-1.1.45-1.8 0-.69-.15-1.28-.45-1.78-.3-.49-.7-.87-1.23-1.13a4.12 4.12 0 0 0-1.82-.38 5.45 5.45 0 0 0-1.66.26l-.62-1.32 4.7-5.54h-7.6v-2.4h10.77v2.28l-4.6 5.52-.08-.91c1.07.01 2.02.25 2.83.72a4.75 4.75 0 0 1 1.9 1.87c.46.78.7 1.7.7 2.74a5.8 5.8 0 0 1-3.08 5.18c-.94.51-2.03.77-3.26.77Z"/><circle cx="688" cy="1261" r="6.5" fill="#EFF6FF" stroke="#60A5FA" stroke-width="3"/><path fill="#60A5FA" d="M696 1262.94a1.5 1.5 0 1 1 0-3v3Zm167.75-187a1.5 1.5 0 0 1 0 2.12l-9.55 9.55c-.58.58-1.53.58-2.12 0a1.51 1.51 0 0 1 0-2.13l8.49-8.48-8.49-8.49a1.5 1.5 0 1 1 2.12-2.12l9.55 9.55Zm-167.75 184h12v3h-12v-3Zm34.5-22.5V1101h3v136.44h-3ZM756 1075.5h106.69v3H756v-3Zm-25.5 25.5a25.5 25.5 0 0 1 25.5-25.5v3a22.5 22.5 0 0 0-22.5 22.5h-3ZM708 1259.94a22.5 22.5 0 0 0 22.5-22.5h3a25.5 25.5 0 0 1-25.5 25.5v-3Z"/><path fill="#60A5FA" d="M696 1259.5a1.5 1.5 0 1 0 0 3v-3Zm167.75 187a1.5 1.5 0 0 0 0-2.12l-9.55-9.55a1.5 1.5 0 1 0-2.12 2.12l8.49 8.49-8.49 8.48a1.51 1.51 0 0 0 0 2.13c.59.58 1.54.58 2.12 0l9.55-9.55ZM696 1262.5h12v-3h-12v3Zm34.5 22.5v136.44h3V1285h-3Zm25.5 161.94h106.69v-3H756v3Zm-25.5-25.5a25.5 25.5 0 0 0 25.5 25.5v-3a22.5 22.5 0 0 1-22.5-22.5h-3ZM708 1262.5a22.5 22.5 0 0 1 22.5 22.5h3a25.5 25.5 0 0 0-25.5-25.5v3Z"/><rect width="276" height="83" x="864" y="1034" fill="url(#d)" rx="20"/><path fill="#000" d="M938.1 1069.5v-17.88h6.5c1.2 0 2.25.22 3.17.67a4.85 4.85 0 0 1 2.13 1.92c.53.83.8 1.83.8 3 0 1.23-.32 2.29-.94 3.17a5.2 5.2 0 0 1-2.47 1.92l4.12 7.2h-3.21l-4.4-7.8 1.85 1.08h-4.72v6.72h-2.84Zm2.83-9.24h3.72c.65 0 1.22-.13 1.7-.38.48-.26.85-.61 1.1-1.06.28-.46.41-1.01.41-1.63 0-.63-.13-1.16-.4-1.61a2.55 2.55 0 0 0-1.11-1.06 3.64 3.64 0 0 0-1.7-.38h-3.72v6.12Zm17.97 9.53c-1.3 0-2.44-.3-3.45-.89a6.43 6.43 0 0 1-2.33-2.45 7.22 7.22 0 0 1-.84-3.48c0-1.31.28-2.47.84-3.48a6.37 6.37 0 0 1 5.57-3.26c.97 0 1.84.17 2.61.5a5.87 5.87 0 0 1 3.14 3.39 6.64 6.64 0 0 1 .32 3.67H954.4v-2.16h8.81l-1.3.98a3.37 3.37 0 0 0-1.36-3.55 3.18 3.18 0 0 0-1.87-.55 3.4 3.4 0 0 0-3.22 2.09c-.3.65-.42 1.45-.36 2.4a3.8 3.8 0 0 0 1.75 3.84c.61.36 1.3.55 2.07.55a3.6 3.6 0 0 0 1.99-.53c.56-.35 1-.81 1.32-1.37l2.2 1.08a4.75 4.75 0 0 1-1.2 1.66c-.52.48-1.16.86-1.91 1.15-.74.27-1.55.41-2.43.41Zm12.16-.29-5.09-12.98h2.95l3.92 10.58h-1.09l3.92-10.58h2.97l-5.1 12.98h-2.48Zm9.43 0v-12.98h2.7v12.98h-2.7Zm0-14.76v-3.12h2.7v3.12h-2.7Zm10.68 15.05c-1.33 0-2.5-.33-3.5-.99a5.18 5.18 0 0 1-2.1-2.64l2.1-.98a4.4 4.4 0 0 0 1.44 1.75c.62.43 1.3.65 2.06.65a2.6 2.6 0 0 0 1.56-.43c.4-.29.6-.68.6-1.18 0-.32-.09-.57-.26-.77-.18-.2-.4-.37-.68-.5a3.85 3.85 0 0 0-.79-.29l-2.04-.57a5.12 5.12 0 0 1-2.52-1.44 3.48 3.48 0 0 1-.81-2.28c0-.79.2-1.47.6-2.04.4-.6.95-1.05 1.65-1.37.7-.32 1.5-.48 2.38-.48a5.7 5.7 0 0 1 3.16.89 4.65 4.65 0 0 1 1.97 2.42l-2.09.98a3.15 3.15 0 0 0-1.22-1.48 3.21 3.21 0 0 0-1.85-.56c-.59 0-1.06.15-1.41.44a1.3 1.3 0 0 0-.53 1.08c0 .3.08.56.24.76.16.2.37.36.62.48.26.12.52.21.8.29l2.1.63c1.08.3 1.9.78 2.48 1.44.58.64.86 1.4.86 2.3 0 .77-.2 1.45-.62 2.04a4.1 4.1 0 0 1-1.68 1.37c-.72.32-1.56.48-2.52.48Zm7.48-.29v-12.98h2.71v12.98h-2.71Zm0-14.76v-3.12h2.71v3.12h-2.71Zm12.15 15.05a6.69 6.69 0 0 1-6.79-6.79 6.55 6.55 0 0 1 3.36-5.88 6.62 6.62 0 0 1 3.43-.89c1.28 0 2.42.29 3.43.89a6.27 6.27 0 0 1 2.42 2.4c.61 1 .92 2.16.92 3.48a6.7 6.7 0 0 1-6.77 6.79Zm0-2.52c.77 0 1.45-.19 2.04-.55a3.92 3.92 0 0 0 1.39-1.52c.35-.65.53-1.39.53-2.2a4.5 4.5 0 0 0-.53-2.19 3.76 3.76 0 0 0-3.43-2.06 3.85 3.85 0 0 0-3.46 2.06c-.33.64-.5 1.37-.5 2.19 0 .81.17 1.55.5 2.2.35.64.83 1.15 1.42 1.52.61.36 1.29.55 2.04.55Zm9.41 2.23v-12.98h2.59v2.54l-.31-.34c.32-.81.83-1.43 1.54-1.84a4.5 4.5 0 0 1 2.45-.65c.96 0 1.8.21 2.54.62a4.5 4.5 0 0 1 1.73 1.73c.41.74.62 1.58.62 2.54v8.38h-2.69v-7.66c0-.65-.12-1.2-.36-1.65a2.4 2.4 0 0 0-1.03-1.06 2.92 2.92 0 0 0-1.49-.38c-.56 0-1.06.13-1.51.38-.43.24-.77.59-1.01 1.06a3.53 3.53 0 0 0-.36 1.65v7.66h-2.71Zm18.87.29c-1.33 0-2.5-.33-3.51-.99a5.2 5.2 0 0 1-2.09-2.64l2.09-.98c.35.74.83 1.32 1.44 1.75.63.43 1.31.65 2.07.65a2.6 2.6 0 0 0 1.56-.43c.4-.29.6-.68.6-1.18 0-.32-.09-.57-.27-.77-.17-.2-.4-.37-.67-.5a3.96 3.96 0 0 0-.79-.29l-2.04-.57a5.12 5.12 0 0 1-2.52-1.44 3.45 3.45 0 0 1-.82-2.28c0-.79.2-1.47.6-2.04.4-.6.95-1.05 1.66-1.37.7-.32 1.49-.48 2.37-.48a5.7 5.7 0 0 1 3.17.89 4.62 4.62 0 0 1 1.97 2.42l-2.09.98a3.1 3.1 0 0 0-1.22-1.48 3.23 3.23 0 0 0-1.85-.56c-.59 0-1.06.15-1.42.44a1.3 1.3 0 0 0-.52 1.08c0 .3.08.56.24.76.16.2.36.36.62.48s.52.21.79.29l2.11.63c1.08.3 1.9.78 2.48 1.44.57.64.86 1.4.86 2.3 0 .77-.21 1.45-.62 2.04a4.1 4.1 0 0 1-1.68 1.37c-.72.32-1.56.48-2.52.48Zm17.12 0a6.25 6.25 0 0 1-2.78-.58c-.8-.4-1.44-.95-1.9-1.65a4.63 4.63 0 0 1-.67-2.5c0-.8.14-1.5.43-2.09.29-.61.65-1.12 1.08-1.53.43-.44.86-.8 1.3-1.08.43-.29.79-.52 1.08-.68l1.46-.81c.48-.27.94-.56 1.37-.87.43-.3.78-.64 1.05-1.03.28-.38.41-.81.41-1.29 0-.58-.19-1.06-.57-1.44-.39-.4-.87-.6-1.44-.6-.58 0-1.06.19-1.44.57a2 2 0 0 0-.58 1.49c0 .42.1.82.29 1.22a7.74 7.74 0 0 0 1.56 2.09l9.6 10.49h-3.39l-8.23-8.86c-.38-.41-.77-.85-1.15-1.32-.37-.48-.68-1-.94-1.58a4.97 4.97 0 0 1 .27-4.3c.43-.67.99-1.19 1.68-1.56a4.97 4.97 0 0 1 4.61.03 4.28 4.28 0 0 1 1.65 6c-.4.62-.89 1.15-1.46 1.58-.56.43-1.09.8-1.59 1.11l-1.46.86c-.38.22-.79.5-1.22.84-.42.32-.77.7-1.06 1.15-.29.43-.43.95-.43 1.56 0 .75.23 1.34.69 1.75.48.42 1.11.63 1.88.63a3.45 3.45 0 0 0 2.32-.87c.31-.25.57-.53.8-.84l.64-.88 2.79-4.08h2.9l-3.21 4.99c-.26.38-.56.81-.92 1.29a6.49 6.49 0 0 1-3.04 2.38 6.4 6.4 0 0 1-2.38.41Zm-127.45 31.71 6.29-17.88h3.5l6.3 17.88h-3.03l-1.37-4.01h-7.27l-1.4 4.01h-3.02Zm5.23-6.53h5.6l-3.17-9.36h.79l-3.22 9.36Zm18.24 6.82c-1.25 0-2.37-.3-3.36-.89a6.68 6.68 0 0 1-3.17-5.9c0-1.28.3-2.44.87-3.46a6.52 6.52 0 0 1 2.33-2.42c.97-.6 2.08-.89 3.3-.89 1.05 0 1.97.21 2.77.62.8.42 1.43.99 1.9 1.73l-.41.62v-7.87h2.68v18.17h-2.56v-2.64l.3.5a4.38 4.38 0 0 1-1.91 1.8c-.84.42-1.75.63-2.74.63Zm.26-2.52a3.8 3.8 0 0 0 3.44-2.07c.35-.65.53-1.39.53-2.2 0-.82-.18-1.55-.53-2.19a3.8 3.8 0 0 0-3.43-2.06 3.84 3.84 0 0 0-3.46 2.06c-.34.64-.5 1.37-.5 2.19 0 .81.16 1.55.5 2.2.34.64.8 1.15 1.4 1.52.6.36 1.29.55 2.06.55Zm7.83 7.53a4 4 0 0 1-.58-.04c-.22-.02-.4-.04-.55-.08v-2.35c.3.05.6.07.91.07.67 0 1.2-.17 1.6-.52.4-.34.6-.85.6-1.54v-13.82h2.72v13.82c0 .94-.2 1.75-.6 2.42-.4.68-.95 1.18-1.65 1.52-.7.35-1.52.52-2.45.52Zm1.99-20.06v-3.12H965v3.12h-2.71Zm10.51 15.05a5 5 0 0 1-2.56-.65 4.67 4.67 0 0 1-1.73-1.85 6.1 6.1 0 0 1-.6-2.76v-8.01h2.71v7.77c0 .59.12 1.11.36 1.56.24.45.58.8 1 1.06.44.24.94.36 1.5.36.57 0 1.08-.13 1.5-.39.44-.25.78-.61 1.02-1.08.25-.46.38-1 .38-1.63v-7.65h2.69v12.98h-2.57v-2.54l.29.33c-.3.8-.81 1.42-1.51 1.85-.7.43-1.53.65-2.48.65Zm14.23 0c-1.32 0-2.5-.33-3.5-.99a5.18 5.18 0 0 1-2.09-2.64l2.09-.98a4.4 4.4 0 0 0 1.44 1.75c.62.43 1.31.65 2.06.65a2.6 2.6 0 0 0 1.56-.43c.4-.29.6-.68.6-1.18 0-.32-.08-.57-.26-.77-.18-.2-.4-.37-.67-.5a3.85 3.85 0 0 0-.8-.29l-2.03-.57a5.12 5.12 0 0 1-2.52-1.44 3.48 3.48 0 0 1-.82-2.28c0-.79.2-1.47.6-2.04.4-.6.95-1.05 1.66-1.37.7-.32 1.5-.48 2.37-.48a5.7 5.7 0 0 1 3.17.89 4.65 4.65 0 0 1 1.97 2.42l-2.09.98a3.15 3.15 0 0 0-1.22-1.48 3.21 3.21 0 0 0-1.85-.56c-.6 0-1.07.15-1.42.44a1.3 1.3 0 0 0-.53 1.08c0 .3.08.56.24.76.16.2.37.36.63.48.25.12.52.21.79.29l2.11.63c1.07.3 1.9.78 2.47 1.44.58.64.87 1.4.87 2.3 0 .77-.21 1.45-.63 2.04a4.1 4.1 0 0 1-1.68 1.37c-.72.32-1.56.48-2.52.48Zm13.1-.15a4.22 4.22 0 0 1-3.17-1.15 4.44 4.44 0 0 1-1.13-3.24v-6.29h-2.27v-2.44h.35c.61 0 1.09-.18 1.42-.53a2 2 0 0 0 .5-1.44v-1.01h2.72v2.98h2.95v2.44h-2.95v6.17c0 .45.07.83.21 1.15.15.31.38.55.7.72.32.16.74.24 1.25.24.13 0 .27 0 .43-.02l.46-.05v2.33l-.75.1c-.27.03-.51.04-.72.04Zm4.11-.14v-12.98h2.59v2.8l-.33-.43c.27-.88.77-1.54 1.49-1.99a4.55 4.55 0 0 1 2.47-.67 4.7 4.7 0 0 1 2.76.84 3.9 3.9 0 0 1 1.63 2.18l-.77.07a4.57 4.57 0 0 1 1.75-2.32c.8-.52 1.72-.77 2.74-.77a4.79 4.79 0 0 1 4.18 2.35c.43.74.64 1.58.64 2.52v8.4h-2.71v-7.66c0-.65-.12-1.2-.36-1.65a2.3 2.3 0 0 0-.96-1.06 2.6 2.6 0 0 0-1.41-.38c-.55 0-1.03.13-1.44.38-.42.24-.75.59-.99 1.06a3.53 3.53 0 0 0-.36 1.65v7.66h-2.69v-7.66c0-.65-.12-1.2-.36-1.65a2.3 2.3 0 0 0-.96-1.06c-.4-.25-.88-.38-1.44-.38-.54 0-1.02.13-1.44.38-.41.24-.74.59-.98 1.06a3.8 3.8 0 0 0-.34 1.65v7.66h-2.71Zm28.15.29c-1.29 0-2.45-.3-3.45-.89a6.38 6.38 0 0 1-2.33-2.45 7.22 7.22 0 0 1-.84-3.48c0-1.31.28-2.47.84-3.48a6.31 6.31 0 0 1 5.57-3.26c.97 0 1.84.17 2.61.5.77.34 1.42.8 1.95 1.39.52.58.92 1.24 1.2 2a6.81 6.81 0 0 1 .31 3.67h-10.35v-2.16h8.81l-1.29.98c.16-.78.1-1.48-.17-2.09a3.14 3.14 0 0 0-1.2-1.46 3.17 3.17 0 0 0-1.87-.55 3.4 3.4 0 0 0-3.22 2.09c-.3.65-.42 1.45-.36 2.4a3.85 3.85 0 0 0 1.75 3.84 4 4 0 0 0 2.07.55c.78 0 1.44-.18 1.99-.53.56-.35 1-.81 1.32-1.37l2.21 1.08a4.85 4.85 0 0 1-1.2 1.66 6.1 6.1 0 0 1-1.92 1.15c-.74.27-1.55.41-2.43.41Zm8.63-.29v-12.98h2.59v2.54l-.31-.34c.32-.81.83-1.43 1.53-1.84a4.53 4.53 0 0 1 2.45-.65c.96 0 1.81.21 2.54.62.74.42 1.32.99 1.73 1.73.42.74.63 1.58.63 2.54v8.38h-2.69v-7.66c0-.65-.12-1.2-.36-1.65a2.45 2.45 0 0 0-1.03-1.06 2.95 2.95 0 0 0-1.49-.38c-.56 0-1.07.13-1.51.38-.44.24-.77.59-1.01 1.06a3.53 3.53 0 0 0-.36 1.65v7.66h-2.71Zm19.67.14a4.2 4.2 0 0 1-3.16-1.15c-.76-.77-1.13-1.85-1.13-3.24v-6.29h-2.28v-2.44h.36c.61 0 1.08-.18 1.41-.53.34-.35.51-.83.51-1.44v-1.01h2.71v2.98h2.95v2.44h-2.95v6.17c0 .45.07.83.22 1.15.14.31.37.55.69.72.32.16.74.24 1.25.24.13 0 .27 0 .43-.02l.46-.05v2.33l-.75.1c-.27.03-.51.04-.72.04Zm8.91.15a6.26 6.26 0 0 1-3.5-.99 5.2 5.2 0 0 1-2.09-2.64l2.09-.98c.35.74.83 1.32 1.44 1.75.62.43 1.31.65 2.06.65a2.6 2.6 0 0 0 1.56-.43c.4-.29.6-.68.6-1.18 0-.32-.08-.57-.26-.77-.18-.2-.4-.37-.67-.5a3.96 3.96 0 0 0-.79-.29l-2.04-.57a5.12 5.12 0 0 1-2.52-1.44 3.45 3.45 0 0 1-.82-2.28c0-.79.2-1.47.6-2.04.4-.6.95-1.05 1.66-1.37.7-.32 1.49-.48 2.37-.48a5.7 5.7 0 0 1 3.17.89 4.67 4.67 0 0 1 1.97 2.42l-2.09.98a3.16 3.16 0 0 0-1.22-1.48 3.23 3.23 0 0 0-1.85-.56c-.59 0-1.07.15-1.42.44a1.3 1.3 0 0 0-.53 1.08c0 .3.08.56.24.76.16.2.37.36.63.48.25.12.52.21.79.29l2.11.63c1.07.3 1.9.78 2.47 1.44.58.64.87 1.4.87 2.3 0 .77-.21 1.45-.63 2.04a4.1 4.1 0 0 1-1.68 1.37c-.72.32-1.56.48-2.52.48Z"/><rect width="276" height="69" x="864" y="1225" fill="url(#e)" rx="20"/><path fill="#000" d="M907.78 1269.79a9.27 9.27 0 0 1-6.55-2.64 9.23 9.23 0 0 1-1.97-2.93 9.48 9.48 0 0 1-.7-3.67c0-1.33.24-2.55.7-3.67a8.8 8.8 0 0 1 4.9-4.85 9.27 9.27 0 0 1 3.62-.7 9.15 9.15 0 0 1 8.52 5.55c.47 1.12.7 2.34.7 3.67a9.2 9.2 0 0 1-2.67 6.6 9.27 9.27 0 0 1-6.55 2.64Zm0-2.59a6.22 6.22 0 0 0 4.59-1.9 6.62 6.62 0 0 0 1.82-4.75 6.62 6.62 0 0 0-1.82-4.73 6.11 6.11 0 0 0-4.59-1.92 6.18 6.18 0 0 0-4.58 1.92 6.62 6.62 0 0 0-1.8 4.73 6.62 6.62 0 0 0 1.8 4.75 6.32 6.32 0 0 0 4.58 1.9Zm4.49 4.46-5.86-9.31h3.03l5.88 9.31h-3.05Zm12.26-1.87a5 5 0 0 1-2.57-.65 4.67 4.67 0 0 1-1.72-1.85 6.1 6.1 0 0 1-.6-2.76v-8.01h2.7v7.77c0 .59.13 1.11.37 1.56.24.45.57.8 1 1.06.44.24.93.36 1.5.36s1.07-.13 1.5-.39c.44-.25.77-.61 1.01-1.08.26-.46.39-1 .39-1.63v-7.65h2.69v12.98h-2.57v-2.54l.29.33c-.3.8-.81 1.42-1.52 1.85-.7.43-1.52.65-2.47.65Zm13.32 0a5.5 5.5 0 0 1-2.33-.46 3.85 3.85 0 0 1-1.53-1.29 3.51 3.51 0 0 1-.56-1.97c0-.71.16-1.34.46-1.9.32-.56.8-1.03 1.47-1.41a7 7 0 0 1 2.47-.82l4.5-.74v2.13l-3.98.7c-.72.13-1.24.36-1.58.69-.34.32-.5.74-.5 1.25 0 .5.18.91.55 1.23.38.3.87.45 1.46.45.74 0 1.38-.16 1.92-.48a3.4 3.4 0 0 0 1.75-3.07v-3.34c0-.64-.24-1.16-.72-1.56a2.73 2.73 0 0 0-1.87-.62c-.72 0-1.35.19-1.9.58-.52.36-.91.84-1.17 1.44l-2.25-1.13c.24-.64.63-1.2 1.17-1.68.54-.5 1.18-.88 1.9-1.15a6.48 6.48 0 0 1 2.32-.41c1.03 0 1.93.19 2.72.57a4.36 4.36 0 0 1 2.52 3.96v8.74h-2.6v-2.35l.56.07a5.2 5.2 0 0 1-2.78 2.26c-.6.2-1.26.31-2 .31Zm9.99-.29v-18.17h2.71v18.17h-2.71Zm5.88 0v-12.98h2.71v12.98h-2.7Zm0-14.76v-3.12h2.71v3.12h-2.7Zm11.5 14.9a4.22 4.22 0 0 1-3.17-1.15 4.44 4.44 0 0 1-1.13-3.24v-6.29h-2.28v-2.44h.36c.61 0 1.08-.18 1.42-.53a2 2 0 0 0 .5-1.44v-1.01h2.72v2.98h2.95v2.44h-2.95v6.17c0 .45.07.83.21 1.15.15.31.38.55.7.72.32.16.73.24 1.25.24.12 0 .27 0 .43-.02l.45-.05v2.33l-.74.1c-.27.03-.51.04-.72.04Zm5.26 5.16a5.2 5.2 0 0 1-1.8-.33v-2.33c.2.05.43.09.7.12.27.05.53.07.79.07.75 0 1.3-.17 1.66-.5.36-.32.7-.83.98-1.51l.86-1.97-.04 2.28-5.62-14.11h2.9l4.16 10.82h-.99l4.13-10.82h2.93l-5.74 14.4a7.7 7.7 0 0 1-1.15 2.01 4.71 4.71 0 0 1-1.6 1.37c-.62.34-1.34.5-2.17.5Zm15.39-5.3 6.29-17.88h3.5l6.29 17.88h-3.03l-1.36-4.01h-7.27l-1.4 4.01h-3.02Zm5.23-6.53h5.6l-3.18-9.36h.8l-3.22 9.36Zm17.51 6.82c-1.33 0-2.5-.33-3.51-.99a5.2 5.2 0 0 1-2.09-2.64l2.09-.98c.35.74.83 1.32 1.44 1.75.63.43 1.31.65 2.07.65a2.6 2.6 0 0 0 1.56-.43c.4-.29.6-.68.6-1.18 0-.32-.09-.57-.27-.77-.17-.2-.4-.37-.67-.5a3.96 3.96 0 0 0-.79-.29l-2.04-.57a5.12 5.12 0 0 1-2.52-1.44 3.45 3.45 0 0 1-.82-2.28c0-.79.2-1.47.6-2.04.4-.6.95-1.05 1.66-1.37.7-.32 1.49-.48 2.37-.48a5.7 5.7 0 0 1 3.17.89 4.62 4.62 0 0 1 1.97 2.42l-2.09.98a3.1 3.1 0 0 0-1.22-1.48 3.23 3.23 0 0 0-1.85-.56c-.59 0-1.06.15-1.42.44a1.3 1.3 0 0 0-.52 1.08c0 .3.08.56.24.76.16.2.36.36.62.48s.52.21.79.29l2.11.63c1.08.3 1.9.78 2.48 1.44.57.64.86 1.4.86 2.3 0 .77-.21 1.45-.62 2.04a4.1 4.1 0 0 1-1.68 1.37c-.72.32-1.56.48-2.52.48Zm12.28 0c-1.33 0-2.5-.33-3.51-.99a5.17 5.17 0 0 1-2.08-2.64l2.08-.98c.36.74.84 1.32 1.44 1.75a3.6 3.6 0 0 0 2.07.65 2.6 2.6 0 0 0 1.56-.43c.4-.29.6-.68.6-1.18 0-.32-.09-.57-.27-.77-.17-.2-.4-.37-.67-.5a3.75 3.75 0 0 0-.79-.29l-2.04-.57a5.12 5.12 0 0 1-2.52-1.44 3.5 3.5 0 0 1-.82-2.28c0-.79.2-1.47.6-2.04.4-.6.96-1.05 1.66-1.37.7-.32 1.5-.48 2.38-.48 1.18 0 2.24.29 3.16.89a4.62 4.62 0 0 1 1.97 2.42l-2.09.98a3.1 3.1 0 0 0-1.22-1.48 3.2 3.2 0 0 0-1.85-.56c-.59 0-1.06.15-1.41.44-.36.27-.53.63-.53 1.08 0 .3.08.56.24.76.16.2.37.36.62.48.26.12.52.21.79.29l2.12.63c1.07.3 1.89.78 2.47 1.44.57.64.86 1.4.86 2.3 0 .77-.21 1.45-.62 2.04a4.1 4.1 0 0 1-1.68 1.37c-.72.32-1.56.48-2.52.48Zm12.11 0c-.97 0-1.83-.22-2.57-.65a4.65 4.65 0 0 1-1.72-1.85 6.1 6.1 0 0 1-.6-2.76v-8.01h2.71v7.77c0 .59.12 1.11.36 1.56a2.64 2.64 0 0 0 2.49 1.42c.58 0 1.08-.13 1.52-.39.43-.25.76-.61 1-1.08.26-.46.39-1 .39-1.63v-7.65h2.69v12.98h-2.57v-2.54l.29.33c-.31.8-.81 1.42-1.52 1.85-.7.43-1.52.65-2.47.65Zm9.43-.29v-12.98h2.59v2.61l-.24-.38a3.2 3.2 0 0 1 1.4-1.83 4.4 4.4 0 0 1 2.3-.57h.79v2.47h-1.13c-.89 0-1.62.28-2.18.84-.54.54-.82 1.33-.82 2.35v7.49h-2.71Zm12.58.29c-.88 0-1.65-.15-2.32-.46a3.85 3.85 0 0 1-1.54-1.29 3.5 3.5 0 0 1-.55-1.97c0-.71.15-1.34.45-1.9.32-.56.81-1.03 1.47-1.41a6.96 6.96 0 0 1 2.47-.82l4.51-.74v2.13l-3.98.7c-.72.13-1.25.36-1.59.69-.33.32-.5.74-.5 1.25 0 .5.18.91.55 1.23.39.3.87.45 1.47.45.73 0 1.37-.16 1.92-.48.56-.32.99-.74 1.29-1.27.31-.54.46-1.14.46-1.8v-3.34c0-.64-.24-1.16-.72-1.56a2.74 2.74 0 0 0-1.87-.62c-.72 0-1.36.19-1.9.58-.53.36-.92.84-1.18 1.44l-2.25-1.13a4.2 4.2 0 0 1 1.17-1.68c.55-.5 1.18-.88 1.9-1.15a6.5 6.5 0 0 1 2.33-.41c1.02 0 1.93.19 2.71.57a4.36 4.36 0 0 1 2.52 3.96v8.74h-2.59v-2.35l.55.07a5.2 5.2 0 0 1-2.78 2.26c-.6.2-1.26.31-2 .31Zm9.99-.29v-12.98h2.59v2.54l-.31-.34c.32-.81.83-1.43 1.54-1.84a4.5 4.5 0 0 1 2.45-.65c.96 0 1.8.21 2.54.62a4.5 4.5 0 0 1 1.73 1.73c.41.74.62 1.58.62 2.54v8.38h-2.69v-7.66c0-.65-.12-1.2-.36-1.65a2.4 2.4 0 0 0-1.03-1.06 2.92 2.92 0 0 0-1.49-.38c-.56 0-1.06.13-1.51.38-.43.24-.77.59-1.01 1.06a3.53 3.53 0 0 0-.36 1.65v7.66H1065Zm20.23.29c-1.29 0-2.45-.3-3.45-.89a6.74 6.74 0 0 1-3.24-5.93c0-1.28.28-2.43.86-3.45a6.6 6.6 0 0 1 5.83-3.29c.88 0 1.71.16 2.47.48a6 6 0 0 1 2 1.27c.57.54 1 1.18 1.27 1.9l-2.38 1.1a3.41 3.41 0 0 0-1.32-1.61 3.49 3.49 0 0 0-2.04-.62 3.68 3.68 0 0 0-3.36 2.06c-.33.64-.5 1.37-.5 2.19 0 .81.17 1.55.5 2.2.34.64.79 1.15 1.37 1.52.59.36 1.26.55 1.99.55.79 0 1.47-.2 2.04-.6a3.8 3.8 0 0 0 1.32-1.66l2.38 1.13a5.05 5.05 0 0 1-1.25 1.87 6.44 6.44 0 0 1-4.49 1.78Zm14.49 0c-1.3 0-2.45-.3-3.46-.89a6.45 6.45 0 0 1-2.33-2.45 7.22 7.22 0 0 1-.84-3.48c0-1.31.28-2.47.84-3.48a6.41 6.41 0 0 1 5.57-3.26c.98 0 1.85.17 2.62.5a5.7 5.7 0 0 1 3.14 3.39c.29.75.43 1.55.43 2.4l-.02.64c-.02.23-.05.44-.1.63h-10.34v-2.16h8.81l-1.3.98c.16-.78.1-1.48-.17-2.09a3.03 3.03 0 0 0-1.2-1.46 3.17 3.17 0 0 0-1.87-.55 3.4 3.4 0 0 0-3.22 2.09c-.3.65-.42 1.45-.36 2.4a3.8 3.8 0 0 0 1.76 3.84c.6.36 1.29.55 2.06.55a3.6 3.6 0 0 0 1.99-.53c.56-.35 1-.81 1.32-1.37l2.21 1.08a4.85 4.85 0 0 1-1.2 1.66 6.1 6.1 0 0 1-1.92 1.15c-.74.27-1.54.41-2.42.41Z"/><rect width="277" height="69" x="863" y="1410" fill="url(#f)" rx="20"/><path fill="#000" d="M932.5 1454.5v-17.88h11.64v2.52h-8.81v5.38h7.85v2.52h-7.85v7.46h-2.83Zm13.75 0v-12.98h2.71v12.98h-2.71Zm0-14.76v-3.12h2.71v3.12h-2.71Zm5.88 14.76v-12.98h2.6v2.54l-.32-.34c.32-.81.83-1.43 1.54-1.84.7-.44 1.52-.65 2.44-.65.97 0 1.81.21 2.55.62.73.42 1.31.99 1.73 1.73.41.74.62 1.58.62 2.54v8.38h-2.69v-7.66c0-.65-.12-1.2-.36-1.65a2.42 2.42 0 0 0-1.03-1.06 2.92 2.92 0 0 0-1.49-.38c-.56 0-1.06.13-1.5.38-.44.24-.78.59-1.02 1.06a3.53 3.53 0 0 0-.36 1.65v7.66h-2.7Zm17.95.29a5.5 5.5 0 0 1-2.33-.46 3.85 3.85 0 0 1-1.53-1.29 3.51 3.51 0 0 1-.56-1.97c0-.71.16-1.34.46-1.9.32-.56.8-1.03 1.47-1.41a7 7 0 0 1 2.47-.82l4.5-.74v2.13l-3.97.7c-.73.13-1.25.36-1.59.69-.34.32-.5.74-.5 1.25 0 .5.18.91.55 1.23.38.3.87.45 1.46.45.74 0 1.38-.16 1.92-.48a3.4 3.4 0 0 0 1.75-3.07v-3.34c0-.64-.23-1.16-.71-1.56a2.73 2.73 0 0 0-1.88-.62c-.72 0-1.35.19-1.9.58-.52.36-.91.84-1.17 1.44l-2.25-1.13c.24-.64.63-1.2 1.17-1.68.54-.5 1.18-.88 1.9-1.15a6.48 6.48 0 0 1 2.32-.41c1.03 0 1.93.19 2.72.57a4.36 4.36 0 0 1 2.52 3.96v8.74h-2.6v-2.35l.56.07a5.2 5.2 0 0 1-2.78 2.26c-.6.2-1.26.31-2 .31Zm9.99-.29v-18.17h2.71v18.17h-2.71Zm10.34 0v-17.88h6.5c1.2 0 2.26.22 3.17.67a4.86 4.86 0 0 1 2.14 1.92c.53.83.79 1.83.79 3a5.3 5.3 0 0 1-3.4 5.09l4.12 7.2h-3.22l-4.39-7.8 1.85 1.08h-4.73v6.72h-2.83Zm2.83-9.24h3.72c.66 0 1.23-.13 1.7-.38.49-.26.86-.61 1.11-1.06.27-.46.41-1.01.41-1.63 0-.63-.14-1.16-.4-1.61a2.55 2.55 0 0 0-1.11-1.06 3.64 3.64 0 0 0-1.7-.38h-3.73v6.12Zm17.98 9.53c-1.3 0-2.45-.3-3.46-.89a6.43 6.43 0 0 1-2.32-2.45 7.22 7.22 0 0 1-.84-3.48c0-1.31.28-2.47.84-3.48a6.31 6.31 0 0 1 5.56-3.26c.98 0 1.85.17 2.62.5a5.8 5.8 0 0 1 3.14 3.39 6.6 6.6 0 0 1 .32 3.67h-10.35v-2.16h8.81l-1.3.98a3.4 3.4 0 0 0-.16-2.09 3.14 3.14 0 0 0-1.2-1.46 3.2 3.2 0 0 0-1.88-.55 3.4 3.4 0 0 0-3.21 2.09 4.72 4.72 0 0 0-.36 2.4c-.08.88.04 1.64.36 2.3.33.66.8 1.17 1.39 1.54a4 4 0 0 0 2.06.55 3.64 3.64 0 0 0 3.32-1.9l2.2 1.08a4.6 4.6 0 0 1-1.2 1.66c-.52.48-1.16.86-1.92 1.15-.73.27-1.54.41-2.42.41Zm12.16-.29-5.09-12.98h2.95l3.91 10.58h-1.08l3.91-10.58h2.98l-5.11 12.98h-2.47Zm9.42 0v-12.98h2.71v12.98h-2.71Zm0-14.76v-3.12h2.71v3.12h-2.71Zm11.98 15.05c-1.29 0-2.45-.3-3.45-.89a6.38 6.38 0 0 1-2.33-2.45 7.22 7.22 0 0 1-.84-3.48c0-1.31.28-2.47.84-3.48a6.31 6.31 0 0 1 5.57-3.26c.97 0 1.84.17 2.61.5.77.34 1.42.8 1.95 1.39.52.58.92 1.24 1.2 2a6.81 6.81 0 0 1 .31 3.67h-10.35v-2.16h8.81l-1.29.98c.16-.78.1-1.48-.17-2.09a3.14 3.14 0 0 0-1.2-1.46 3.17 3.17 0 0 0-1.87-.55 3.4 3.4 0 0 0-3.22 2.09c-.3.65-.42 1.45-.36 2.4a3.85 3.85 0 0 0 1.75 3.84 4 4 0 0 0 2.07.55c.78 0 1.44-.18 1.99-.53.56-.35 1-.81 1.32-1.37l2.21 1.08a4.85 4.85 0 0 1-1.2 1.66 6.1 6.1 0 0 1-1.92 1.15c-.74.27-1.55.41-2.43.41Zm11.77-.29-4.47-12.98h2.88l3.41 10.34h-1.01l3.48-10.34h2.48l3.45 10.34h-1.01l3.44-10.34h2.88l-4.49 12.98h-2.45l-3.5-10.58h.88l-3.5 10.58h-2.47Z"/><path fill="#60A5FA" d="M700 1259.8a1.5 1.5 0 1 0 0 3v-3Zm163.56 2.57c.59-.59.59-1.54 0-2.13l-9.54-9.54a1.5 1.5 0 1 0-2.12 2.12l8.48 8.48-8.49 8.49a1.5 1.5 0 1 0 2.13 2.12l9.54-9.54Zm-163.56.43h162.5v-3H700v3Z"/><rect width="238.5" height="56.5" x="444.75" y="721.75" fill="#DBEAFE" rx="11.25"/><rect width="238.5" height="56.5" x="444.75" y="721.75" stroke="#4B5563" stroke-dasharray="8 8" stroke-width="1.5" rx="11.25"/><path fill="#222" d="M535.43 760.29a7.36 7.36 0 0 1-5.57-2.38 7.02 7.02 0 0 1-1.49-2.54l2.4-1.01a5.46 5.46 0 0 0 1.9 2.54c.83.6 1.79.9 2.88.9.64 0 1.2-.1 1.68-.3.48-.2.85-.5 1.1-.86.27-.37.41-.8.41-1.27 0-.66-.18-1.18-.55-1.56a3.77 3.77 0 0 0-1.63-.91l-3.36-1.06a6.28 6.28 0 0 1-3.08-1.9 4.64 4.64 0 0 1-1.05-3.02c0-1 .25-1.89.74-2.64a5.07 5.07 0 0 1 2.04-1.8 6.72 6.72 0 0 1 3-.65 7.24 7.24 0 0 1 5.19 2.11 5.9 5.9 0 0 1 1.39 2.28l-2.35 1.04a4.38 4.38 0 0 0-5.78-2.64c-.46.19-.8.48-1.06.86-.24.37-.36.8-.36 1.3 0 .57.18 1.08.55 1.53.37.45.93.79 1.68 1.01l3.12.98a6.81 6.81 0 0 1 3.21 1.88c.72.8 1.08 1.8 1.08 3 0 .99-.26 1.87-.79 2.64a5.32 5.32 0 0 1-2.13 1.82c-.92.43-1.97.65-3.17.65Zm14.63-.15a4.23 4.23 0 0 1-3.17-1.15 4.44 4.44 0 0 1-1.13-3.24v-6.29h-2.28v-2.44h.36c.6 0 1.08-.18 1.41-.53a2 2 0 0 0 .5-1.44v-1.01h2.72v2.98h2.95v2.44h-2.95v6.17c0 .45.07.83.22 1.15.14.3.37.55.7.72.31.16.73.24 1.24.24.13 0 .27 0 .43-.02l.46-.05V760l-.75.1c-.27.03-.5.04-.72.04Zm9.97.15a6.7 6.7 0 0 1-3.46-.89c-.99-.6-1.77-1.42-2.33-2.45a7.22 7.22 0 0 1-.84-3.48c0-1.31.28-2.47.84-3.48.58-1 1.35-1.8 2.3-2.37a6.1 6.1 0 0 1 3.27-.9c.98 0 1.85.18 2.62.51a5.87 5.87 0 0 1 3.14 3.38 6.65 6.65 0 0 1 .31 3.68h-10.34v-2.16h8.8l-1.29.98a3.36 3.36 0 0 0-1.37-3.55 3.2 3.2 0 0 0-1.87-.55 3.42 3.42 0 0 0-3.21 2.09c-.3.65-.43 1.45-.36 2.4a3.81 3.81 0 0 0 1.75 3.84c.6.36 1.3.55 2.06.55.79 0 1.45-.18 2-.53.55-.35 1-.8 1.31-1.37l2.21 1.08c-.25.61-.65 1.16-1.2 1.66-.53.48-1.17.86-1.92 1.15-.73.27-1.54.4-2.42.4Zm8.62 4.51v-17.78h2.6v2.68l-.32-.62a5 5 0 0 1 1.92-1.73c.8-.41 1.71-.62 2.74-.62a6.26 6.26 0 0 1 5.64 3.31c.57 1.02.86 2.18.86 3.46a6.93 6.93 0 0 1-3.17 5.9 6.3 6.3 0 0 1-3.33.89c-1.01 0-1.93-.21-2.76-.63a4.48 4.48 0 0 1-1.9-1.8l.43-.5v7.44h-2.71Zm6.67-7.03a3.78 3.78 0 0 0 3.43-2.07c.36-.65.53-1.39.53-2.2 0-.82-.17-1.55-.53-2.19a3.78 3.78 0 0 0-3.43-2.06 3.86 3.86 0 0 0-3.45 2.06c-.34.64-.5 1.37-.5 2.19 0 .81.16 1.55.5 2.2.35.64.82 1.15 1.41 1.52.61.36 1.29.55 2.04.55Zm13.22 2.23v-2.04l4.9-5.23a97.56 97.56 0 0 0 2.25-2.47 8.4 8.4 0 0 0 1.2-1.68c.26-.48.39-.99.39-1.52 0-.86-.27-1.52-.8-1.99a2.92 2.92 0 0 0-2.04-.72c-.86 0-1.6.25-2.23.75a3.74 3.74 0 0 0-1.3 2.1l-2.49-.71c.2-.95.58-1.76 1.15-2.45a5.87 5.87 0 0 1 2.11-1.63 6.55 6.55 0 0 1 2.74-.58c1.14 0 2.13.22 2.98.65a4.66 4.66 0 0 1 2.68 4.37c0 .65-.12 1.3-.38 1.92-.24.6-.62 1.25-1.13 1.94-.51.67-1.17 1.43-1.97 2.28l-4.32 4.61h8.14v2.4h-11.88Z"/><path fill="#60A5FA" d="M443.69 751.94a1.5 1.5 0 1 0 0-3v3Zm-167.75-187a1.5 1.5 0 0 0 0 2.12l9.55 9.55a1.5 1.5 0 1 0 2.12-2.12l-8.49-8.49 8.49-8.49a1.5 1.5 0 1 0-2.12-2.12l-9.55 9.55Zm167.75 184h-12v3h12v-3Zm-34.5-22.5V590h-3v136.44h3Zm-25.5-161.94H277v3h106.69v-3Zm25.5 25.5a25.5 25.5 0 0 0-25.5-25.5v3a22.5 22.5 0 0 1 22.5 22.5h3Zm22.5 158.94a22.5 22.5 0 0 1-22.5-22.5h-3a25.5 25.5 0 0 0 25.5 25.5v-3Z"/><path fill="#60A5FA" d="M443.69 749.5a1.5 1.5 0 0 1 0 3v-3Zm-167.75 187a1.5 1.5 0 0 1 0-2.12l9.55-9.55a1.5 1.5 0 1 1 2.12 2.12l-8.49 8.49 8.49 8.48a1.5 1.5 0 1 1-2.13 2.13l-9.54-9.55Zm167.75-184h-12v-3h12v3Zm-34.5 22.5v136.44h-3V775h3Zm-25.5 161.94h-106.7v-3h106.7v3Zm25.5-25.5a25.5 25.5 0 0 1-25.5 25.5v-3a22.5 22.5 0 0 0 22.5-22.5h3Zm22.5-158.94a22.5 22.5 0 0 0-22.5 22.5h-3a25.5 25.5 0 0 1 25.5-25.5v3Z"/><circle cx="444" cy="750" r="6.5" fill="#EFF6FF" stroke="#60A5FA" stroke-width="3"/><path fill="#60A5FA" d="M432 750.63a1.5 1.5 0 0 0 0-3v3Zm-156-2.56a1.5 1.5 0 0 0 0 2.12l9.55 9.54a1.5 1.5 0 0 0 2.12-2.12l-8.49-8.48 8.49-8.49a1.5 1.5 0 0 0-2.12-2.12l-9.55 9.55Zm156-.44H277.06v3H432v-3Z"/><rect width="275" height="83" y="523" fill="url(#g)" rx="20"/><path fill="#000" d="M96.17 558.79a8.77 8.77 0 0 1-6.34-2.62 9.2 9.2 0 0 1-1.84-2.93 9.87 9.87 0 0 1-.67-3.7c0-1.32.21-2.54.64-3.66a8.67 8.67 0 0 1 8.21-5.55c1.27 0 2.4.22 3.39.65 1 .43 1.85 1 2.54 1.7a6.3 6.3 0 0 1 1.49 2.26l-2.55 1.2a5.08 5.08 0 0 0-4.87-3.24 5.78 5.78 0 0 0-5.28 3.17c-.5.99-.74 2.15-.74 3.48s.25 2.5.74 3.5c.51 1 1.23 1.77 2.14 2.33.91.54 1.96.82 3.14.82a5.08 5.08 0 0 0 4.87-3.22l2.55 1.2c-.3.8-.8 1.55-1.49 2.26a7.8 7.8 0 0 1-2.54 1.7 8.4 8.4 0 0 1-3.39.65Zm16.1 0a6.71 6.71 0 0 1-6.8-6.8 6.6 6.6 0 0 1 3.36-5.87 6.73 6.73 0 0 1 3.44-.9 6.65 6.65 0 0 1 6.76 6.78 6.73 6.73 0 0 1-3.36 5.92 6.83 6.83 0 0 1-3.4.87Zm0-2.52a3.78 3.78 0 0 0 3.43-2.07c.35-.65.53-1.39.53-2.2 0-.82-.18-1.55-.53-2.19a3.78 3.78 0 0 0-3.43-2.06 3.86 3.86 0 0 0-3.46 2.06c-.34.64-.5 1.37-.5 2.19 0 .81.16 1.55.5 2.2a3.86 3.86 0 0 0 3.46 2.06Zm9.41 2.23v-12.98h2.6v2.54l-.32-.34a3.6 3.6 0 0 1 1.54-1.84c.7-.44 1.52-.65 2.45-.65.96 0 1.8.2 2.54.62s1.31 1 1.73 1.73c.41.74.62 1.58.62 2.54v8.38h-2.69v-7.66c0-.65-.12-1.2-.36-1.65a2.44 2.44 0 0 0-1.03-1.06 2.86 2.86 0 0 0-1.49-.38 3 3 0 0 0-1.5.38c-.44.24-.78.6-1.02 1.06a3.56 3.56 0 0 0-.36 1.65v7.66h-2.7Zm20.23.29a6.7 6.7 0 0 1-3.45-.89c-1-.6-1.79-1.42-2.38-2.45a6.97 6.97 0 0 1-.86-3.48c0-1.28.28-2.43.86-3.45a6.23 6.23 0 0 1 2.38-2.4c1-.6 2.16-.9 3.45-.9a6.36 6.36 0 0 1 4.47 1.76c.57.54 1 1.18 1.27 1.9l-2.38 1.1a3.42 3.42 0 0 0-1.32-1.6 3.46 3.46 0 0 0-2.04-.63 3.7 3.7 0 0 0-3.36 2.06c-.33.64-.5 1.37-.5 2.19 0 .81.17 1.55.5 2.2a3.7 3.7 0 0 0 3.36 2.06 3.49 3.49 0 0 0 3.36-2.25l2.38 1.13a5.06 5.06 0 0 1-1.25 1.87 6.3 6.3 0 0 1-4.49 1.78Zm14.49 0a6.7 6.7 0 0 1-3.46-.89c-1-.6-1.77-1.42-2.33-2.45a7.22 7.22 0 0 1-.84-3.48c0-1.31.28-2.47.84-3.48.58-1 1.34-1.8 2.3-2.37a6.1 6.1 0 0 1 3.27-.9c.97 0 1.85.18 2.61.51a5.87 5.87 0 0 1 3.14 3.38 6.65 6.65 0 0 1 .32 3.68h-10.34v-2.16h8.8l-1.3.98a3.36 3.36 0 0 0-1.36-3.55 3.2 3.2 0 0 0-1.87-.55 3.42 3.42 0 0 0-3.22 2.09c-.3.65-.42 1.45-.36 2.4a3.81 3.81 0 0 0 1.75 3.84c.61.36 1.3.55 2.07.55.78 0 1.45-.18 2-.53.55-.35 1-.8 1.31-1.37l2.2 1.08c-.25.61-.65 1.16-1.2 1.66-.52.48-1.16.86-1.91 1.15-.74.27-1.54.4-2.42.4Zm8.62 4.51v-17.78h2.59v2.68l-.31-.62a5 5 0 0 1 1.92-1.73c.8-.41 1.71-.62 2.73-.62a6.26 6.26 0 0 1 5.64 3.31c.58 1.02.87 2.18.87 3.46a6.93 6.93 0 0 1-3.17 5.9 6.3 6.3 0 0 1-3.34.89c-1 0-1.92-.21-2.76-.63a4.48 4.48 0 0 1-1.9-1.8l.44-.5v7.44h-2.71Zm6.67-7.03a3.78 3.78 0 0 0 3.43-2.07c.35-.65.53-1.39.53-2.2 0-.82-.18-1.55-.53-2.19a3.78 3.78 0 0 0-3.43-2.06 3.86 3.86 0 0 0-3.46 2.06c-.33.64-.5 1.37-.5 2.19 0 .81.17 1.55.5 2.2a3.86 3.86 0 0 0 3.46 2.06Zm14.79 2.37a4.23 4.23 0 0 1-3.17-1.15 4.44 4.44 0 0 1-1.13-3.24v-6.29h-2.28v-2.44h.36c.6 0 1.08-.18 1.42-.53a2 2 0 0 0 .5-1.44v-1.01h2.71v2.98h2.96v2.44h-2.96v6.17c0 .45.08.83.22 1.15.14.3.38.55.7.72.31.16.73.24 1.24.24.13 0 .27 0 .44-.02l.45-.05v2.33l-.74.1c-.27.03-.51.04-.72.04ZM60.27 590.5v-17.88h5.86c1.85 0 3.46.38 4.82 1.13a7.79 7.79 0 0 1 3.2 3.12 9.42 9.42 0 0 1 1.12 4.68c0 1.76-.38 3.32-1.13 4.68a7.94 7.94 0 0 1-3.19 3.14 9.82 9.82 0 0 1-4.82 1.13h-5.86Zm2.83-2.52h3.07c1.27 0 2.36-.26 3.3-.8a5.44 5.44 0 0 0 2.18-2.22c.5-.96.76-2.1.76-3.41s-.26-2.44-.79-3.39a5.48 5.48 0 0 0-2.16-2.23 6.54 6.54 0 0 0-3.29-.79H63.1v12.84Zm20.8 2.8a6.7 6.7 0 0 1-3.47-.88c-.99-.6-1.76-1.42-2.32-2.45a7.22 7.22 0 0 1-.84-3.48c0-1.31.28-2.47.84-3.48.57-1 1.34-1.8 2.3-2.37a6.1 6.1 0 0 1 3.26-.9c.98 0 1.85.18 2.62.51a5.87 5.87 0 0 1 3.14 3.38 6.65 6.65 0 0 1 .32 3.68H79.4v-2.16h8.81l-1.3.98a3.36 3.36 0 0 0-1.36-3.55 3.2 3.2 0 0 0-1.88-.55 3.42 3.42 0 0 0-3.21 2.09c-.3.65-.43 1.45-.36 2.4a3.81 3.81 0 0 0 1.75 3.84c.6.36 1.3.55 2.06.55.79 0 1.45-.18 2-.53.56-.35 1-.8 1.32-1.37l2.2 1.08c-.25.61-.65 1.16-1.2 1.66-.52.48-1.16.86-1.92 1.15-.73.27-1.54.4-2.42.4Zm12.15-.28-5.1-12.98h2.96l3.91 10.58h-1.08l3.92-10.58h2.97l-5.11 12.98h-2.47Zm15.29.29a6.7 6.7 0 0 1-3.46-.89c-1-.6-1.77-1.42-2.33-2.45a7.22 7.22 0 0 1-.84-3.48c0-1.31.28-2.47.84-3.48.58-1 1.35-1.8 2.3-2.37a6.1 6.1 0 0 1 3.27-.9c.98 0 1.85.18 2.62.51a5.87 5.87 0 0 1 3.14 3.38 6.65 6.65 0 0 1 .31 3.68h-10.34v-2.16h8.8l-1.29.98a3.36 3.36 0 0 0-1.37-3.55 3.2 3.2 0 0 0-1.87-.55 3.42 3.42 0 0 0-3.22 2.09c-.3.65-.42 1.45-.36 2.4a3.81 3.81 0 0 0 1.75 3.84c.61.36 1.3.55 2.07.55.78 0 1.45-.18 2-.53.55-.35 1-.8 1.31-1.37l2.21 1.08c-.26.61-.66 1.16-1.2 1.66-.53.48-1.17.86-1.92 1.15-.74.27-1.54.4-2.42.4Zm8.62-.29v-18.17h2.71v18.17h-2.71Zm12.15.29a6.71 6.71 0 0 1-6.8-6.8 6.6 6.6 0 0 1 3.36-5.87 6.73 6.73 0 0 1 3.44-.9 6.65 6.65 0 0 1 6.76 6.78 6.73 6.73 0 0 1-3.36 5.92 6.83 6.83 0 0 1-3.4.87Zm0-2.52a3.78 3.78 0 0 0 3.43-2.07c.35-.65.53-1.39.53-2.2 0-.82-.18-1.55-.53-2.19a3.78 3.78 0 0 0-3.43-2.06 3.86 3.86 0 0 0-3.46 2.06c-.34.64-.5 1.37-.5 2.19 0 .81.16 1.55.5 2.2a3.86 3.86 0 0 0 3.46 2.06Zm9.41 7.03v-17.78h2.6v2.68l-.32-.62a5 5 0 0 1 1.92-1.73c.8-.41 1.71-.62 2.74-.62a6.26 6.26 0 0 1 5.64 3.31c.57 1.02.86 2.18.86 3.46a6.93 6.93 0 0 1-3.17 5.9 6.3 6.3 0 0 1-3.33.89c-1.01 0-1.93-.21-2.76-.63a4.48 4.48 0 0 1-1.9-1.8l.43-.5v7.44h-2.7Zm6.67-7.03a3.78 3.78 0 0 0 3.44-2.07c.35-.65.52-1.39.52-2.2 0-.82-.17-1.55-.52-2.19a3.78 3.78 0 0 0-3.43-2.06 3.86 3.86 0 0 0-3.46 2.06c-.34.64-.5 1.37-.5 2.19 0 .81.16 1.55.5 2.2.35.64.82 1.15 1.41 1.52.61.36 1.3.55 2.04.55Zm9.41 2.23v-12.98h2.6v2.8l-.34-.43c.27-.88.76-1.54 1.48-1.99a4.58 4.58 0 0 1 2.48-.67 4.7 4.7 0 0 1 2.76.84 3.9 3.9 0 0 1 1.63 2.18l-.77.07a4.55 4.55 0 0 1 1.75-2.32c.8-.52 1.71-.77 2.74-.77a4.76 4.76 0 0 1 4.82 4.87v8.4h-2.71v-7.66c0-.65-.12-1.2-.36-1.65a2.57 2.57 0 0 0-2.38-1.44 2.7 2.7 0 0 0-2.42 1.44 3.56 3.56 0 0 0-.36 1.65v7.66h-2.69v-7.66c0-.65-.12-1.2-.36-1.65a2.61 2.61 0 0 0-2.4-1.44 2.7 2.7 0 0 0-2.42 1.44 3.78 3.78 0 0 0-.34 1.65v7.66h-2.71Zm28.15.29a6.7 6.7 0 0 1-3.46-.89c-.99-.6-1.76-1.42-2.32-2.45a7.22 7.22 0 0 1-.84-3.48c0-1.31.28-2.47.84-3.48.57-1 1.34-1.8 2.3-2.37a6.1 6.1 0 0 1 3.26-.9c.98 0 1.85.18 2.62.51a5.87 5.87 0 0 1 3.14 3.38 6.65 6.65 0 0 1 .32 3.68h-10.35v-2.16h8.81l-1.3.98a3.36 3.36 0 0 0-1.36-3.55 3.2 3.2 0 0 0-1.88-.55 3.42 3.42 0 0 0-3.21 2.09c-.3.65-.43 1.45-.36 2.4a3.81 3.81 0 0 0 1.75 3.84c.6.36 1.3.55 2.06.55.79 0 1.45-.18 2-.53.56-.35 1-.8 1.32-1.37l2.2 1.08c-.25.61-.65 1.16-1.2 1.66-.52.48-1.16.86-1.92 1.15-.73.27-1.54.4-2.42.4Zm8.62-.29v-12.98h2.6v2.54l-.32-.34a3.6 3.6 0 0 1 1.54-1.84c.7-.44 1.52-.65 2.45-.65.96 0 1.8.2 2.54.62s1.31 1 1.73 1.73c.41.74.62 1.58.62 2.54v8.38h-2.69v-7.66c0-.65-.12-1.2-.35-1.65a2.44 2.44 0 0 0-1.04-1.06 2.86 2.86 0 0 0-1.48-.38 3 3 0 0 0-1.52.38c-.43.24-.76.6-1 1.06a3.56 3.56 0 0 0-.36 1.65v7.66h-2.72Zm19.68.14a4.23 4.23 0 0 1-3.17-1.15 4.44 4.44 0 0 1-1.12-3.24v-6.29h-2.28v-2.44h.36c.6 0 1.08-.18 1.41-.53a2 2 0 0 0 .5-1.44v-1.01h2.72v2.98h2.95v2.44h-2.95v6.17c0 .45.07.83.21 1.15.15.3.38.55.7.72.32.16.74.24 1.25.24.13 0 .27 0 .43-.02l.46-.05v2.33l-.75.1c-.27.03-.51.04-.72.04Z"/><rect width="275" height="83" y="708" fill="url(#h)" rx="20"/><path fill="#000" d="M69.3 743.5v-17.88h11.64v2.52h-8.8v5.38h7.84v2.52h-7.84v7.46H69.3Zm19.5.29a6.7 6.7 0 0 1-3.45-.89c-1-.6-1.77-1.42-2.33-2.45a7.22 7.22 0 0 1-.84-3.48c0-1.31.28-2.47.84-3.48.57-1 1.34-1.8 2.3-2.37a6.1 6.1 0 0 1 3.27-.9c.97 0 1.84.18 2.61.51a5.87 5.87 0 0 1 3.14 3.38 6.65 6.65 0 0 1 .32 3.68H84.3v-2.16h8.81l-1.3.98a3.36 3.36 0 0 0-1.36-3.55 3.2 3.2 0 0 0-1.87-.55 3.42 3.42 0 0 0-3.22 2.09c-.3.65-.42 1.45-.36 2.4a3.81 3.81 0 0 0 1.75 3.84c.6.36 1.3.55 2.07.55.78 0 1.44-.18 1.99-.53.56-.35 1-.8 1.32-1.37l2.2 1.08c-.25.61-.65 1.16-1.2 1.66-.52.48-1.16.86-1.91 1.15-.74.27-1.55.4-2.43.4Zm14.72 0a6.7 6.7 0 0 1-3.46-.89c-.99-.6-1.76-1.42-2.32-2.45a7.22 7.22 0 0 1-.84-3.48c0-1.31.28-2.47.84-3.48.57-1 1.34-1.8 2.3-2.37a6.1 6.1 0 0 1 3.26-.9c.98 0 1.85.18 2.62.51a5.87 5.87 0 0 1 3.14 3.38 6.65 6.65 0 0 1 .32 3.68H99.03v-2.16h8.81l-1.3.98a3.36 3.36 0 0 0-1.36-3.55 3.2 3.2 0 0 0-1.88-.55 3.42 3.42 0 0 0-3.21 2.09c-.3.65-.43 1.45-.36 2.4a3.81 3.81 0 0 0 1.75 3.84c.6.36 1.3.55 2.06.55.79 0 1.45-.18 2-.53.56-.35 1-.8 1.32-1.37l2.2 1.08c-.25.61-.65 1.16-1.2 1.66-.52.48-1.16.86-1.92 1.15-.73.27-1.54.4-2.42.4Zm14.62 0c-1.25 0-2.36-.3-3.36-.89a6.7 6.7 0 0 1-3.17-5.9c0-1.28.3-2.44.87-3.46a6.26 6.26 0 0 1 5.64-3.31c1.04 0 1.96.2 2.76.62.8.42 1.43 1 1.9 1.73l-.41.62v-7.87h2.69v18.17h-2.57v-2.64l.3.5a4.45 4.45 0 0 1-1.91 1.8c-.83.42-1.74.63-2.74.63Zm.27-2.52a3.8 3.8 0 0 0 3.43-2.06c.35-.66.53-1.4.53-2.21 0-.82-.18-1.55-.53-2.19a3.8 3.8 0 0 0-3.43-2.06 3.86 3.86 0 0 0-3.46 2.06c-.34.64-.5 1.37-.5 2.19 0 .81.16 1.55.5 2.2.34.64.8 1.15 1.4 1.52.6.36 1.29.55 2.06.55Zm16.75 2.52c-1.01 0-1.93-.21-2.76-.63a4.48 4.48 0 0 1-1.9-1.8l.31-.5v2.64h-2.59v-18.17h2.71v7.87l-.43-.62a5 5 0 0 1 1.92-1.73c.8-.41 1.71-.62 2.74-.62a6.26 6.26 0 0 1 5.64 3.31c.57 1.02.86 2.18.86 3.46a6.93 6.93 0 0 1-3.17 5.9 6.3 6.3 0 0 1-3.33.89Zm-.27-2.52a3.78 3.78 0 0 0 3.44-2.07c.35-.65.52-1.39.52-2.2 0-.82-.17-1.55-.53-2.19a3.78 3.78 0 0 0-3.43-2.06 3.86 3.86 0 0 0-3.45 2.06c-.34.64-.5 1.37-.5 2.19 0 .81.16 1.55.5 2.2.35.64.82 1.15 1.41 1.52.61.36 1.3.55 2.04.55Zm13.3 2.52a5.6 5.6 0 0 1-2.33-.46 3.84 3.84 0 0 1-1.54-1.3 3.5 3.5 0 0 1-.55-1.96c0-.7.15-1.34.46-1.9a3.9 3.9 0 0 1 1.46-1.41 7.13 7.13 0 0 1 2.47-.82l4.52-.74v2.13l-3.99.7c-.72.13-1.25.36-1.58.7-.34.31-.5.73-.5 1.24 0 .5.18.9.54 1.23.39.3.88.45 1.47.45.73 0 1.38-.16 1.92-.48a3.41 3.41 0 0 0 1.75-3.07v-3.34c0-.64-.24-1.16-.72-1.56a2.7 2.7 0 0 0-1.87-.62 3.34 3.34 0 0 0-3.07 2.02l-2.26-1.13c.24-.64.63-1.2 1.18-1.68.54-.5 1.17-.88 1.9-1.15.73-.28 1.5-.41 2.32-.41 1.02 0 1.93.19 2.71.57a4.33 4.33 0 0 1 2.52 3.96v8.74h-2.59v-2.35l.55.07a5.07 5.07 0 0 1-2.78 2.26c-.6.2-1.26.3-2 .3Zm16.15 0a6.7 6.7 0 0 1-3.45-.89c-1-.6-1.79-1.42-2.38-2.45a6.97 6.97 0 0 1-.86-3.48c0-1.28.28-2.43.86-3.45a6.23 6.23 0 0 1 2.38-2.4c1-.6 2.16-.9 3.45-.9a6.36 6.36 0 0 1 4.47 1.76c.57.54 1 1.18 1.27 1.9l-2.38 1.1a3.42 3.42 0 0 0-1.32-1.6 3.46 3.46 0 0 0-2.04-.63 3.7 3.7 0 0 0-3.36 2.06c-.33.64-.5 1.37-.5 2.19 0 .81.17 1.55.5 2.2a3.7 3.7 0 0 0 3.36 2.06 3.49 3.49 0 0 0 3.36-2.25l2.38 1.13a5.06 5.06 0 0 1-1.25 1.87 6.3 6.3 0 0 1-4.49 1.78Zm8.39-.29v-18.17h2.71v12.17l-1.06-.26 6.5-6.72h3.4l-4.9 5.2 5.1 7.78h-3.11l-4.56-6.89 1.6-.21-3.83 4.08.86-1.8v4.82h-2.71Zm23.26.29c-1.06 0-1.99-.2-2.78-.58-.8-.4-1.44-.95-1.9-1.65a4.63 4.63 0 0 1-.67-2.5c0-.8.14-1.5.43-2.09.29-.6.65-1.12 1.08-1.53.43-.44.86-.8 1.3-1.08.43-.3.79-.52 1.08-.68l1.46-.81c.48-.27.94-.56 1.37-.87.43-.3.78-.64 1.05-1.03.28-.38.41-.81.41-1.3 0-.57-.2-1.05-.57-1.43-.39-.4-.87-.6-1.44-.6-.58 0-1.06.19-1.44.57-.39.39-.58.88-.58 1.49 0 .42.1.82.29 1.22.2.4.44.78.72 1.13.28.34.56.66.84.96l9.6 10.49h-3.39l-8.23-8.86c-.38-.41-.77-.85-1.15-1.32a7.8 7.8 0 0 1-.94-1.58 4.95 4.95 0 0 1-.36-1.92c0-.91.21-1.7.63-2.38.43-.67.99-1.19 1.68-1.56a4.9 4.9 0 0 1 4.6.03 4.19 4.19 0 0 1 2.26 3.77c0 .86-.2 1.6-.6 2.23-.4.62-.89 1.15-1.46 1.58-.56.43-1.1.8-1.59 1.1l-1.46.87c-.38.22-.8.5-1.22.84-.42.32-.77.7-1.06 1.15-.29.43-.43.95-.43 1.56 0 .75.23 1.34.7 1.75.47.42 1.1.63 1.87.63a3.4 3.4 0 0 0 2.32-.87c.3-.25.57-.53.8-.84l.64-.88 2.79-4.08h2.9l-3.22 4.99c-.25.38-.56.81-.9 1.3-.36.46-.78.9-1.28 1.34a6.4 6.4 0 0 1-4.15 1.44ZM72.5 775.5v-17.88H79c1.2 0 2.26.22 3.18.67a4.88 4.88 0 0 1 2.13 1.92c.53.83.8 1.83.8 3 0 1.23-.32 2.29-.94 3.17a5.2 5.2 0 0 1-2.47 1.92l4.12 7.2h-3.21l-4.4-7.8 1.85 1.08h-4.72v6.72H72.5Zm2.84-9.24h3.72c.65 0 1.22-.13 1.7-.38.48-.26.85-.61 1.1-1.06.28-.46.41-1 .41-1.63 0-.63-.13-1.16-.4-1.61a2.52 2.52 0 0 0-1.11-1.06 3.57 3.57 0 0 0-1.7-.38h-3.72v6.12Zm17.97 9.53a6.7 6.7 0 0 1-3.45-.89c-1-.6-1.77-1.42-2.33-2.45a7.22 7.22 0 0 1-.84-3.48c0-1.31.28-2.47.84-3.48.57-1 1.34-1.8 2.3-2.37a6.1 6.1 0 0 1 3.27-.9c.97 0 1.84.18 2.61.51a5.87 5.87 0 0 1 3.14 3.38 6.65 6.65 0 0 1 .32 3.68H88.82v-2.16h8.81l-1.3.98a3.36 3.36 0 0 0-1.36-3.55 3.2 3.2 0 0 0-1.87-.55 3.42 3.42 0 0 0-3.22 2.09c-.3.65-.42 1.45-.36 2.4a3.81 3.81 0 0 0 1.75 3.84c.61.36 1.3.55 2.07.55.78 0 1.44-.18 1.99-.53.56-.35 1-.8 1.32-1.37l2.2 1.08c-.25.61-.65 1.16-1.2 1.66-.52.48-1.16.86-1.91 1.15-.74.27-1.55.4-2.43.4Zm10.09-.29v-10.54H101v-2.44h2.4v-.68c0-.97.2-1.79.6-2.44.4-.68.95-1.19 1.66-1.54a5.56 5.56 0 0 1 3.62-.4v2.34a1.78 1.78 0 0 0-.43-.04 4.06 4.06 0 0 0-.39-.03c-.72 0-1.3.17-1.72.5-.44.33-.65.86-.65 1.61v.68h6.21v2.44h-6.21v10.54h-2.69Zm7.63 0v-12.98h2.69v12.98h-2.69Zm5.55 0v-12.98h2.6v2.54l-.32-.34a3.6 3.6 0 0 1 1.54-1.84c.7-.44 1.52-.65 2.45-.65.96 0 1.8.2 2.54.62s1.31 1 1.73 1.73c.42.74.62 1.58.62 2.54v8.38h-2.68v-7.66c0-.65-.12-1.2-.36-1.65a2.44 2.44 0 0 0-1.04-1.06 2.86 2.86 0 0 0-1.48-.38 3 3 0 0 0-1.52.38c-.43.24-.76.6-1 1.06a3.56 3.56 0 0 0-.36 1.65v7.66h-2.72Zm20.16.29a6.7 6.7 0 0 1-3.45-.89c-1-.6-1.77-1.42-2.33-2.45a7.22 7.22 0 0 1-.84-3.48c0-1.31.28-2.47.84-3.48.57-1 1.34-1.8 2.3-2.37a6.1 6.1 0 0 1 3.27-.9c.97 0 1.84.18 2.61.51a5.85 5.85 0 0 1 3.14 3.38 6.63 6.63 0 0 1 .32 3.68h-10.34v-2.16h8.8l-1.3.98a3.36 3.36 0 0 0-1.36-3.55 3.2 3.2 0 0 0-1.87-.55 3.42 3.42 0 0 0-3.22 2.09c-.3.65-.42 1.45-.36 2.4a3.81 3.81 0 0 0 1.75 3.84c.61.36 1.3.55 2.07.55.78 0 1.44-.18 1.99-.53.56-.35 1-.8 1.32-1.37l2.2 1.08a4.7 4.7 0 0 1-1.2 1.66c-.52.48-1.16.86-1.91 1.15-.74.27-1.55.4-2.43.4Zm8.63-.29v-12.98h2.59v2.8l-.34-.43c.27-.88.77-1.54 1.49-1.99a4.58 4.58 0 0 1 2.47-.67 4.7 4.7 0 0 1 2.76.84 3.9 3.9 0 0 1 1.63 2.18l-.76.07a4.55 4.55 0 0 1 1.75-2.32c.8-.52 1.7-.77 2.73-.77a4.76 4.76 0 0 1 4.83 4.87v8.4h-2.72v-7.66c0-.65-.12-1.2-.36-1.65a2.57 2.57 0 0 0-2.38-1.44 2.7 2.7 0 0 0-2.41 1.44 3.56 3.56 0 0 0-.37 1.65v7.66h-2.68v-7.66c0-.65-.12-1.2-.36-1.65a2.61 2.61 0 0 0-2.4-1.44 2.7 2.7 0 0 0-2.43 1.44 3.78 3.78 0 0 0-.33 1.65v7.66h-2.72Zm28.15.29a6.7 6.7 0 0 1-3.46-.89c-1-.6-1.77-1.42-2.33-2.45a7.22 7.22 0 0 1-.84-3.48c0-1.31.28-2.47.84-3.48.58-1 1.35-1.8 2.3-2.37a6.1 6.1 0 0 1 3.27-.9c.98 0 1.85.18 2.62.51a5.87 5.87 0 0 1 3.14 3.38 6.65 6.65 0 0 1 .31 3.68h-10.34v-2.16h8.8l-1.29.98a3.36 3.36 0 0 0-1.37-3.55 3.2 3.2 0 0 0-1.87-.55 3.42 3.42 0 0 0-3.22 2.09c-.3.65-.42 1.45-.36 2.4a3.81 3.81 0 0 0 1.75 3.84c.61.36 1.3.55 2.07.55.78 0 1.45-.18 2-.53.55-.35 1-.8 1.31-1.37l2.21 1.08c-.26.61-.66 1.16-1.2 1.66-.53.48-1.17.86-1.92 1.15-.74.27-1.54.4-2.42.4Zm8.62-.29v-12.98h2.6v2.54l-.32-.34a3.6 3.6 0 0 1 1.54-1.84c.7-.44 1.51-.65 2.44-.65.96 0 1.81.2 2.55.62.73.42 1.3 1 1.73 1.73.41.74.62 1.58.62 2.54v8.38h-2.69v-7.66c0-.65-.12-1.2-.36-1.65a2.44 2.44 0 0 0-1.03-1.06 2.86 2.86 0 0 0-1.49-.38 3 3 0 0 0-1.51.38c-.43.24-.77.6-1 1.06a3.56 3.56 0 0 0-.37 1.65v7.66h-2.71Zm19.68.14a4.23 4.23 0 0 1-3.17-1.15 4.44 4.44 0 0 1-1.13-3.24v-6.29h-2.28v-2.44h.36c.6 0 1.08-.18 1.42-.53a2 2 0 0 0 .5-1.44v-1.01h2.71v2.98h2.96v2.44h-2.96v6.17c0 .45.08.83.22 1.15.14.3.38.55.7.72.31.16.73.24 1.24.24.13 0 .28 0 .44-.02l.45-.05v2.33l-.74.1c-.28.03-.51.04-.72.04Z"/><rect width="275" height="69" y="900" fill="url(#i)" rx="20"/><path fill="#000" d="M39.28 944.5v-17.88h5.86c1.85 0 3.46.38 4.82 1.13a7.79 7.79 0 0 1 3.2 3.12 9.42 9.42 0 0 1 1.12 4.68c0 1.76-.37 3.32-1.13 4.68a7.94 7.94 0 0 1-3.19 3.14 9.82 9.82 0 0 1-4.82 1.13h-5.86Zm2.83-2.52h3.08c1.26 0 2.36-.26 3.28-.8a5.44 5.44 0 0 0 2.19-2.22c.51-.96.77-2.1.77-3.41s-.27-2.44-.8-3.39a5.48 5.48 0 0 0-2.16-2.23 6.54 6.54 0 0 0-3.28-.79H42.1v12.84Zm20.8 2.8a6.7 6.7 0 0 1-3.46-.88c-1-.6-1.77-1.42-2.33-2.45a7.22 7.22 0 0 1-.84-3.48c0-1.31.28-2.47.84-3.48.57-1 1.34-1.8 2.3-2.37a6.1 6.1 0 0 1 3.27-.9c.97 0 1.84.18 2.61.51a5.87 5.87 0 0 1 3.14 3.38 6.65 6.65 0 0 1 .32 3.68H58.4v-2.16h8.81l-1.3.98a3.36 3.36 0 0 0-1.36-3.55 3.2 3.2 0 0 0-1.87-.55 3.42 3.42 0 0 0-3.22 2.09c-.3.65-.42 1.45-.36 2.4a3.81 3.81 0 0 0 1.75 3.84c.61.36 1.3.55 2.07.55.78 0 1.44-.18 1.99-.53.56-.35 1-.8 1.32-1.37l2.2 1.08c-.25.61-.65 1.16-1.2 1.66-.52.48-1.16.86-1.91 1.15-.74.27-1.55.4-2.43.4Zm13.42 0c-1.33 0-2.5-.32-3.5-.98a5.23 5.23 0 0 1-2.1-2.64l2.1-.98c.34.74.82 1.32 1.43 1.75.63.43 1.31.65 2.07.65a2.6 2.6 0 0 0 1.56-.43c.4-.29.6-.68.6-1.18 0-.32-.1-.57-.27-.77-.17-.2-.4-.37-.67-.5a3.62 3.62 0 0 0-.8-.29l-2.03-.57a5.12 5.12 0 0 1-2.52-1.44 3.47 3.47 0 0 1-.82-2.28c0-.79.2-1.47.6-2.04.4-.6.95-1.05 1.66-1.37.7-.32 1.5-.48 2.37-.48 1.19 0 2.24.3 3.17.89a4.68 4.68 0 0 1 1.97 2.42l-2.09.98a3.19 3.19 0 0 0-1.22-1.48 3.22 3.22 0 0 0-1.85-.56c-.6 0-1.06.15-1.42.44a1.3 1.3 0 0 0-.52 1.08c0 .3.08.56.24.76.16.2.36.36.62.48s.52.21.8.3l2.1.62a5 5 0 0 1 2.48 1.44c.57.64.86 1.4.86 2.3 0 .77-.2 1.45-.62 2.04a4.1 4.1 0 0 1-1.68 1.37c-.72.32-1.56.48-2.52.48Zm7.48-.28v-12.98h2.7v12.98h-2.7Zm0-14.76v-3.12h2.7v3.12h-2.7Zm12.14 20.04a7.3 7.3 0 0 1-2.61-.46c-.8-.3-1.49-.72-2.07-1.27-.57-.53-1-1.15-1.3-1.87l2.5-1.03c.23.6.64 1.11 1.23 1.51.6.4 1.35.6 2.23.6.69 0 1.3-.14 1.85-.4.54-.26.97-.65 1.3-1.16.31-.5.47-1.1.47-1.8v-2.93l.48.55a4.55 4.55 0 0 1-1.87 1.9 6.31 6.31 0 0 1-5.9-.2 6.18 6.18 0 0 1-3.1-5.58c0-1.24.27-2.33.82-3.3a6.23 6.23 0 0 1 8.14-2.47 4.99 4.99 0 0 1 1.91 1.83l-.36.67v-2.85h2.57v12.38c0 1.12-.27 2.12-.81 3-.53.9-1.27 1.6-2.21 2.11-.95.51-2.03.77-3.27.77Zm-.14-8.23c.72 0 1.36-.17 1.92-.5a3.96 3.96 0 0 0 1.82-3.38c0-.75-.16-1.41-.5-2a3.74 3.74 0 0 0-5.2-1.4 3.69 3.69 0 0 0-1.86 3.39 3.87 3.87 0 0 0 1.85 3.38c.58.34 1.23.5 1.97.5Zm9.6 2.95v-12.98h2.6v2.54l-.31-.34a3.6 3.6 0 0 1 1.53-1.84c.7-.44 1.52-.65 2.45-.65.96 0 1.8.2 2.54.62s1.32 1 1.73 1.73c.42.74.63 1.58.63 2.54v8.38h-2.7v-7.66c0-.65-.11-1.2-.35-1.65a2.44 2.44 0 0 0-1.03-1.06 2.86 2.86 0 0 0-1.5-.38 3 3 0 0 0-1.5.38c-.44.24-.77.6-1.01 1.06a3.56 3.56 0 0 0-.36 1.65v7.66h-2.71Zm18.53 0v-17.88h11.78v2.52h-8.95v5.14h8.47v2.52h-8.47v5.18h8.95v2.52h-11.78Zm12.85 0 4.54-6.5-4.54-6.48h3.2l3.71 5.42h-1.53l3.72-5.42h3.19l-4.56 6.48 4.54 6.5h-3.2l-3.67-5.45h1.49l-3.7 5.45h-3.19Zm19.77.29a6.7 6.7 0 0 1-3.46-.89c-.99-.6-1.76-1.42-2.32-2.45a7.22 7.22 0 0 1-.84-3.48c0-1.31.28-2.47.84-3.48.57-1 1.34-1.8 2.3-2.37a6.1 6.1 0 0 1 3.26-.9c.98 0 1.85.18 2.62.51a5.87 5.87 0 0 1 3.14 3.38 6.65 6.65 0 0 1 .31 3.68h-10.34v-2.16h8.8l-1.29.98a3.36 3.36 0 0 0-1.37-3.55 3.2 3.2 0 0 0-1.87-.55 3.42 3.42 0 0 0-3.21 2.09c-.3.65-.43 1.45-.36 2.4a3.81 3.81 0 0 0 1.75 3.84c.6.36 1.3.55 2.06.55.79 0 1.45-.18 2-.53.55-.35 1-.8 1.31-1.37l2.21 1.08c-.25.61-.65 1.16-1.2 1.66-.53.48-1.16.86-1.92 1.15-.73.27-1.54.4-2.42.4Zm14.79 0a6.7 6.7 0 0 1-3.46-.89c-.99-.6-1.78-1.42-2.37-2.45a6.97 6.97 0 0 1-.87-3.48c0-1.28.3-2.43.87-3.45a6.23 6.23 0 0 1 2.37-2.4c1.01-.6 2.16-.9 3.46-.9a6.36 6.36 0 0 1 4.46 1.76c.58.54 1 1.18 1.28 1.9l-2.38 1.1a3.42 3.42 0 0 0-1.32-1.6 3.46 3.46 0 0 0-2.04-.63 3.7 3.7 0 0 0-3.36 2.06c-.34.64-.5 1.37-.5 2.19 0 .81.16 1.55.5 2.2a3.7 3.7 0 0 0 3.36 2.06 3.49 3.49 0 0 0 3.36-2.25l2.38 1.13a5.06 5.06 0 0 1-1.25 1.87 6.3 6.3 0 0 1-4.49 1.78Zm13.02 0c-.98 0-1.83-.22-2.57-.65a4.7 4.7 0 0 1-1.73-1.85 6.1 6.1 0 0 1-.6-2.76v-8.01h2.71v7.77c0 .6.12 1.11.36 1.56.24.45.58.8 1.01 1.06.43.24.93.36 1.49.36.58 0 1.08-.13 1.51-.39.43-.25.77-.61 1.01-1.08.26-.46.38-1 .38-1.63v-7.65h2.7v12.98h-2.58v-2.54l.3.33c-.31.8-.82 1.42-1.52 1.85-.7.43-1.53.65-2.47.65Zm15.04-.15a4.23 4.23 0 0 1-3.16-1.15 4.44 4.44 0 0 1-1.13-3.24v-6.29h-2.28v-2.44h.36c.6 0 1.08-.18 1.42-.53a2 2 0 0 0 .5-1.44v-1.01h2.71v2.98h2.95v2.44h-2.95v6.17c0 .45.07.83.22 1.15.14.3.37.55.7.72.31.16.73.24 1.24.24.13 0 .27 0 .43-.02l.46-.05v2.33l-.75.1c-.27.03-.5.04-.72.04Zm4.12-.14v-12.98h2.7v12.98h-2.7Zm0-14.76v-3.12h2.7v3.12h-2.7Zm12.14 15.05a6.71 6.71 0 0 1-6.8-6.8 6.6 6.6 0 0 1 3.37-5.87 6.73 6.73 0 0 1 3.43-.9 6.65 6.65 0 0 1 6.77 6.78 6.73 6.73 0 0 1-3.36 5.92 6.83 6.83 0 0 1-3.4.87Zm0-2.52a3.78 3.78 0 0 0 3.43-2.07c.36-.65.53-1.39.53-2.2 0-.82-.17-1.55-.53-2.19a3.78 3.78 0 0 0-3.43-2.06 3.86 3.86 0 0 0-3.45 2.06c-.34.64-.5 1.37-.5 2.19 0 .81.16 1.55.5 2.2.35.64.82 1.15 1.41 1.52.61.36 1.29.55 2.04.55Zm9.42 2.23v-12.98h2.59v2.54l-.31-.34a3.6 3.6 0 0 1 1.53-1.84c.7-.44 1.52-.65 2.45-.65.96 0 1.81.2 2.55.62.73.42 1.3 1 1.72 1.73.42.74.63 1.58.63 2.54v8.38h-2.69v-7.66c0-.65-.12-1.2-.36-1.65a2.44 2.44 0 0 0-1.03-1.06 2.86 2.86 0 0 0-1.49-.38 3 3 0 0 0-1.51.38c-.43.24-.77.6-1.01 1.06a3.56 3.56 0 0 0-.36 1.65v7.66h-2.71Z"/><rect width="238.5" height="56.5" x="448.75" y="211.75" fill="#DBEAFE" rx="11.25"/><rect width="238.5" height="56.5" x="448.75" y="211.75" stroke="#4B5563" stroke-dasharray="8 8" stroke-width="1.5" rx="11.25"/><path fill="#222" d="M541.4 250.29a7.36 7.36 0 0 1-5.57-2.38 7.02 7.02 0 0 1-1.48-2.54l2.4-1.01a5.46 5.46 0 0 0 1.9 2.54c.82.6 1.78.9 2.87.9.64 0 1.2-.1 1.68-.3.48-.2.85-.5 1.1-.86.28-.37.41-.8.41-1.27 0-.66-.18-1.18-.55-1.56a3.77 3.77 0 0 0-1.63-.91l-3.36-1.06a6.28 6.28 0 0 1-3.07-1.9 4.64 4.64 0 0 1-1.06-3.02c0-1 .25-1.89.75-2.64a5.07 5.07 0 0 1 2.04-1.8 6.72 6.72 0 0 1 3-.65 7.24 7.24 0 0 1 5.18 2.11 5.9 5.9 0 0 1 1.4 2.28l-2.36 1.04a4.38 4.38 0 0 0-5.78-2.64c-.45.19-.8.48-1.06.86-.24.37-.36.8-.36 1.3 0 .57.18 1.08.55 1.53.37.45.93.79 1.68 1.01l3.12.98a6.81 6.81 0 0 1 3.22 1.88c.72.8 1.08 1.8 1.08 3 0 .99-.27 1.87-.8 2.64a5.32 5.32 0 0 1-2.13 1.82c-.91.43-1.97.65-3.17.65Zm14.63-.15a4.23 4.23 0 0 1-3.17-1.15 4.44 4.44 0 0 1-1.13-3.24v-6.29h-2.28v-2.44h.36c.61 0 1.08-.18 1.42-.53a2 2 0 0 0 .5-1.44v-1.01h2.71v2.98h2.96v2.44h-2.96v6.17c0 .45.08.83.22 1.15.14.3.38.55.7.72.32.16.73.24 1.24.24.13 0 .28 0 .44-.02l.45-.05V250l-.74.1c-.27.03-.51.04-.72.04Zm9.97.15a6.7 6.7 0 0 1-3.46-.89c-.99-.6-1.76-1.42-2.32-2.45a7.22 7.22 0 0 1-.84-3.48c0-1.31.28-2.47.84-3.48.57-1 1.34-1.8 2.3-2.37a6.1 6.1 0 0 1 3.26-.9c.98 0 1.85.18 2.62.51a5.87 5.87 0 0 1 3.14 3.38 6.65 6.65 0 0 1 .32 3.68H561.5v-2.16h8.81l-1.3.98a3.36 3.36 0 0 0-1.36-3.55 3.2 3.2 0 0 0-1.88-.55 3.42 3.42 0 0 0-3.21 2.09c-.3.65-.43 1.45-.36 2.4a3.81 3.81 0 0 0 1.75 3.84c.6.36 1.3.55 2.06.55.79 0 1.45-.18 2-.53.56-.35 1-.8 1.32-1.37l2.2 1.08c-.25.61-.65 1.16-1.2 1.66-.52.48-1.16.86-1.92 1.15-.73.27-1.54.4-2.42.4Zm8.62 4.51v-17.78h2.6v2.68l-.32-.62a5 5 0 0 1 1.92-1.73c.8-.41 1.71-.62 2.74-.62a6.26 6.26 0 0 1 5.64 3.31c.57 1.02.86 2.18.86 3.46a6.93 6.93 0 0 1-3.16 5.9 6.3 6.3 0 0 1-3.34.89c-1 0-1.93-.21-2.76-.63a4.48 4.48 0 0 1-1.9-1.8l.44-.5v7.44h-2.72Zm6.67-7.03a3.78 3.78 0 0 0 3.44-2.07c.35-.65.52-1.39.52-2.2 0-.82-.17-1.55-.52-2.19a3.78 3.78 0 0 0-3.43-2.06 3.86 3.86 0 0 0-3.46 2.06c-.34.64-.5 1.37-.5 2.19 0 .81.16 1.55.5 2.2.35.64.82 1.15 1.41 1.52.61.36 1.3.55 2.04.55Zm16.25 2.23v-15.48h-3.44v-2.4h6.25V250h-2.81Z"/><circle cx="688" cy="240" r="6.5" fill="#EFF6FF" stroke="#60A5FA" stroke-width="3"/><path fill="#60A5FA" d="M696 241.94a1.5 1.5 0 1 1 0-3v3Zm167.75-187a1.5 1.5 0 0 1 0 2.12l-9.55 9.55a1.5 1.5 0 1 1-2.12-2.13l8.49-8.48-8.49-8.49a1.5 1.5 0 1 1 2.12-2.12l9.55 9.55ZM696 238.94h12v3h-12v-3Zm34.5-22.5V80h3v136.44h-3ZM756 54.5h106.69v3H756v-3ZM730.5 80A25.5 25.5 0 0 1 756 54.5v3A22.5 22.5 0 0 0 733.5 80h-3ZM708 238.94a22.5 22.5 0 0 0 22.5-22.5h3a25.5 25.5 0 0 1-25.5 25.5v-3Z"/><path fill="#60A5FA" d="M696 238.5a1.5 1.5 0 0 0 0 3v-3Zm167.75 187a1.5 1.5 0 0 0 0-2.12l-9.55-9.55a1.5 1.5 0 1 0-2.12 2.12l8.49 8.49-8.49 8.48a1.5 1.5 0 1 0 2.12 2.13l9.55-9.55ZM696 241.5h12v-3h-12v3Zm34.5 22.5v136.44h3V264h-3ZM756 425.94h106.69v-3H756v3Zm-25.5-25.5a25.5 25.5 0 0 0 25.5 25.5v-3a22.5 22.5 0 0 1-22.5-22.5h-3ZM708 241.5a22.5 22.5 0 0 1 22.5 22.5h3a25.5 25.5 0 0 0-25.5-25.5v3Z"/><rect width="276" height="69" x="864" y="20" fill="url(#j)" rx="20"/><path fill="#000" d="M901.12 64.79a8.77 8.77 0 0 1-6.34-2.62 9.2 9.2 0 0 1-1.85-2.93 9.87 9.87 0 0 1-.67-3.7c0-1.32.22-2.54.65-3.66a8.67 8.67 0 0 1 8.2-5.55c1.27 0 2.4.22 3.4.65 1 .43 1.85 1 2.53 1.7a6.3 6.3 0 0 1 1.5 2.26l-2.55 1.2a5.08 5.08 0 0 0-4.87-3.24 5.78 5.78 0 0 0-5.28 3.17c-.5.99-.75 2.15-.75 3.48s.25 2.5.75 3.5 1.22 1.77 2.13 2.33c.91.54 1.96.82 3.15.82a5.08 5.08 0 0 0 4.87-3.22l2.54 1.2c-.3.8-.8 1.55-1.49 2.26a7.8 7.8 0 0 1-2.54 1.7 8.4 8.4 0 0 1-3.38.65Zm10.06-.29V46.33h2.71V64.5h-2.7Zm5.88 0V51.52h2.72V64.5h-2.72Zm0-14.76v-3.12h2.72v3.12h-2.72Zm11.98 15.05a6.7 6.7 0 0 1-3.45-.89c-1-.6-1.77-1.42-2.33-2.45a7.22 7.22 0 0 1-.84-3.48c0-1.31.28-2.47.84-3.48.58-1 1.34-1.8 2.3-2.37a6.1 6.1 0 0 1 3.27-.9c.97 0 1.84.18 2.61.51a5.87 5.87 0 0 1 3.14 3.38 6.65 6.65 0 0 1 .32 3.68h-10.35v-2.16h8.81l-1.3.98a3.36 3.36 0 0 0-1.36-3.55 3.2 3.2 0 0 0-1.87-.55 3.42 3.42 0 0 0-3.22 2.09c-.3.65-.42 1.45-.36 2.4a3.81 3.81 0 0 0 1.75 3.84c.61.36 1.3.55 2.07.55.78 0 1.44-.18 1.99-.53.56-.35 1-.8 1.32-1.37l2.2 1.08c-.25.61-.65 1.16-1.2 1.66-.52.48-1.16.86-1.91 1.15-.74.27-1.55.4-2.43.4Zm8.63-.29V51.52h2.59v2.54l-.31-.34a3.6 3.6 0 0 1 1.53-1.84c.7-.44 1.52-.65 2.45-.65.96 0 1.8.2 2.54.62s1.32 1 1.73 1.73c.42.74.63 1.58.63 2.54v8.38h-2.7v-7.66c0-.65-.11-1.2-.35-1.65a2.44 2.44 0 0 0-1.03-1.06 2.86 2.86 0 0 0-1.5-.38 3 3 0 0 0-1.5.38c-.44.24-.77.6-1.01 1.06a3.56 3.56 0 0 0-.36 1.65v7.66h-2.71Zm19.68.14a4.23 4.23 0 0 1-3.17-1.15 4.44 4.44 0 0 1-1.13-3.24v-6.29h-2.28v-2.44h.36c.6 0 1.08-.18 1.41-.53a2 2 0 0 0 .5-1.44v-1.01h2.72v2.98h2.95v2.44h-2.95v6.17c0 .45.07.83.22 1.15.14.3.37.55.7.72.31.16.73.24 1.24.24.13 0 .27 0 .43-.02l.46-.05v2.33l-.74.1c-.28.03-.52.04-.73.04Zm16.9.15a8.77 8.77 0 0 1-6.34-2.62 9.2 9.2 0 0 1-1.85-2.93 9.87 9.87 0 0 1-.67-3.7c0-1.32.21-2.54.64-3.66a8.67 8.67 0 0 1 8.21-5.55c1.27 0 2.4.22 3.39.65 1 .43 1.85 1 2.54 1.7a6.3 6.3 0 0 1 1.49 2.26l-2.55 1.2a5.08 5.08 0 0 0-4.87-3.24 5.78 5.78 0 0 0-5.28 3.17c-.5.99-.74 2.15-.74 3.48s.25 2.5.74 3.5c.51 1 1.23 1.77 2.14 2.33.91.54 1.96.82 3.14.82a5.08 5.08 0 0 0 4.87-3.22l2.55 1.2c-.3.8-.8 1.55-1.49 2.26a7.8 7.8 0 0 1-2.54 1.7 8.4 8.4 0 0 1-3.39.65Zm16.09 0a6.71 6.71 0 0 1-6.8-6.8 6.6 6.6 0 0 1 3.36-5.87 6.73 6.73 0 0 1 3.44-.9A6.65 6.65 0 0 1 997.1 58a6.73 6.73 0 0 1-3.36 5.92 6.83 6.83 0 0 1-3.4.87Zm0-2.52a3.78 3.78 0 0 0 3.43-2.07c.35-.65.53-1.39.53-2.2 0-.82-.18-1.55-.53-2.19a3.78 3.78 0 0 0-3.43-2.06 3.86 3.86 0 0 0-3.46 2.06c-.34.64-.5 1.37-.5 2.19 0 .81.16 1.55.5 2.2a3.86 3.86 0 0 0 3.46 2.06Zm9.41 2.23V51.52h2.59v2.54l-.31-.34c.32-.81.83-1.43 1.54-1.84.7-.44 1.52-.65 2.45-.65.96 0 1.8.2 2.54.62s1.31 1 1.73 1.73c.41.74.62 1.58.62 2.54v8.38h-2.69v-7.66c0-.65-.12-1.2-.36-1.65a2.42 2.42 0 0 0-1.03-1.06 2.87 2.87 0 0 0-1.49-.38 3 3 0 0 0-1.51.38c-.43.24-.77.6-1.01 1.06a3.56 3.56 0 0 0-.36 1.65v7.66h-2.7Zm18.86.29a6.29 6.29 0 0 1-3.5-.99 5.24 5.24 0 0 1-2.09-2.64l2.09-.98c.35.74.83 1.32 1.44 1.75.62.43 1.31.65 2.06.65a2.6 2.6 0 0 0 1.56-.43c.4-.29.6-.68.6-1.18 0-.32-.08-.57-.26-.77a2 2 0 0 0-.67-.5 3.72 3.72 0 0 0-.79-.29l-2.04-.57a5.12 5.12 0 0 1-2.52-1.44 3.44 3.44 0 0 1-.82-2.28c0-.79.2-1.47.6-2.04.4-.6.95-1.05 1.66-1.37.7-.32 1.49-.48 2.37-.48 1.19 0 2.24.3 3.17.89a4.7 4.7 0 0 1 1.97 2.42l-2.09.98a3.2 3.2 0 0 0-1.22-1.48 3.24 3.24 0 0 0-1.85-.56c-.59 0-1.07.15-1.42.44a1.3 1.3 0 0 0-.53 1.08c0 .3.08.56.24.76.16.2.37.36.63.48.25.12.52.21.79.3l2.11.62c1.07.3 1.9.78 2.47 1.44.58.64.87 1.4.87 2.3 0 .77-.21 1.45-.63 2.04a4.1 4.1 0 0 1-1.68 1.37c-.72.32-1.56.48-2.52.48Zm12.12 0c-.98 0-1.83-.22-2.57-.65a4.7 4.7 0 0 1-1.73-1.85 6.1 6.1 0 0 1-.6-2.76v-8.01h2.71v7.77c0 .6.12 1.11.36 1.56.24.45.58.8 1.01 1.06.43.24.93.36 1.49.36.58 0 1.08-.13 1.51-.39.43-.25.77-.61 1.01-1.08.26-.46.38-1 .38-1.63v-7.65h2.69V64.5h-2.57v-2.54l.29.33a3.6 3.6 0 0 1-1.51 1.85c-.7.43-1.53.65-2.47.65Zm9.43-.29V46.33h2.71V64.5h-2.71Zm11.5.14a4.23 4.23 0 0 1-3.17-1.15 4.44 4.44 0 0 1-1.13-3.24v-6.29h-2.28v-2.44h.36c.61 0 1.08-.18 1.42-.53.33-.35.5-.83.5-1.44v-1.01h2.71v2.98h2.96v2.44h-2.96v6.17c0 .45.08.83.22 1.15.14.3.38.55.7.72.32.16.73.24 1.24.24a4.5 4.5 0 0 0 .89-.07v2.33l-.74.1a6.2 6.2 0 0 1-.72.04Zm7.88.15a5.6 5.6 0 0 1-2.33-.46 3.83 3.83 0 0 1-1.54-1.3 3.56 3.56 0 0 1-.55-1.96c0-.7.15-1.34.46-1.9.32-.56.81-1.03 1.46-1.41a7.16 7.16 0 0 1 2.47-.82l4.52-.74v2.13l-3.99.7c-.72.13-1.25.36-1.58.7-.34.31-.51.73-.51 1.24 0 .5.19.9.56 1.23.38.3.87.45 1.46.45a3.7 3.7 0 0 0 3.22-1.75c.3-.54.45-1.14.45-1.8v-3.34c0-.64-.24-1.16-.72-1.56a2.7 2.7 0 0 0-1.87-.62 3.34 3.34 0 0 0-3.07 2.02l-2.26-1.13c.24-.64.63-1.2 1.18-1.68.54-.5 1.17-.88 1.89-1.15a6.71 6.71 0 0 1 5.04.16 4.33 4.33 0 0 1 2.52 3.96v8.74h-2.59v-2.35l.55.07a5.12 5.12 0 0 1-2.78 2.26c-.59.2-1.26.3-1.99.3Zm15.37-.15a4.23 4.23 0 0 1-3.17-1.15 4.44 4.44 0 0 1-1.13-3.24v-6.29h-2.28v-2.44h.36c.61 0 1.08-.18 1.42-.53.33-.35.5-.83.5-1.44v-1.01h2.71v2.98h2.96v2.44h-2.96v6.17c0 .45.08.83.22 1.15.14.3.38.55.7.72.32.16.73.24 1.24.24a4.5 4.5 0 0 0 .89-.07v2.33l-.74.1a6.2 6.2 0 0 1-.72.04Zm4.11-.14V51.52h2.71V64.5h-2.71Zm0-14.76v-3.12h2.71v3.12h-2.71Zm12.14 15.05a6.76 6.76 0 0 1-5.88-3.31 6.76 6.76 0 0 1-.91-3.48 6.57 6.57 0 0 1 3.36-5.88 6.75 6.75 0 0 1 3.43-.9 6.68 6.68 0 0 1 6.77 6.78 6.71 6.71 0 0 1-3.36 5.92 6.82 6.82 0 0 1-3.41.87Zm0-2.52a3.77 3.77 0 0 0 3.44-2.07c.35-.65.52-1.39.52-2.2 0-.82-.17-1.55-.52-2.19a3.84 3.84 0 0 0-3.44-2.06c-.75 0-1.43.18-2.04.55-.59.37-1.06.87-1.41 1.51a4.58 4.58 0 0 0-.51 2.19c0 .81.17 1.55.51 2.2.35.64.82 1.15 1.41 1.52.61.36 1.29.55 2.04.55Zm9.42 2.23V51.52h2.59v2.54l-.31-.34c.32-.81.83-1.43 1.54-1.84.7-.44 1.52-.65 2.44-.65.96 0 1.81.2 2.55.62.73.42 1.31 1 1.73 1.73.41.74.62 1.58.62 2.54v8.38h-2.69v-7.66c0-.65-.12-1.2-.36-1.65a2.42 2.42 0 0 0-1.03-1.06 2.87 2.87 0 0 0-1.49-.38 3 3 0 0 0-1.51.38c-.43.24-.77.6-1.01 1.06a3.56 3.56 0 0 0-.36 1.65v7.66h-2.71Z"/><rect width="276" height="69" x="864" y="204" fill="url(#k)" rx="20"/><path fill="#000" d="M914.19 248.5v-17.88h6.5c1.2 0 2.26.22 3.17.67a4.85 4.85 0 0 1 2.16 1.92c.51.83.77 1.83.77 3 0 1.15-.27 2.15-.8 2.98a5.08 5.08 0 0 1-2.13 1.92 7.1 7.1 0 0 1-3.17.67h-3.67v6.72h-2.83Zm2.83-9.24h3.74c.64 0 1.2-.13 1.68-.38.48-.26.86-.61 1.13-1.06.27-.46.41-1 .41-1.63 0-.63-.14-1.16-.4-1.61a2.66 2.66 0 0 0-1.14-1.06 3.52 3.52 0 0 0-1.68-.38h-3.74v6.12Zm12.42 9.24v-12.98h2.6v2.61l-.25-.38c.29-.85.75-1.46 1.4-1.83a4.4 4.4 0 0 1 2.3-.57h.79v2.47h-1.13c-.9 0-1.62.28-2.18.84-.55.54-.82 1.33-.82 2.35v7.49h-2.71Zm14.96.29a6.71 6.71 0 0 1-6.8-6.8 6.6 6.6 0 0 1 3.37-5.87 6.73 6.73 0 0 1 3.43-.9 6.65 6.65 0 0 1 6.77 6.78 6.73 6.73 0 0 1-3.36 5.92 6.83 6.83 0 0 1-3.41.87Zm0-2.52a3.78 3.78 0 0 0 3.43-2.07c.35-.65.53-1.39.53-2.2 0-.82-.18-1.55-.53-2.19a3.78 3.78 0 0 0-3.43-2.06 3.86 3.86 0 0 0-3.46 2.06c-.33.64-.5 1.37-.5 2.19 0 .81.17 1.55.5 2.2a3.86 3.86 0 0 0 3.46 2.06Zm7.42 7.53a3.8 3.8 0 0 1-.57-.04 3.9 3.9 0 0 1-.56-.08v-2.35c.3.05.61.07.92.07.67 0 1.2-.17 1.6-.52.4-.34.6-.85.6-1.54v-13.82h2.72v13.82c0 .94-.2 1.75-.6 2.42-.4.68-.96 1.18-1.66 1.52a5.4 5.4 0 0 1-2.45.52Zm2-20.06v-3.12h2.7v3.12h-2.7Zm11.97 15.05a6.7 6.7 0 0 1-3.45-.89c-1-.6-1.77-1.42-2.33-2.45a7.22 7.22 0 0 1-.84-3.48c0-1.31.28-2.47.84-3.48.58-1 1.34-1.8 2.3-2.37a6.1 6.1 0 0 1 3.27-.9c.97 0 1.84.18 2.61.51a5.87 5.87 0 0 1 3.14 3.38 6.65 6.65 0 0 1 .32 3.68H961.3v-2.16h8.81l-1.3.98a3.36 3.36 0 0 0-1.36-3.55 3.2 3.2 0 0 0-1.87-.55 3.42 3.42 0 0 0-3.22 2.09c-.3.65-.42 1.45-.36 2.4a3.81 3.81 0 0 0 1.75 3.84c.61.36 1.3.55 2.07.55.78 0 1.44-.18 1.99-.53.56-.35 1-.8 1.32-1.37l2.2 1.08c-.25.61-.65 1.16-1.2 1.66-.52.48-1.16.86-1.91 1.15-.74.27-1.55.4-2.43.4Zm14.8 0a6.7 6.7 0 0 1-3.46-.89c-1-.6-1.79-1.42-2.38-2.45a6.97 6.97 0 0 1-.86-3.48c0-1.28.29-2.43.86-3.45a6.23 6.23 0 0 1 2.38-2.4c1-.6 2.16-.9 3.45-.9a6.36 6.36 0 0 1 4.47 1.76c.57.54 1 1.18 1.27 1.9l-2.38 1.1a3.42 3.42 0 0 0-1.32-1.6 3.46 3.46 0 0 0-2.04-.63 3.7 3.7 0 0 0-3.36 2.06c-.33.64-.5 1.37-.5 2.19 0 .81.17 1.55.5 2.2a3.7 3.7 0 0 0 3.36 2.06 3.49 3.49 0 0 0 3.36-2.25l2.38 1.13a5.06 5.06 0 0 1-1.25 1.87 6.3 6.3 0 0 1-4.49 1.78Zm14-.15a4.23 4.23 0 0 1-3.17-1.15 4.44 4.44 0 0 1-1.13-3.24v-6.29h-2.28v-2.44h.36c.6 0 1.08-.18 1.42-.53a2 2 0 0 0 .5-1.44v-1.01H993v2.98h2.96v2.44H993v6.17c0 .45.08.83.22 1.15.14.3.38.55.7.72.32.16.73.24 1.24.24.13 0 .27 0 .44-.02l.45-.05v2.33l-.74.1c-.27.03-.51.04-.72.04Zm8.57-.14v-17.88h7.53c1.12 0 2.09.2 2.91.6.81.38 1.44.94 1.87 1.68a4.92 4.92 0 0 1-.03 4.94 4.4 4.4 0 0 1-2.04 1.68v-1.2c.82.32 1.48.73 2 1.23a4.2 4.2 0 0 1 1.1 1.63c.24.6.36 1.25.36 1.92 0 1.68-.55 3-1.66 3.96-1.08.96-2.58 1.44-4.48 1.44h-7.56Zm2.83-2.52h4.94c.95 0 1.7-.26 2.26-.77.56-.53.84-1.22.84-2.09 0-.88-.28-1.57-.84-2.08a3.15 3.15 0 0 0-2.26-.8h-4.94v5.74Zm0-8.23h4.77a2.6 2.6 0 0 0 1.85-.65c.47-.45.7-1.03.7-1.75s-.23-1.28-.7-1.68c-.46-.4-1.08-.6-1.85-.6h-4.77v4.68Zm13.52 10.75v-12.98h2.59v2.61l-.24-.38c.29-.85.75-1.46 1.39-1.83a4.4 4.4 0 0 1 2.31-.57h.79v2.47h-1.13c-.89 0-1.62.28-2.18.84-.55.54-.82 1.33-.82 2.35v7.49h-2.71Zm8.7 0v-12.98h2.71v12.98h-2.71Zm0-14.76v-3.12h2.71v3.12h-2.71Zm11.97 15.05a6.7 6.7 0 0 1-3.45-.89 6.48 6.48 0 0 1-2.33-2.45 7.22 7.22 0 0 1-.84-3.48 6.46 6.46 0 0 1 3.14-5.86 6.1 6.1 0 0 1 3.27-.88c.97 0 1.85.17 2.61.5a5.8 5.8 0 0 1 3.15 3.38c.29.76.43 1.56.43 2.4l-.02.65c-.02.23-.05.44-.1.63h-10.34v-2.16h8.8l-1.29.98a3.38 3.38 0 0 0-1.37-3.55 3.19 3.19 0 0 0-1.87-.55 3.42 3.42 0 0 0-3.22 2.09c-.3.65-.42 1.45-.36 2.4-.08.88.04 1.64.36 2.3.34.66.8 1.17 1.39 1.54.61.36 1.3.55 2.07.55.78 0 1.45-.18 1.99-.53.56-.35 1-.8 1.32-1.37l2.21 1.08c-.26.61-.66 1.16-1.2 1.66-.53.48-1.17.86-1.92 1.15a7 7 0 0 1-2.43.4Zm10.09-.29v-10.54h-2.4v-2.44h2.4v-.68c0-.97.2-1.79.6-2.44.4-.68.95-1.19 1.66-1.54a5.54 5.54 0 0 1 3.62-.4v2.34a1.78 1.78 0 0 0-.43-.04 4.09 4.09 0 0 0-.39-.03c-.72 0-1.29.17-1.72.5-.44.33-.65.86-.65 1.61v.68h6.21v2.44h-6.21v10.54h-2.69Zm7.63 0v-12.98h2.69v12.98h-2.69Zm5.56 0v-12.98h2.59v2.54l-.31-.34a3.6 3.6 0 0 1 1.53-1.84 4.6 4.6 0 0 1 2.45-.65c.96 0 1.81.2 2.54.62.74.42 1.32 1 1.73 1.73.42.74.63 1.58.63 2.54v8.38h-2.69v-7.66c0-.65-.12-1.2-.36-1.65a2.48 2.48 0 0 0-1.03-1.06 2.9 2.9 0 0 0-1.49-.38c-.56 0-1.07.13-1.51.38-.44.24-.77.6-1.01 1.06a3.56 3.56 0 0 0-.36 1.65v7.66h-2.71Zm20.32 5.28c-.94 0-1.81-.15-2.61-.46-.8-.3-1.49-.72-2.07-1.27a5.02 5.02 0 0 1-1.29-1.87l2.49-1.03c.23.6.63 1.11 1.23 1.51.6.4 1.35.6 2.23.6.69 0 1.3-.14 1.85-.4.54-.26.97-.65 1.29-1.16.32-.5.48-1.1.48-1.8v-2.93l.48.55a4.56 4.56 0 0 1-1.87 1.9 6.31 6.31 0 0 1-5.9-.2 6.18 6.18 0 0 1-3.1-5.58c0-1.24.27-2.33.82-3.3a6.3 6.3 0 0 1 2.25-2.27 6.26 6.26 0 0 1 5.88-.2 4.91 4.91 0 0 1 1.92 1.83l-.36.67v-2.85h2.57v12.38c0 1.12-.27 2.12-.82 3-.52.9-1.26 1.6-2.2 2.11-.95.51-2.04.77-3.27.77Zm-.14-8.23c.72 0 1.36-.17 1.92-.5a4.02 4.02 0 0 0 1.82-3.38 3.8 3.8 0 0 0-3.74-3.91 3.7 3.7 0 0 0-1.97.52 3.7 3.7 0 0 0-1.85 3.38c0 .72.16 1.38.48 1.97.34.59.79 1.06 1.37 1.41.58.34 1.23.5 1.97.5Z"/><rect width="277" height="83" x="863" y="382" fill="url(#l)" rx="20"/><path fill="#000" d="M938.08 417.5v-17.88h6.5c1.2 0 2.25.22 3.17.67a4.88 4.88 0 0 1 2.13 1.92c.53.83.8 1.83.8 3 0 1.23-.32 2.29-.94 3.17a5.2 5.2 0 0 1-2.47 1.92l4.13 7.2h-3.22l-4.4-7.8 1.86 1.08h-4.73v6.72h-2.83Zm2.83-9.24h3.72c.65 0 1.22-.13 1.7-.38.48-.26.85-.61 1.1-1.06.28-.46.41-1 .41-1.63 0-.63-.13-1.16-.4-1.61a2.52 2.52 0 0 0-1.1-1.06 3.57 3.57 0 0 0-1.71-.38h-3.72v6.12Zm17.97 9.53a6.7 6.7 0 0 1-3.45-.89c-1-.6-1.77-1.42-2.33-2.45a7.22 7.22 0 0 1-.84-3.48c0-1.31.28-2.47.84-3.48.57-1 1.34-1.8 2.3-2.37a6.1 6.1 0 0 1 3.27-.9c.97 0 1.85.18 2.61.51a5.87 5.87 0 0 1 3.14 3.38 6.65 6.65 0 0 1 .32 3.68h-10.35v-2.16h8.81l-1.3.98a3.36 3.36 0 0 0-1.36-3.55 3.2 3.2 0 0 0-1.87-.55 3.42 3.42 0 0 0-3.22 2.09c-.3.65-.42 1.45-.36 2.4a3.81 3.81 0 0 0 1.75 3.84c.61.36 1.3.55 2.07.55.78 0 1.45-.18 1.99-.53.56-.35 1-.8 1.32-1.37l2.2 1.08c-.25.61-.65 1.16-1.2 1.66-.52.48-1.16.86-1.91 1.15-.74.27-1.55.4-2.43.4Zm13.43 0c-1.33 0-2.5-.33-3.5-.99a5.23 5.23 0 0 1-2.1-2.64l2.1-.98c.34.74.82 1.32 1.43 1.75.63.43 1.31.65 2.07.65a2.6 2.6 0 0 0 1.56-.43c.4-.29.6-.68.6-1.18 0-.32-.1-.57-.27-.77-.17-.2-.4-.37-.67-.5a3.62 3.62 0 0 0-.8-.29l-2.03-.57a5.12 5.12 0 0 1-2.52-1.44 3.47 3.47 0 0 1-.82-2.28c0-.79.2-1.47.6-2.04.4-.6.95-1.05 1.66-1.37.7-.32 1.5-.48 2.37-.48 1.19 0 2.24.3 3.17.89a4.68 4.68 0 0 1 1.97 2.42l-2.09.98a3.19 3.19 0 0 0-1.22-1.48 3.22 3.22 0 0 0-1.85-.56c-.6 0-1.06.15-1.42.44a1.3 1.3 0 0 0-.52 1.08c0 .3.08.56.24.76.16.2.36.36.62.48s.52.21.8.3l2.1.62a5 5 0 0 1 2.48 1.44c.57.64.86 1.4.86 2.3 0 .77-.2 1.45-.62 2.04a4.1 4.1 0 0 1-1.68 1.37c-.72.32-1.56.48-2.52.48Zm13.57 0a6.7 6.7 0 0 1-3.45-.89c-1-.6-1.77-1.42-2.33-2.45a7.22 7.22 0 0 1-.84-3.48c0-1.31.28-2.47.84-3.48.57-1 1.34-1.8 2.3-2.37a6.1 6.1 0 0 1 3.27-.9c.97 0 1.85.18 2.61.51a5.87 5.87 0 0 1 3.14 3.38 6.65 6.65 0 0 1 .32 3.68h-10.35v-2.16h8.81l-1.3.98a3.36 3.36 0 0 0-1.36-3.55 3.2 3.2 0 0 0-1.87-.55 3.42 3.42 0 0 0-3.22 2.09c-.3.65-.42 1.45-.36 2.4a3.81 3.81 0 0 0 1.75 3.84c.61.36 1.3.55 2.07.55.78 0 1.45-.18 1.99-.53.56-.35 1-.8 1.32-1.37l2.2 1.08c-.25.61-.65 1.16-1.2 1.66-.52.48-1.16.86-1.91 1.15-.74.27-1.55.4-2.43.4Zm12.4 0a5.6 5.6 0 0 1-2.33-.46 3.84 3.84 0 0 1-1.54-1.3 3.5 3.5 0 0 1-.55-1.96c0-.7.15-1.34.46-1.9a3.9 3.9 0 0 1 1.46-1.41 7.13 7.13 0 0 1 2.47-.82l4.51-.74v2.13l-3.98.7c-.72.13-1.25.36-1.58.7-.34.31-.5.73-.5 1.24 0 .5.18.9.54 1.23.39.3.88.45 1.47.45.74 0 1.37-.16 1.92-.48a3.37 3.37 0 0 0 1.75-3.07v-3.34c0-.64-.24-1.16-.72-1.56a2.7 2.7 0 0 0-1.87-.62 3.34 3.34 0 0 0-3.07 2.02l-2.26-1.13c.24-.64.63-1.2 1.18-1.68.54-.5 1.17-.88 1.9-1.15.73-.28 1.5-.41 2.32-.41 1.02 0 1.93.19 2.71.57a4.33 4.33 0 0 1 2.52 3.96v8.74h-2.59v-2.35l.55.07a5.12 5.12 0 0 1-2.78 2.26 6 6 0 0 1-2 .3Zm9.98-.29v-12.98h2.6v2.61l-.24-.38c.28-.85.75-1.46 1.39-1.83a4.4 4.4 0 0 1 2.3-.57h.79v2.47h-1.12c-.9 0-1.63.28-2.19.84-.54.54-.81 1.33-.81 2.35v7.49h-2.72Zm14.87.29a6.7 6.7 0 0 1-3.46-.89 6.82 6.82 0 0 1-3.24-5.93c0-1.28.29-2.43.87-3.45a6.16 6.16 0 0 1 2.37-2.4 6.7 6.7 0 0 1 3.46-.9 6.36 6.36 0 0 1 4.46 1.76c.58.54 1 1.18 1.27 1.9l-2.37 1.1a3.4 3.4 0 0 0-1.32-1.6 3.45 3.45 0 0 0-2.04-.63 3.67 3.67 0 0 0-3.36 2.06 4.58 4.58 0 0 0-.51 2.19c0 .81.17 1.55.51 2.2a3.67 3.67 0 0 0 3.36 2.06 3.5 3.5 0 0 0 3.36-2.25l2.37 1.13a5.04 5.04 0 0 1-1.24 1.87 6.32 6.32 0 0 1-4.49 1.78Zm8.38-.29v-18.17h2.72v7.73l-.44-.34c.32-.81.84-1.43 1.54-1.84.7-.44 1.52-.65 2.45-.65.96 0 1.81.2 2.54.62.74.42 1.31 1 1.73 1.73.42.74.62 1.58.62 2.52v8.4h-2.68v-7.66c0-.65-.13-1.2-.39-1.65a2.43 2.43 0 0 0-1.01-1.06 2.83 2.83 0 0 0-1.48-.38c-.55 0-1.04.13-1.49.38-.43.24-.78.6-1.03 1.06a3.56 3.56 0 0 0-.36 1.65v7.66h-2.72Zm23.71.29c-1.06 0-1.98-.2-2.78-.58-.8-.4-1.44-.95-1.9-1.65a4.6 4.6 0 0 1-.67-2.5c0-.8.14-1.5.43-2.09.29-.6.65-1.12 1.08-1.53.43-.44.86-.8 1.3-1.08.43-.3.79-.52 1.08-.68l1.46-.81c.48-.27.94-.56 1.37-.87.43-.3.78-.64 1.05-1.03.28-.38.41-.81.41-1.3 0-.57-.19-1.05-.57-1.43-.39-.4-.87-.6-1.44-.6-.58 0-1.06.19-1.44.57a2 2 0 0 0-.58 1.49c0 .42.1.82.29 1.22a7.83 7.83 0 0 0 1.56 2.1l9.6 10.48h-3.39l-8.23-8.86a32.4 32.4 0 0 1-1.15-1.32 7.9 7.9 0 0 1-.94-1.58 4.95 4.95 0 0 1-.36-1.92c0-.91.21-1.7.63-2.38.43-.67.99-1.19 1.68-1.56.7-.36 1.47-.55 2.3-.55.85 0 1.62.2 2.31.58a4.24 4.24 0 0 1 2.25 3.77c0 .86-.2 1.6-.6 2.23-.4.62-.89 1.15-1.46 1.58-.56.43-1.09.8-1.59 1.1l-1.46.87c-.38.22-.79.5-1.22.84-.42.32-.77.7-1.06 1.15-.29.43-.43.95-.43 1.56 0 .75.23 1.34.69 1.75.48.42 1.11.63 1.88.63a3.45 3.45 0 0 0 2.32-.87c.31-.25.57-.53.8-.84l.64-.88 2.79-4.08h2.9l-3.21 4.99c-.26.38-.56.81-.92 1.3-.35.46-.77.9-1.27 1.34a6.4 6.4 0 0 1-4.15 1.44ZM942.08 449.5v-17.88h2.83v17.88h-2.83Zm6.28 0v-12.98h2.59v2.54l-.31-.34a3.6 3.6 0 0 1 1.53-1.84c.7-.44 1.52-.65 2.45-.65.96 0 1.8.2 2.54.62s1.32 1 1.73 1.73c.42.74.63 1.58.63 2.54v8.38h-2.7v-7.66c0-.65-.11-1.2-.35-1.65a2.44 2.44 0 0 0-1.03-1.06 2.86 2.86 0 0 0-1.5-.38 3 3 0 0 0-1.5.38c-.44.24-.77.6-1.01 1.06a3.56 3.56 0 0 0-.36 1.65v7.66h-2.71Zm18.86.29c-1.33 0-2.5-.33-3.5-.99a5.23 5.23 0 0 1-2.1-2.64l2.1-.98c.35.74.83 1.32 1.44 1.75.62.43 1.3.65 2.06.65a2.6 2.6 0 0 0 1.56-.43c.4-.29.6-.68.6-1.18 0-.32-.09-.57-.26-.77-.18-.2-.4-.37-.68-.5a3.62 3.62 0 0 0-.79-.29l-2.04-.57a5.12 5.12 0 0 1-2.52-1.44 3.47 3.47 0 0 1-.81-2.28c0-.79.2-1.47.6-2.04.4-.6.95-1.05 1.65-1.37.7-.32 1.5-.48 2.38-.48 1.18 0 2.24.3 3.17.89a4.68 4.68 0 0 1 1.96 2.42l-2.08.98a3.19 3.19 0 0 0-1.23-1.48 3.22 3.22 0 0 0-1.85-.56c-.59 0-1.06.15-1.41.44a1.3 1.3 0 0 0-.53 1.08c0 .3.08.56.24.76.16.2.37.36.62.48.26.12.52.21.8.3l2.1.62a5 5 0 0 1 2.48 1.44c.58.64.86 1.4.86 2.3 0 .77-.2 1.45-.62 2.04a4.1 4.1 0 0 1-1.68 1.37c-.72.32-1.56.48-2.52.48Zm7.48 4.51v-17.78h2.6v2.68l-.32-.62a5 5 0 0 1 1.92-1.73c.8-.41 1.71-.62 2.74-.62a6.26 6.26 0 0 1 5.64 3.31c.57 1.02.86 2.18.86 3.46a6.93 6.93 0 0 1-3.17 5.9 6.3 6.3 0 0 1-3.33.89c-1.01 0-1.93-.21-2.76-.63a4.48 4.48 0 0 1-1.9-1.8l.43-.5v7.44h-2.7Zm6.67-7.03a3.78 3.78 0 0 0 3.43-2.07c.36-.65.53-1.39.53-2.2 0-.82-.17-1.55-.53-2.19a3.78 3.78 0 0 0-3.43-2.06 3.86 3.86 0 0 0-3.45 2.06c-.34.64-.5 1.37-.5 2.19 0 .81.16 1.55.5 2.2.35.64.82 1.15 1.41 1.52.61.36 1.3.55 2.04.55Zm9.4 2.23v-12.98h2.72v12.98h-2.71Zm0-14.76v-3.12h2.72v3.12h-2.71Zm5.9 14.76v-12.98h2.58v2.61l-.24-.38c.3-.85.76-1.46 1.4-1.83.64-.38 1.4-.57 2.3-.57h.79v2.47h-1.13c-.89 0-1.62.28-2.18.84-.54.54-.82 1.33-.82 2.35v7.49h-2.7Zm12.58.29a5.6 5.6 0 0 1-2.33-.46 3.83 3.83 0 0 1-1.54-1.3 3.48 3.48 0 0 1-.55-1.96c0-.7.15-1.34.46-1.9.32-.56.8-1.03 1.46-1.41a7.16 7.16 0 0 1 2.47-.82l4.51-.74v2.13l-3.98.7c-.72.13-1.25.36-1.58.7-.34.31-.51.73-.51 1.24 0 .5.19.9.55 1.23.39.3.88.45 1.47.45.73 0 1.37-.16 1.92-.48a3.37 3.37 0 0 0 1.75-3.07v-3.34c0-.64-.24-1.16-.72-1.56a2.7 2.7 0 0 0-1.87-.62 3.27 3.27 0 0 0-3.07 2.02l-2.26-1.13c.24-.64.63-1.2 1.18-1.68.54-.5 1.17-.88 1.89-1.15a6.67 6.67 0 0 1 5.04.16 4.33 4.33 0 0 1 2.52 3.96v8.74h-2.59v-2.35l.55.07a5.12 5.12 0 0 1-2.78 2.26c-.59.2-1.26.3-1.99.3Zm15.36-.15a4.2 4.2 0 0 1-3.16-1.15c-.76-.77-1.13-1.85-1.13-3.24v-6.29h-2.28v-2.44h.36c.61 0 1.08-.18 1.41-.53.34-.35.51-.83.51-1.44v-1.01h2.71v2.98h2.95v2.44h-2.95v6.17c0 .45.07.83.22 1.15.14.3.37.55.69.72.32.16.74.24 1.25.24.13 0 .27 0 .43-.02l.46-.05v2.33l-.75.1a6.2 6.2 0 0 1-.72.04Zm4.11-.14v-12.98h2.72v12.98h-2.72Zm0-14.76v-3.12h2.72v3.12h-2.72Zm12.15 15.05a6.8 6.8 0 0 1-5.88-3.31 6.67 6.67 0 0 1-.91-3.48 6.59 6.59 0 0 1 3.36-5.88 6.72 6.72 0 0 1 3.43-.9 6.62 6.62 0 0 1 5.86 3.3c.61 1 .91 2.16.91 3.48a6.71 6.71 0 0 1-3.36 5.92 6.82 6.82 0 0 1-3.41.87Zm0-2.52a3.77 3.77 0 0 0 3.43-2.07c.36-.65.53-1.39.53-2.2a4.37 4.37 0 0 0-1.92-3.7 3.77 3.77 0 0 0-2.04-.55c-.75 0-1.43.18-2.04.55-.59.37-1.06.87-1.41 1.51a4.58 4.58 0 0 0-.51 2.19c0 .81.17 1.55.51 2.2.35.64.82 1.15 1.41 1.52.61.36 1.29.55 2.04.55Zm9.42 2.23v-12.98h2.59v2.54l-.31-.34a3.6 3.6 0 0 1 1.53-1.84 4.6 4.6 0 0 1 2.45-.65c.96 0 1.81.2 2.55.62.73.42 1.31 1 1.72 1.73.42.74.63 1.58.63 2.54v8.38h-2.69v-7.66c0-.65-.12-1.2-.36-1.65a2.42 2.42 0 0 0-1.03-1.06 2.87 2.87 0 0 0-1.49-.38 3 3 0 0 0-1.51.38c-.43.24-.77.6-1.01 1.06a3.56 3.56 0 0 0-.36 1.65v7.66h-2.71Z"/><path fill="#60A5FA" d="M700 238.8a1.5 1.5 0 1 0 0 3v-3Zm163.56 2.56a1.5 1.5 0 0 0 0-2.12l-9.54-9.54a1.5 1.5 0 1 0-2.13 2.12l8.49 8.49-8.49 8.48a1.5 1.5 0 1 0 2.13 2.12l9.54-9.54ZM700 241.8h162.5v-3H700v3Z"/><defs><linearGradient id="a" x1="0" x2="275" y1="1585.5" y2="1585.5" gradientUnits="userSpaceOnUse"><stop stop-color="#EFF6FF"/><stop offset="1" stop-color="#93C5FD"/></linearGradient><linearGradient id="b" x1="0" x2="275" y1="1770.5" y2="1770.5" gradientUnits="userSpaceOnUse"><stop stop-color="#EFF6FF"/><stop offset="1" stop-color="#93C5FD"/></linearGradient><linearGradient id="c" x1="0" x2="275" y1="1955.5" y2="1955.5" gradientUnits="userSpaceOnUse"><stop stop-color="#EFF6FF"/><stop offset="1" stop-color="#93C5FD"/></linearGradient><linearGradient id="d" x1="864" x2="1140" y1="1075.5" y2="1075.5" gradientUnits="userSpaceOnUse"><stop stop-color="#93C5FD"/><stop offset="1" stop-color="#EFF6FF"/></linearGradient><linearGradient id="e" x1="864" x2="1140" y1="1259.5" y2="1259.5" gradientUnits="userSpaceOnUse"><stop stop-color="#93C5FD"/><stop offset="1" stop-color="#EFF6FF"/></linearGradient><linearGradient id="f" x1="863" x2="1140" y1="1444.5" y2="1444.5" gradientUnits="userSpaceOnUse"><stop stop-color="#93C5FD"/><stop offset="1" stop-color="#EFF6FF"/></linearGradient><linearGradient id="g" x1="0" x2="275" y1="564.5" y2="564.5" gradientUnits="userSpaceOnUse"><stop stop-color="#EFF6FF"/><stop offset="1" stop-color="#93C5FD"/></linearGradient><linearGradient id="h" x1="0" x2="275" y1="749.5" y2="749.5" gradientUnits="userSpaceOnUse"><stop stop-color="#EFF6FF"/><stop offset="1" stop-color="#93C5FD"/></linearGradient><linearGradient id="i" x1="0" x2="275" y1="934.5" y2="934.5" gradientUnits="userSpaceOnUse"><stop stop-color="#EFF6FF"/><stop offset="1" stop-color="#93C5FD"/></linearGradient><linearGradient id="j" x1="864" x2="1140" y1="54.5" y2="54.5" gradientUnits="userSpaceOnUse"><stop stop-color="#93C5FD"/><stop offset="1" stop-color="#EFF6FF"/></linearGradient><linearGradient id="k" x1="864" x2="1140" y1="238.5" y2="238.5" gradientUnits="userSpaceOnUse"><stop stop-color="#93C5FD"/><stop offset="1" stop-color="#EFF6FF"/></linearGradient><linearGradient id="l" x1="863" x2="1140" y1="423.5" y2="423.5" gradientUnits="userSpaceOnUse"><stop stop-color="#93C5FD"/><stop offset="1" stop-color="#EFF6FF"/></linearGradient></defs></svg>