<svg xmlns="http://www.w3.org/2000/svg" width="1140" height="2000" fill="none" viewBox="0 0 1140 2578"><path fill="#fff" d="M568 220h2v8h-2z"/><path fill="#D1D5DB" d="M568 228h2v8h-2z"/><path fill="#fff" d="M568 236h2v8h-2z"/><path fill="#D1D5DB" d="M568 244h2v8h-2z"/><path fill="#fff" d="M568 252h2v8h-2z"/><path fill="#D1D5DB" d="M568 260h2v8h-2z"/><path fill="#fff" d="M568 268h2v8h-2z"/><path fill="#D1D5DB" d="M568 276h2v8h-2z"/><path fill="#fff" d="M568 284h2v8h-2z"/><path fill="#D1D5DB" d="M568 292h2v8h-2z"/><path fill="#fff" d="M568 300h2v8h-2z"/><path fill="#D1D5DB" d="M568 308h2v8h-2z"/><path fill="#fff" d="M568 316h2v8h-2z"/><path fill="#D1D5DB" d="M568 324h2v8h-2z"/><path fill="#fff" d="M568 332h2v8h-2z"/><path fill="#D1D5DB" d="M568 340h2v8h-2z"/><path fill="#fff" d="M568 348h2v8h-2z"/><path fill="#D1D5DB" d="M568 356h2v8h-2z"/><path fill="#fff" d="M568 364h2v8h-2z"/><path fill="#D1D5DB" d="M568 372h2v8h-2z"/><path fill="#fff" d="M568 380h2v8h-2z"/><path fill="#D1D5DB" d="M568 388h2v8h-2z"/><path fill="#fff" d="M568 396h2v8h-2z"/><path fill="#D1D5DB" d="M568 404h2v8h-2z"/><path fill="#fff" d="M568 412h2v8h-2z"/><path fill="#D1D5DB" d="M568 420h2v8h-2z"/><path fill="#fff" d="M568 428h2v8h-2z"/><path fill="#D1D5DB" d="M568 436h2v8h-2z"/><path fill="#fff" d="M568 444h2v8h-2z"/><path fill="#D1D5DB" d="M568 452h2v8h-2z"/><path fill="#fff" d="M568 460h2v8h-2z"/><path fill="#D1D5DB" d="M568 468h2v8h-2z"/><path fill="#fff" d="M568 476h2v8h-2z"/><path fill="#D1D5DB" d="M568 484h2v8h-2z"/><path fill="#fff" d="M568 492h2v8h-2z"/><path fill="#D1D5DB" d="M568 500h2v8h-2z"/><path fill="#fff" d="M568 508h2v8h-2z"/><path fill="#D1D5DB" d="M568 516h2v8h-2z"/><path fill="#fff" d="M568 524h2v8h-2z"/><path fill="#D1D5DB" d="M568 532h2v8h-2z"/><path fill="#fff" d="M568 540h2v8h-2z"/><path fill="#D1D5DB" d="M568 548h2v8h-2z"/><path fill="#fff" d="M568 556h2v8h-2z"/><path fill="#D1D5DB" d="M568 564h2v8h-2z"/><path fill="#fff" d="M568 572h2v8h-2z"/><path fill="#D1D5DB" d="M568 580h2v8h-2z"/><path fill="#fff" d="M568 588h2v8h-2z"/><path fill="#D1D5DB" d="M568 596h2v8h-2z"/><path fill="#fff" d="M568 604h2v8h-2z"/><path fill="#D1D5DB" d="M568 612h2v8h-2z"/><path fill="#fff" d="M568 620h2v8h-2z"/><path fill="#D1D5DB" d="M568 628h2v8h-2z"/><path fill="#fff" d="M568 636h2v8h-2z"/><path fill="#D1D5DB" d="M568 644h2v8h-2z"/><path fill="#fff" d="M568 652h2v8h-2z"/><path fill="#D1D5DB" d="M568 660h2v8h-2z"/><path fill="#fff" d="M568 668h2v8h-2z"/><path fill="#D1D5DB" d="M568 676h2v8h-2z"/><path fill="#fff" d="M568 684h2v8h-2z"/><path fill="#D1D5DB" d="M568 692h2v8h-2z"/><path fill="#fff" d="M568 700h2v8h-2z"/><path fill="#D1D5DB" d="M568 708h2v8h-2z"/><path fill="#fff" d="M568 716h2v8h-2z"/><path fill="#D1D5DB" d="M568 724h2v8h-2z"/><path fill="#fff" d="M568 732h2v8h-2z"/><path fill="#D1D5DB" d="M568 740h2v8h-2z"/><path fill="#fff" d="M568 748h2v8h-2z"/><path fill="#D1D5DB" d="M568 756h2v8h-2z"/><path fill="#fff" d="M568 764h2v8h-2z"/><path fill="#D1D5DB" d="M568 772h2v8h-2z"/><path fill="#fff" d="M568 780h2v8h-2z"/><path fill="#D1D5DB" d="M568 788h2v8h-2z"/><path fill="#fff" d="M568 796h2v8h-2z"/><path fill="#D1D5DB" d="M568 804h2v8h-2z"/><path fill="#fff" d="M568 812h2v8h-2z"/><path fill="#D1D5DB" d="M568 820h2v8h-2z"/><path fill="#fff" d="M568 828h2v8h-2z"/><path fill="#D1D5DB" d="M568 836h2v8h-2z"/><path fill="#fff" d="M568 844h2v8h-2z"/><path fill="#D1D5DB" d="M568 852h2v8h-2z"/><path fill="#fff" d="M568 860h2v8h-2z"/><path fill="#D1D5DB" d="M568 868h2v8h-2z"/><path fill="#fff" d="M568 876h2v8h-2z"/><path fill="#D1D5DB" d="M568 884h2v8h-2z"/><path fill="#fff" d="M568 892h2v8h-2z"/><path fill="#D1D5DB" d="M568 900h2v8h-2z"/><path fill="#fff" d="M568 908h2v8h-2z"/><path fill="#D1D5DB" d="M568 916h2v8h-2z"/><path fill="#fff" d="M568 924h2v8h-2z"/><path fill="#D1D5DB" d="M568 932h2v8h-2z"/><path fill="#fff" d="M568 940h2v8h-2z"/><path fill="#D1D5DB" d="M568 948h2v8h-2z"/><path fill="#fff" d="M568 956h2v8h-2z"/><path fill="#D1D5DB" d="M568 964h2v8h-2z"/><path fill="#fff" d="M568 972h2v8h-2z"/><path fill="#D1D5DB" d="M568 980h2v8h-2z"/><path fill="#fff" d="M568 988h2v8h-2z"/><path fill="#D1D5DB" d="M568 996h2v8h-2z"/><path fill="#fff" d="M568 1004h2v8h-2z"/><path fill="#D1D5DB" d="M568 1012h2v8h-2z"/><path fill="#fff" d="M568 1020h2v8h-2z"/><path fill="#D1D5DB" d="M568 1028h2v8h-2z"/><path fill="#fff" d="M568 1036h2v8h-2z"/><path fill="#D1D5DB" d="M568 1044h2v8h-2z"/><path fill="#fff" d="M568 1052h2v8h-2z"/><path fill="#D1D5DB" d="M568 1060h2v8h-2z"/><path fill="#fff" d="M568 1068h2v8h-2z"/><path fill="#D1D5DB" d="M568 1076h2v8h-2z"/><path fill="#fff" d="M568 1084h2v8h-2z"/><path fill="#D1D5DB" d="M568 1092h2v8h-2z"/><path fill="#fff" d="M568 1100h2v8h-2z"/><path fill="#D1D5DB" d="M568 1108h2v8h-2z"/><path fill="#fff" d="M568 1116h2v8h-2z"/><path fill="#D1D5DB" d="M568 1124h2v8h-2z"/><path fill="#fff" d="M568 1132h2v8h-2z"/><path fill="#D1D5DB" d="M568 1140h2v8h-2z"/><path fill="#fff" d="M568 1148h2v8h-2z"/><path fill="#D1D5DB" d="M568 1156h2v8h-2z"/><path fill="#fff" d="M568 1164h2v8h-2z"/><path fill="#D1D5DB" d="M568 1172h2v8h-2z"/><path fill="#fff" d="M568 1180h2v8h-2z"/><path fill="#D1D5DB" d="M568 1188h2v8h-2z"/><path fill="#fff" d="M568 1196h2v8h-2z"/><path fill="#D1D5DB" d="M568 1204h2v8h-2z"/><path fill="#fff" d="M568 1212h2v8h-2z"/><path fill="#D1D5DB" d="M568 1220h2v8h-2z"/><path fill="#fff" d="M568 1228h2v8h-2z"/><path fill="#D1D5DB" d="M568 1236h2v8h-2z"/><path fill="#fff" d="M568 1244h2v8h-2z"/><path fill="#D1D5DB" d="M568 1252h2v8h-2z"/><path fill="#fff" d="M568 1260h2v8h-2z"/><path fill="#D1D5DB" d="M568 1268h2v8h-2z"/><path fill="#fff" d="M568 1276h2v8h-2z"/><path fill="#D1D5DB" d="M568 1284h2v8h-2z"/><path fill="#fff" d="M568 1292h2v8h-2z"/><path fill="#D1D5DB" d="M568 1300h2v8h-2z"/><path fill="#fff" d="M568 1308h2v8h-2z"/><path fill="#D1D5DB" d="M568 1316h2v8h-2z"/><path fill="#fff" d="M568 1324h2v8h-2z"/><path fill="#D1D5DB" d="M568 1332h2v8h-2z"/><path fill="#fff" d="M568 1340h2v8h-2z"/><path fill="#D1D5DB" d="M568 1348h2v8h-2z"/><path fill="#fff" d="M568 1356h2v8h-2z"/><path fill="#D1D5DB" d="M568 1364h2v8h-2z"/><path fill="#fff" d="M568 1372h2v8h-2z"/><path fill="#D1D5DB" d="M568 1380h2v8h-2z"/><path fill="#fff" d="M568 1388h2v8h-2z"/><path fill="#D1D5DB" d="M568 1396h2v8h-2z"/><path fill="#fff" d="M568 1404h2v8h-2z"/><path fill="#D1D5DB" d="M568 1412h2v8h-2z"/><path fill="#fff" d="M568 1420h2v8h-2z"/><path fill="#D1D5DB" d="M568 1428h2v8h-2z"/><path fill="#fff" d="M568 1436h2v8h-2z"/><path fill="#D1D5DB" d="M568 1444h2v8h-2z"/><path fill="#fff" d="M568 1452h2v8h-2z"/><path fill="#D1D5DB" d="M568 1460h2v8h-2z"/><path fill="#fff" d="M568 1468h2v8h-2z"/><path fill="#D1D5DB" d="M568 1476h2v8h-2z"/><path fill="#fff" d="M568 1484h2v8h-2z"/><path fill="#D1D5DB" d="M568 1492h2v8h-2z"/><path fill="#fff" d="M568 1500h2v8h-2z"/><path fill="#D1D5DB" d="M568 1508h2v8h-2z"/><path fill="#fff" d="M568 1516h2v8h-2z"/><path fill="#D1D5DB" d="M568 1524h2v8h-2z"/><path fill="#fff" d="M568 1532h2v8h-2z"/><path fill="#D1D5DB" d="M568 1540h2v8h-2z"/><path fill="#fff" d="M568 1548h2v8h-2z"/><path fill="#D1D5DB" d="M568 1556h2v8h-2z"/><path fill="#fff" d="M568 1564h2v8h-2z"/><path fill="#D1D5DB" d="M568 1572h2v8h-2z"/><path fill="#fff" d="M568 1580h2v8h-2z"/><path fill="#D1D5DB" d="M568 1588h2v8h-2z"/><path fill="#fff" d="M568 1596h2v8h-2z"/><path fill="#D1D5DB" d="M568 1604h2v8h-2z"/><path fill="#fff" d="M568 1612h2v8h-2z"/><path fill="#D1D5DB" d="M568 1620h2v8h-2z"/><path fill="#fff" d="M568 1628h2v8h-2z"/><path fill="#D1D5DB" d="M568 1636h2v8h-2z"/><path fill="#fff" d="M568 1644h2v8h-2z"/><path fill="#D1D5DB" d="M568 1652h2v8h-2z"/><path fill="#fff" d="M568 1660h2v8h-2z"/><path fill="#D1D5DB" d="M568 1668h2v8h-2z"/><path fill="#fff" d="M568 1676h2v8h-2z"/><path fill="#D1D5DB" d="M568 1684h2v8h-2z"/><path fill="#fff" d="M568 1692h2v8h-2z"/><path fill="#D1D5DB" d="M568 1700h2v8h-2z"/><path fill="#fff" d="M568 1708h2v8h-2z"/><path fill="#D1D5DB" d="M568 1716h2v8h-2z"/><path fill="#fff" d="M568 1724h2v8h-2z"/><path fill="#D1D5DB" d="M568 1732h2v8h-2z"/><path fill="#fff" d="M568 1740h2v8h-2z"/><path fill="#D1D5DB" d="M568 1748h2v8h-2z"/><path fill="#fff" d="M568 1756h2v8h-2z"/><path fill="#D1D5DB" d="M568 1764h2v8h-2z"/><path fill="#fff" d="M568 1772h2v8h-2z"/><path fill="#D1D5DB" d="M568 1780h2v8h-2z"/><path fill="#fff" d="M568 1788h2v8h-2z"/><path fill="#D1D5DB" d="M568 1796h2v8h-2z"/><path fill="#fff" d="M568 1804h2v8h-2z"/><path fill="#D1D5DB" d="M568 1812h2v8h-2z"/><path fill="#fff" d="M568 1820h2v8h-2z"/><path fill="#D1D5DB" d="M568 1828h2v8h-2z"/><path fill="#fff" d="M568 1836h2v8h-2z"/><path fill="#D1D5DB" d="M568 1844h2v8h-2z"/><path fill="#fff" d="M568 1852h2v8h-2z"/><path fill="#D1D5DB" d="M568 1860h2v8h-2z"/><path fill="#fff" d="M568 1868h2v8h-2z"/><path fill="#D1D5DB" d="M568 1876h2v8h-2z"/><path fill="#fff" d="M568 1884h2v8h-2z"/><path fill="#D1D5DB" d="M568 1892h2v8h-2z"/><path fill="#fff" d="M568 1900h2v8h-2z"/><path fill="#D1D5DB" d="M568 1908h2v8h-2z"/><path fill="#fff" d="M568 1916h2v8h-2z"/><path fill="#D1D5DB" d="M568 1924h2v8h-2z"/><path fill="#fff" d="M568 1932h2v8h-2z"/><path fill="#D1D5DB" d="M568 1940h2v8h-2z"/><path fill="#fff" d="M568 1948h2v8h-2z"/><path fill="#D1D5DB" d="M568 1956h2v8h-2z"/><path fill="#fff" d="M568 1964h2v8h-2z"/><path fill="#D1D5DB" d="M568 1972h2v8h-2z"/><path fill="#fff" d="M568 1980h2v8h-2z"/><path fill="#D1D5DB" d="M568 1988h2v8h-2z"/><path fill="#fff" d="M568 1996h2v8h-2z"/><path fill="#D1D5DB" d="M568 2004h2v8h-2z"/><path fill="#fff" d="M568 2012h2v8h-2z"/><path fill="#D1D5DB" d="M568 2020h2v8h-2z"/><path fill="#fff" d="M568 2028h2v8h-2z"/><path fill="#D1D5DB" d="M568 2036h2v8h-2z"/><path fill="#fff" d="M568 2044h2v8h-2z"/><path fill="#D1D5DB" d="M568 2052h2v8h-2z"/><path fill="#fff" d="M568 2060h2v8h-2z"/><path fill="#D1D5DB" d="M568 2068h2v8h-2z"/><path fill="#fff" d="M568 2076h2v8h-2z"/><path fill="#D1D5DB" d="M568 2084h2v8h-2z"/><path fill="#fff" d="M568 2092h2v8h-2z"/><path fill="#D1D5DB" d="M568 2100h2v8h-2z"/><path fill="#fff" d="M568 2108h2v8h-2z"/><path fill="#D1D5DB" d="M568 2116h2v8h-2z"/><path fill="#fff" d="M568 2124h2v8h-2z"/><path fill="#D1D5DB" d="M568 2132h2v8h-2z"/><path fill="#fff" d="M568 2140h2v8h-2z"/><path fill="#D1D5DB" d="M568 2148h2v8h-2z"/><path fill="#fff" d="M568 2156h2v8h-2z"/><path fill="#D1D5DB" d="M568 2164h2v8h-2z"/><path fill="#fff" d="M568 2172h2v8h-2z"/><path fill="#D1D5DB" d="M568 2180h2v8h-2z"/><path fill="#fff" d="M568 2188h2v8h-2z"/><path fill="#D1D5DB" d="M568 2196h2v8h-2z"/><path fill="#fff" d="M568 2204h2v8h-2z"/><path fill="#D1D5DB" d="M568 2212h2v8h-2z"/><path fill="#fff" d="M568 2220h2v8h-2z"/><path fill="#D1D5DB" d="M568 2228h2v8h-2z"/><path fill="#fff" d="M568 2236h2v8h-2z"/><path fill="#D1D5DB" d="M568 2244h2v8h-2z"/><path fill="#fff" d="M568 2252h2v8h-2z"/><path fill="#D1D5DB" d="M568 2260h2v8h-2z"/><path fill="#fff" d="M568 2268h2v8h-2z"/><path fill="#D1D5DB" d="M568 2276h2v8h-2z"/><path fill="#fff" d="M568 2284h2v8h-2z"/><path fill="#D1D5DB" d="M568 2292h2v8h-2z"/><rect width="238.5" height="56.5" x="444.8" y="1742.8" fill="#DBEAFE" rx="11.3"/><rect width="238.5" height="56.5" x="444.8" y="1742.8" stroke="#4B5563" stroke-dasharray="8 8" stroke-width="1.5" rx="11.3"/><path fill="#222" d="M534.3 1781.3a7.3 7.3 0 0 1-7-5l2.4-1c.4 1.2 1 2 1.9 2.6.8.6 1.8.9 2.9.9.6 0 1.2-.1 1.6-.3.5-.2.9-.5 1.1-.9.3-.3.5-.8.5-1.2 0-.7-.2-1.2-.6-1.6-.4-.4-1-.7-1.6-.9l-3.4-1c-1.3-.5-2.4-1.1-3-2-.8-.8-1.1-1.8-1.1-3 0-1 .2-1.9.7-2.6a5 5 0 0 1 2-1.8 7.1 7.1 0 0 1 8.2 1.5 6 6 0 0 1 1.4 2.2l-2.3 1a4.4 4.4 0 0 0-4.2-2.9c-.6 0-1.1.1-1.6.3-.4.2-.8.5-1 .9-.3.3-.4.8-.4 1.3s.2 1 .5 1.5c.4.5 1 .8 1.7 1l3.1 1c1.5.4 2.5 1 3.3 1.9.7.8 1 1.8 1 3 0 1-.2 1.8-.8 2.6-.5.8-1.2 1.4-2 1.8-1 .5-2 .7-3.3.7Zm14.7-.2c-1.4 0-2.4-.3-3.2-1.1a4.4 4.4 0 0 1-1.1-3.3v-6.2h-2.3v-2.5h.4c.6 0 1-.2 1.4-.5.3-.4.5-.8.5-1.5v-1h2.7v3h3v2.5h-3v6.1c0 .5 0 .9.2 1.2.1.3.4.5.7.7.3.2.7.2 1.2.2h.9v2.3l-.7.1h-.7Zm10 .2c-1.4 0-2.5-.3-3.5-.9-1-.6-1.8-1.4-2.3-2.5-.6-1-.9-2.2-.9-3.4a7 7 0 0 1 .9-3.5 6.4 6.4 0 0 1 5.5-3.3c1 0 1.9.2 2.6.5.8.4 1.5.8 2 1.4a6.6 6.6 0 0 1 1.5 5.7h-10.3v-2.2h8.8l-1.3 1a3.4 3.4 0 0 0-1.4-3.5c-.5-.4-1.2-.6-1.9-.6a3.4 3.4 0 0 0-3.2 2.1c-.3.7-.4 1.5-.4 2.4 0 .9 0 1.6.4 2.3.3.7.8 1.2 1.4 1.5a4 4 0 0 0 2 .6c.9 0 1.5-.2 2-.5.6-.4 1-.9 1.4-1.4l2.2 1c-.3.7-.7 1.2-1.2 1.7a6 6 0 0 1-2 1.2 7 7 0 0 1-2.4.4Zm8.6 4.5V1768h2.6v2.7l-.4-.6a5 5 0 0 1 2-1.8 6 6 0 0 1 2.7-.6c1.2 0 2.3.3 3.3 1 1 .5 1.8 1.3 2.3 2.3a7 7 0 0 1 .9 3.5 6.9 6.9 0 0 1-3.2 5.9c-1 .6-2 .9-3.3.9-1 0-2-.2-2.8-.6-.8-.5-1.4-1-1.9-1.8l.5-.5v7.4h-2.7Zm6.6-7c.8 0 1.5-.2 2-.6.7-.4 1.1-.9 1.5-1.5.3-.7.5-1.4.5-2.2 0-.8-.2-1.5-.5-2.2-.4-.6-.8-1.1-1.4-1.5-.6-.4-1.3-.5-2-.5a3.8 3.8 0 0 0-3.5 2c-.4.7-.5 1.4-.5 2.2 0 .8.1 1.5.5 2.2a4 4 0 0 0 1.4 1.5 4 4 0 0 0 2 .6Zm21.5 2.2v-4h-8.5v-2.4l8.4-11.5h2.8v11.5h2.5v2.4h-2.5v4h-2.7Zm-6.4-5.3-.5-1h7v-9.3l.7.2-7.2 10Z"/><path fill="#60A5FA" d="M443.7 1773a1.5 1.5 0 1 0 0-3v3Zm-167.8-187c-.5.5-.5 1.5 0 2l9.6 9.6c.6.6 1.5.6 2.1 0 .6-.6.6-1.5 0-2.1l-8.5-8.5 8.5-8.5a1.5 1.5 0 1 0-2.1-2.1l-9.6 9.5Zm167.8 184h-12v3h12v-3Zm-34.5-22.6V1611h-3v136.4h3Zm-25.5-161.9H277v3h106.7v-3Zm25.5 25.5c0-14-11.4-25.5-25.5-25.5v3c12.4 0 22.5 10 22.5 22.5h3Zm22.5 159c-12.4 0-22.5-10.1-22.5-22.6h-3c0 14.1 11.4 25.5 25.5 25.5v-3Z"/><path fill="#60A5FA" d="M443.7 1770.5a1.5 1.5 0 1 1 0 3v-3Zm-167.8 187c-.5-.6-.5-1.5 0-2.1l9.6-9.6c.6-.5 1.5-.5 2.1 0 .6.6.6 1.6 0 2.2l-8.5 8.4 8.5 8.5c.6.6.6 1.6 0 2.1-.6.6-1.5.6-2.1 0l-9.6-9.5Zm167.8-184h-12v-3h12v3Zm-34.5 22.5v136.4h-3V1796h3Zm-25.5 162H277v-3h106.7v3Zm25.5-25.6c0 14.1-11.4 25.5-25.5 25.5v-3c12.4 0 22.5-10 22.5-22.5h3Zm22.5-158.9c-12.4 0-22.5 10-22.5 22.5h-3c0-14 11.4-25.5 25.5-25.5v3Z"/><circle cx="444" cy="1771" r="6.5" fill="#EFF6FF" stroke="#60A5FA" stroke-width="3"/><path fill="#60A5FA" d="M432 1771.6c.8 0 1.5-.6 1.5-1.5 0-.8-.7-1.5-1.5-1.5v3Zm-156-2.5c-.6.6-.6 1.5 0 2l9.5 9.6c.6.6 1.6.6 2.2 0 .6-.5.6-1.5 0-2l-8.5-8.6 8.5-8.5a1.5 1.5 0 1 0-2.2-2l-9.5 9.5Zm156-.5H277v3h155v-3Z"/><rect width="275" height="69" y="1551" fill="url(#a)" rx="20"/><path fill="#000" d="M57.9 1595.8a7.3 7.3 0 0 1-7-5l2.3-1c.5 1.2 1.1 2 2 2.6.8.6 1.7.9 2.8.9.7 0 1.2-.1 1.7-.3.5-.2.8-.5 1.1-.9.3-.3.4-.8.4-1.2 0-.7-.2-1.2-.5-1.6-.4-.4-1-.7-1.7-.9l-3.3-1c-1.4-.5-2.4-1.1-3.1-2-.7-.8-1-1.8-1-3 0-1 .2-1.9.7-2.6a5 5 0 0 1 2-1.8c.9-.5 1.9-.7 3-.7a7.1 7.1 0 0 1 5.2 2.1 6 6 0 0 1 1.4 2.3l-2.4 1a4.4 4.4 0 0 0-4.2-2.9c-.6 0-1 .1-1.5.3-.5.2-.8.5-1 .9-.3.3-.5.8-.5 1.3s.2 1 .6 1.5c.4.5 1 .8 1.7 1l3.1 1c1.4.4 2.5 1 3.2 1.9.7.8 1 1.8 1 3 0 1-.2 1.8-.7 2.6-.5.8-1.2 1.4-2.1 1.8-1 .5-2 .7-3.2.7Zm10.2 5a5.2 5.2 0 0 1-1.8-.3v-2.4l.7.2h.7c.8 0 1.4-.1 1.7-.5.4-.3.7-.8 1-1.5l.9-2-.1 2.3-5.6-14h2.9l4.1 10.7h-1l4.2-10.8h3L73 1597c-.3.8-.7 1.5-1.2 2-.4.6-1 1-1.6 1.4-.6.3-1.3.5-2.1.5Zm17.3-5c-1.4 0-2.5-.3-3.5-1-1-.6-1.7-1.5-2.1-2.6l2-1c.4.7.9 1.3 1.5 1.7.6.5 1.3.7 2 .7s1.2-.2 1.6-.4c.4-.3.6-.7.6-1.2 0-.3 0-.6-.2-.8a2 2 0 0 0-.7-.5l-.8-.3-2-.6c-1.2-.3-2-.8-2.6-1.4-.5-.7-.8-1.4-.8-2.3 0-.8.2-1.4.6-2 .4-.6 1-1 1.7-1.4.7-.3 1.5-.5 2.4-.5 1.1 0 2.2.3 3.1 1 1 .5 1.6 1.3 2 2.3l-2 1c-.3-.6-.8-1.1-1.3-1.5-.6-.3-1.2-.5-1.9-.5-.6 0-1 .1-1.4.4-.3.3-.5.6-.5 1.1 0 .3 0 .6.2.8l.7.4c.2.2.5.3.7.3l2.2.7a5 5 0 0 1 2.4 1.4c.6.6.9 1.4.9 2.3 0 .8-.2 1.4-.6 2-.4.6-1 1-1.7 1.4-.7.3-1.6.5-2.5.5Zm13-.2c-1.3 0-2.3-.3-3.1-1.1a4.4 4.4 0 0 1-1.1-3.3v-6.2h-2.3v-2.5h.4c.6 0 1-.2 1.4-.5.3-.4.5-.8.5-1.5v-1h2.7v3h3v2.5h-3v6.1c0 .5 0 .9.2 1.2.1.3.4.5.7.7.3.2.7.2 1.2.2h.9v2.3l-.7.1h-.7Zm10 .2a6.4 6.4 0 0 1-5.8-3.3c-.5-1-.8-2.3-.8-3.5a7 7 0 0 1 .9-3.5 6.4 6.4 0 0 1 5.5-3.3c1 0 1.9.2 2.6.5.8.4 1.5.8 2 1.4a6.6 6.6 0 0 1 1.5 5.7H104v-2.2h8.8l-1.3 1a3.4 3.4 0 0 0-1.4-3.5c-.5-.4-1.2-.6-1.9-.6a3.4 3.4 0 0 0-3.2 2.1c-.3.7-.4 1.5-.3 2.4-.1.9 0 1.6.3 2.3.3.7.8 1.2 1.4 1.5a4 4 0 0 0 2 .6c.8 0 1.5-.2 2-.5.6-.4 1-.9 1.4-1.4l2.2 1c-.3.7-.7 1.2-1.2 1.7a6 6 0 0 1-2 1.2 7 7 0 0 1-2.4.4Zm8.7-.3v-13h2.6v2.8l-.4-.4c.3-.9.8-1.6 1.5-2 .7-.5 1.6-.7 2.5-.7 1 0 2 .3 2.7.9.9.5 1.4 1.2 1.7 2.2h-.8c.4-1 1-1.8 1.8-2.3.8-.5 1.7-.8 2.7-.8a4.8 4.8 0 0 1 4.2 2.4c.4.7.6 1.6.6 2.5v8.4h-2.7v-7.7c0-.6-.1-1.2-.4-1.6-.2-.5-.5-.8-1-1-.3-.3-.8-.5-1.3-.5-.6 0-1 .2-1.5.4l-1 1c-.2.6-.3 1.1-.3 1.7v7.7h-2.7v-7.7c0-.6-.1-1.2-.4-1.6-.2-.5-.5-.8-1-1-.3-.3-.8-.5-1.4-.5-.5 0-1 .2-1.4.4l-1 1c-.2.6-.3 1.1-.3 1.7v7.7H117Zm29.6 0v-15.4H142v-2.5h12.2v2.5h-4.6v15.4h-2.9Zm13.8.3c-1.3 0-2.5-.3-3.5-.9-1-.6-1.7-1.4-2.3-2.5-.5-1-.8-2.2-.8-3.4a7 7 0 0 1 .8-3.5 6.4 6.4 0 0 1 5.6-3.3c1 0 1.8.2 2.6.5.8.4 1.4.8 2 1.4.5.6.9 1.3 1.1 2a6.6 6.6 0 0 1 .4 3.7H156v-2.2h8.8l-1.3 1a3.4 3.4 0 0 0-1.3-3.5c-.6-.4-1.2-.6-2-.6a3.4 3.4 0 0 0-3.1 2.1c-.3.7-.5 1.5-.4 2.4 0 .9 0 1.6.4 2.3.3.7.8 1.2 1.4 1.5a4 4 0 0 0 2 .6c.8 0 1.5-.2 2-.5.6-.4 1-.9 1.3-1.4l2.2 1c-.2.7-.6 1.2-1.2 1.7a6 6 0 0 1-1.9 1.2 7 7 0 0 1-2.4.4Zm13.4 0c-1.3 0-2.5-.3-3.5-1-1-.6-1.7-1.5-2-2.6l2-1c.4.7.8 1.3 1.5 1.7.6.5 1.3.7 2 .7s1.2-.2 1.6-.4c.4-.3.6-.7.6-1.2 0-.3-.1-.6-.3-.8a2 2 0 0 0-.7-.5l-.7-.3-2-.6c-1.2-.3-2-.8-2.6-1.4-.6-.7-.8-1.4-.8-2.3 0-.8.2-1.4.6-2 .4-.6 1-1 1.6-1.4.7-.3 1.5-.5 2.4-.5 1.2 0 2.2.3 3.2 1 .9.5 1.6 1.3 2 2.3l-2.1 1c-.3-.6-.7-1.1-1.3-1.5-.5-.3-1.1-.5-1.8-.5-.6 0-1 .1-1.4.4-.4.3-.6.6-.6 1.1 0 .3.1.6.3.8.1.2.3.3.6.4.3.2.5.3.8.3l2.1.7a5 5 0 0 1 2.5 1.4c.6.6.8 1.4.8 2.3 0 .8-.2 1.4-.6 2-.4.6-1 1-1.7 1.4-.7.3-1.5.5-2.5.5Zm13.1-.2c-1.3 0-2.4-.3-3.2-1.1a4.4 4.4 0 0 1-1-3.3v-6.2h-2.4v-2.5h.4c.6 0 1-.2 1.4-.5.4-.4.5-.8.5-1.5v-1h2.7v3h3v2.5h-3v6.1l.2 1.2.7.7c.4.2.8.2 1.3.2h.9v2.3l-.8.1h-.7Zm4.1-.1v-13h2.7v13h-2.7Zm0-14.8v-3h2.7v3h-2.7Zm6 14.8v-13h2.5v2.6l-.3-.4c.3-.8.8-1.4 1.5-1.8.7-.5 1.5-.7 2.5-.7s1.8.2 2.5.6a5 5 0 0 1 2.4 4.3v8.4h-2.7v-7.7c0-.6-.1-1.2-.4-1.6-.2-.5-.6-.8-1-1a3 3 0 0 0-1.5-.5 3 3 0 0 0-1.5.4c-.4.3-.8.6-1 1-.3.6-.4 1.1-.4 1.7v7.7H197Zm20.2 5.3c-1 0-1.8-.2-2.6-.5a6 6 0 0 1-2-1.3 5 5 0 0 1-1.3-1.8l2.5-1a3 3 0 0 0 1.2 1.5 4 4 0 0 0 2.2.6c.7 0 1.3-.2 1.9-.5a3 3 0 0 0 1.3-1.1c.3-.5.4-1.1.4-1.8v-3l.5.6c-.4.9-1 1.5-1.9 2a6.3 6.3 0 0 1-8.2-2.5c-.5-1-.8-2.2-.8-3.4 0-1.2.3-2.3.9-3.3a6.2 6.2 0 0 1 8.1-2.5 5 5 0 0 1 2 1.9l-.4.7v-2.9h2.5v12.4c0 1.1-.2 2.1-.8 3-.5.9-1.3 1.6-2.2 2.1-1 .5-2 .8-3.3.8Zm-.1-8.3a3.6 3.6 0 0 0 3.2-1.8 4 4 0 0 0 .5-2 4 4 0 0 0-1.8-3.4c-.6-.4-1.2-.5-2-.5-.6 0-1.3.1-1.9.5-.6.3-1 .8-1.3 1.4a4 4 0 0 0-.5 2 3.9 3.9 0 0 0 1.8 3.4c.6.3 1.3.4 2 .4Z"/><rect width="275" height="69" y="1736" fill="url(#b)" rx="20"/><path fill="#000" d="M54.1 1780.5v-17.9h2.7l6.7 9.3h-1.3l6.6-9.3h2.6v17.9h-2.8V1766l1 .2-6.7 9.3h-.3l-6.6-9.3 1-.2v14.5H54Zm24.6.3c-.8 0-1.6-.2-2.3-.5-.6-.3-1.2-.7-1.5-1.3-.4-.5-.6-1.2-.6-2 0-.6.2-1.3.5-1.8.3-.6.8-1 1.4-1.4a7 7 0 0 1 2.5-.9l4.5-.7v2.1l-4 .7a3 3 0 0 0-1.5.7c-.4.3-.5.8-.5 1.3s.1.9.5 1.2c.4.3.9.5 1.5.5.7 0 1.3-.2 1.9-.5a3.4 3.4 0 0 0 1.7-3.1v-3.3a2 2 0 0 0-.7-1.6c-.4-.4-1-.6-1.8-.6s-1.4.2-2 .6c-.5.3-.9.8-1.1 1.4l-2.3-1.1c.3-.7.7-1.2 1.2-1.7s1.2-.9 1.9-1.2c.7-.2 1.5-.4 2.3-.4 1 0 2 .2 2.7.6a4.4 4.4 0 0 1 2.6 4v8.7H83v-2.3h.5a5.2 5.2 0 0 1-2.8 2.3c-.6.2-1.2.3-2 .3Zm10-.3v-13h2.6v2.6l-.3-.4c.3-.8.8-1.4 1.5-1.8.7-.5 1.6-.7 2.5-.7 1 0 1.8.2 2.5.6.8.5 1.3 1 1.8 1.8.4.7.6 1.6.6 2.5v8.4h-2.7v-7.7c0-.6-.1-1.2-.4-1.6-.2-.5-.5-.8-1-1a3 3 0 0 0-1.5-.5 3 3 0 0 0-1.5.4c-.4.3-.8.6-1 1-.2.6-.4 1.1-.4 1.7v7.7h-2.7Zm18.7.3a5 5 0 0 1-2.5-.7c-.8-.4-1.4-1-1.8-1.8a6 6 0 0 1-.6-2.8v-8h2.7v7.8c0 .6.2 1.1.4 1.5.2.5.6.9 1 1.1.4.3 1 .4 1.5.4.6 0 1-.2 1.5-.4.4-.3.8-.6 1-1.1.3-.5.4-1 .4-1.6v-7.7h2.7v13H111v-2.5l.3.3c-.3.8-.8 1.4-1.5 1.8-.7.5-1.5.7-2.5.7Zm13.3 0c-.8 0-1.6-.2-2.3-.5-.6-.3-1.2-.7-1.5-1.3-.4-.5-.6-1.2-.6-2 0-.6.2-1.3.5-1.8.3-.6.8-1 1.4-1.4a7 7 0 0 1 2.5-.9l4.5-.7v2.1l-4 .7a3 3 0 0 0-1.5.7c-.4.3-.5.8-.5 1.3s.1.9.5 1.2c.4.3.9.5 1.5.5.7 0 1.3-.2 1.9-.5a3.4 3.4 0 0 0 1.7-3.1v-3.3a2 2 0 0 0-.7-1.6c-.4-.4-1-.6-1.8-.6s-1.4.2-2 .6c-.5.3-.9.8-1.1 1.4l-2.3-1.1c.3-.7.7-1.2 1.2-1.7s1.2-.9 1.9-1.2c.7-.2 1.5-.4 2.3-.4 1 0 2 .2 2.7.6a4.4 4.4 0 0 1 2.6 4v8.7H125v-2.3h.5a5.2 5.2 0 0 1-2.8 2.3c-.6.2-1.2.3-2 .3Zm10-.3v-18.2h2.7v18.2h-2.7Zm13.5 0v-15.4h-4.7v-2.5h12.2v2.5H147v15.4h-2.8Zm13.8.3c-1.3 0-2.5-.3-3.5-.9-1-.6-1.7-1.4-2.3-2.5-.6-1-.8-2.2-.8-3.4a7 7 0 0 1 .8-3.5 6.4 6.4 0 0 1 5.6-3.3c1 0 1.8.2 2.6.5.8.4 1.4.8 2 1.4.5.6.9 1.3 1.1 2a6.6 6.6 0 0 1 .3 3.7h-10.3v-2.2h8.8l-1.3 1a3.4 3.4 0 0 0-1.4-3.5c-.5-.4-1.1-.6-1.8-.6a3.4 3.4 0 0 0-3.2 2.1c-.3.7-.5 1.5-.4 2.4 0 .9 0 1.6.4 2.3.3.7.8 1.2 1.3 1.5a4 4 0 0 0 2.1.6c.8 0 1.5-.2 2-.5.6-.4 1-.9 1.3-1.4l2.2 1c-.2.7-.6 1.2-1.2 1.7a6 6 0 0 1-1.9 1.2 7 7 0 0 1-2.4.4Zm13.4 0c-1.3 0-2.5-.3-3.5-1-1-.6-1.7-1.5-2-2.6l2-1c.4.7.8 1.3 1.4 1.7.7.5 1.4.7 2.1.7.7 0 1.2-.2 1.6-.4.4-.3.6-.7.6-1.2 0-.3-.1-.6-.3-.8a2 2 0 0 0-.7-.5l-.8-.3-2-.6c-1.1-.3-2-.8-2.5-1.4-.6-.7-.8-1.4-.8-2.3 0-.8.2-1.4.6-2 .4-.6 1-1 1.6-1.4.7-.3 1.5-.5 2.4-.5 1.2 0 2.2.3 3.2 1 .9.5 1.6 1.3 2 2.3l-2.2 1c-.2-.6-.6-1.1-1.2-1.5-.5-.3-1.1-.5-1.8-.5-.6 0-1 .1-1.4.4-.4.3-.6.6-.6 1.1 0 .3.1.6.3.8.1.2.3.3.6.4.3.2.5.3.8.3l2.1.7a5 5 0 0 1 2.5 1.4c.5.6.8 1.4.8 2.3 0 .8-.2 1.4-.6 2-.4.6-1 1-1.7 1.4-.7.3-1.5.5-2.5.5Zm13.1-.2c-1.4 0-2.4-.3-3.2-1.1a4.4 4.4 0 0 1-1-3.3v-6.2h-2.4v-2.5h.4c.6 0 1-.2 1.4-.5.3-.4.5-.8.5-1.5v-1h2.7v3h3v2.5h-3v6.1l.2 1.2.7.7c.4.2.8.2 1.3.2h.9v2.3l-.8.1h-.7Zm4.1-.1v-13h2.7v13h-2.7Zm0-14.8v-3h2.7v3h-2.7Zm5.9 14.8v-13h2.6v2.6l-.3-.4c.3-.8.8-1.4 1.5-1.8.7-.5 1.5-.7 2.5-.7s1.8.2 2.5.6c.7.5 1.3 1 1.7 1.8.5.7.7 1.6.7 2.5v8.4H203v-7.7c0-.6-.1-1.2-.4-1.6-.2-.5-.6-.8-1-1a3 3 0 0 0-1.5-.5 3 3 0 0 0-1.5.4c-.4.3-.8.6-1 1-.3.6-.4 1.1-.4 1.7v7.7h-2.7Zm20.3 5.3c-1 0-1.8-.2-2.6-.5a6 6 0 0 1-2-1.3 5 5 0 0 1-1.3-1.8l2.4-1a3 3 0 0 0 1.3 1.5 4 4 0 0 0 2.2.6c.7 0 1.3-.2 1.9-.5a3 3 0 0 0 1.2-1.1c.4-.5.5-1.1.5-1.8v-3l.5.6c-.4.9-1 1.5-1.9 2a6.3 6.3 0 0 1-8.2-2.5c-.5-1-.8-2.2-.8-3.4 0-1.2.3-2.3.9-3.3a6.2 6.2 0 0 1 8.1-2.5 5 5 0 0 1 2 1.9l-.5.7v-2.9h2.6v12.4c0 1.1-.3 2.1-.8 3-.5.9-1.3 1.6-2.2 2.1-1 .5-2 .8-3.3.8Zm-.1-8.3a3.6 3.6 0 0 0 3.2-1.8 4 4 0 0 0 .5-2 4 4 0 0 0-1.8-3.4c-.6-.4-1.2-.5-2-.5-.7 0-1.3.1-1.9.5-.6.3-1 .8-1.4 1.4a4 4 0 0 0-.4 2c0 .7.1 1.3.4 2 .4.5.8 1 1.4 1.3.6.4 1.2.5 2 .5Z"/><rect width="275" height="69" y="1921" fill="url(#c)" rx="20"/><path fill="#000" d="m28.1 1965.5 6.3-17.9H38l6.3 17.9h-3l-1.4-4h-7.3l-1.4 4h-3Zm5.3-6.5h5.5l-3.1-9.4h.8l-3.2 9.4Zm17 6.8a5 5 0 0 1-2.5-.7c-.7-.4-1.3-1-1.7-1.8a6 6 0 0 1-.6-2.8v-8h2.7v7.8c0 .6 0 1.1.3 1.5.3.5.6.9 1 1.1.5.3 1 .4 1.5.4.6 0 1.1-.2 1.5-.4.5-.3.8-.6 1-1.1.3-.5.4-1 .4-1.6v-7.7h2.7v13h-2.5v-2.5l.2.3c-.3.8-.8 1.4-1.5 1.8-.7.5-1.5.7-2.4.7Zm15.1-.2c-1.4 0-2.4-.3-3.2-1.1a4.4 4.4 0 0 1-1-3.3v-6.2h-2.4v-2.5h.4c.6 0 1-.2 1.4-.5.3-.4.5-.8.5-1.5v-1H64v3h3v2.5h-3v6.1c0 .5 0 .9.2 1.2l.7.7c.4.2.8.2 1.3.2h.9v2.3l-.8.1h-.7Zm10.1.2a6.8 6.8 0 0 1-5.8-3.3c-.6-1-1-2.2-1-3.5a6.6 6.6 0 0 1 3.4-5.9c1-.6 2.2-.9 3.4-.9a6.6 6.6 0 0 1 5.9 3.3c.6 1 1 2.2 1 3.5a6.7 6.7 0 0 1-3.4 6c-1 .5-2.2.8-3.5.8Zm0-2.5c.8 0 1.5-.2 2-.6.7-.4 1.1-.9 1.5-1.5.3-.7.5-1.4.5-2.2 0-.8-.2-1.5-.5-2.2-.4-.6-.8-1.1-1.4-1.5-.6-.4-1.3-.5-2-.5a3.8 3.8 0 0 0-3.5 2c-.3.7-.5 1.4-.5 2.2 0 .8.2 1.5.5 2.2a4 4 0 0 0 1.4 1.5 4 4 0 0 0 2 .6Zm9.5 2.2v-13h2.6v2.8l-.4-.4c.3-.9.8-1.6 1.5-2 .7-.5 1.5-.7 2.5-.7s2 .3 2.7.9c.9.5 1.4 1.2 1.7 2.2h-.8c.4-1 1-1.8 1.8-2.3.8-.5 1.7-.8 2.7-.8a4.8 4.8 0 0 1 4.2 2.4c.4.7.6 1.6.6 2.5v8.4h-2.7v-7.7c0-.6-.1-1.2-.4-1.6-.2-.5-.5-.8-1-1-.3-.3-.8-.5-1.3-.5-.6 0-1 .2-1.5.4l-1 1c-.2.6-.3 1.1-.3 1.7v7.7h-2.7v-7.7c0-.6-.1-1.2-.4-1.6-.2-.5-.5-.8-1-1-.3-.3-.8-.5-1.4-.5-.5 0-1 .2-1.4.4-.4.3-.8.6-1 1-.2.6-.3 1.1-.3 1.7v7.7H85Zm25.9.3c-.9 0-1.7-.2-2.3-.5-.7-.3-1.2-.7-1.6-1.3-.3-.5-.5-1.2-.5-2 0-.6.1-1.3.4-1.8.4-.6.9-1 1.5-1.4a7 7 0 0 1 2.5-.9l4.5-.7v2.1l-4 .7a3 3 0 0 0-1.6.7c-.3.3-.5.8-.5 1.3s.2.9.6 1.2c.4.3.8.5 1.4.5.8 0 1.4-.2 2-.5a3.4 3.4 0 0 0 1.7-3.1v-3.3a2 2 0 0 0-.7-1.6c-.5-.4-1.1-.6-1.9-.6-.7 0-1.3.2-1.9.6-.5.3-.9.8-1.2 1.4l-2.2-1.1c.2-.7.6-1.2 1.2-1.7.5-.5 1.1-.9 1.9-1.2.7-.2 1.5-.4 2.3-.4 1 0 2 .2 2.7.6a4.4 4.4 0 0 1 2.5 4v8.7h-2.6v-2.3h.6a5.2 5.2 0 0 1-2.8 2.3c-.6.2-1.3.3-2 .3Zm15.4-.2c-1.4 0-2.4-.3-3.2-1.1a4.4 4.4 0 0 1-1.1-3.3v-6.2h-2.3v-2.5h.4c.6 0 1-.2 1.4-.5.3-.4.5-.8.5-1.5v-1h2.7v3h3v2.5h-3v6.1c0 .5 0 .9.2 1.2.1.3.4.5.7.7.3.2.7.2 1.2.2h.9v2.3l-.7.1h-.7Zm10 .2c-1.4 0-2.5-.3-3.5-.9-1-.6-1.8-1.4-2.3-2.5-.6-1-.9-2.2-.9-3.4a7 7 0 0 1 .9-3.5 6.4 6.4 0 0 1 5.5-3.3c1 0 1.9.2 2.6.5.8.4 1.5.8 2 1.4a6.6 6.6 0 0 1 1.5 5.7h-10.3v-2.2h8.8l-1.3 1a3.4 3.4 0 0 0-1.4-3.5c-.5-.4-1.2-.6-1.9-.6a3.4 3.4 0 0 0-3.2 2.1c-.3.7-.4 1.5-.3 2.4-.1.9 0 1.6.3 2.3.3.7.8 1.2 1.4 1.5a4 4 0 0 0 2 .6c.9 0 1.5-.2 2-.5.6-.4 1-.9 1.4-1.4l2.2 1c-.3.7-.7 1.2-1.2 1.7a6 6 0 0 1-2 1.2 7 7 0 0 1-2.4.4Zm14.6 0c-1.3 0-2.4-.3-3.4-.9a6.7 6.7 0 0 1-3.2-5.9 7 7 0 0 1 .9-3.5 6.2 6.2 0 0 1 5.6-3.3c1 0 2 .2 2.8.7.8.4 1.4 1 1.9 1.7l-.4.6v-7.9h2.7v18.2h-2.6v-2.6l.3.5c-.4.8-1 1.3-1.9 1.8a6 6 0 0 1-2.7.6Zm.2-2.5a3.8 3.8 0 0 0 3.5-2.1c.3-.7.5-1.4.5-2.2 0-.8-.2-1.5-.5-2.2a3.8 3.8 0 0 0-3.5-2 3.8 3.8 0 0 0-3.4 2c-.4.7-.5 1.4-.5 2.2 0 .8.1 1.5.5 2.2.3.6.8 1.1 1.4 1.5a4 4 0 0 0 2 .6Zm17.5 2.2v-15.4h-4.8v-2.5h12.3v2.5h-4.7v15.4h-2.8Zm13.7.3a6.4 6.4 0 0 1-5.8-3.3c-.5-1-.8-2.3-.8-3.5a7 7 0 0 1 .8-3.5 6.4 6.4 0 0 1 5.6-3.3c1 0 1.9.2 2.6.5.8.4 1.4.8 2 1.4a6.6 6.6 0 0 1 1.5 5.7h-10.4v-2.2h8.8l-1.3 1a3.4 3.4 0 0 0-1.3-3.5c-.5-.4-1.2-.6-1.9-.6a3.4 3.4 0 0 0-3.2 2.1c-.3.7-.4 1.5-.4 2.4 0 .9 0 1.6.4 2.3.3.7.8 1.2 1.4 1.5a4 4 0 0 0 2 .6c.8 0 1.5-.2 2-.5.6-.4 1-.9 1.4-1.4l2.2 1c-.3.7-.7 1.2-1.2 1.7a6 6 0 0 1-2 1.2 7 7 0 0 1-2.4.4Zm13.4 0c-1.3 0-2.5-.3-3.5-1-1-.6-1.6-1.5-2-2.6l2-1c.4.7.9 1.3 1.5 1.7.6.5 1.3.7 2 .7s1.2-.2 1.6-.4c.4-.3.6-.7.6-1.2 0-.3 0-.6-.3-.8a2 2 0 0 0-.6-.5l-.8-.3-2-.6c-1.2-.3-2-.8-2.6-1.4-.5-.7-.8-1.4-.8-2.3 0-.8.2-1.4.6-2 .4-.6 1-1 1.7-1.4.7-.3 1.5-.5 2.3-.5 1.2 0 2.3.3 3.2 1 1 .5 1.6 1.3 2 2.3l-2.1 1c-.3-.6-.7-1.1-1.2-1.5-.6-.3-1.2-.5-1.9-.5-.6 0-1 .1-1.4.4-.4.3-.5.6-.5 1.1 0 .3 0 .6.2.8l.6.4c.3.2.5.3.8.3l2.1.7a5 5 0 0 1 2.5 1.4c.6.6.9 1.4.9 2.3 0 .8-.2 1.4-.7 2-.4.6-1 1-1.6 1.4-.8.3-1.6.5-2.6.5Zm13.1-.2c-1.3 0-2.4-.3-3.1-1.1a4.4 4.4 0 0 1-1.2-3.3v-6.2h-2.2v-2.5h.3c.6 0 1.1-.2 1.4-.5.4-.4.5-.8.5-1.5v-1h2.8v3h3v2.5h-3v6.1c0 .5 0 .9.2 1.2.1.3.3.5.7.7.3.2.7.2 1.2.2h.9v2.3l-.7.1h-.8Zm4.2-.1v-13h2.7v13H213Zm0-14.8v-3h2.7v3H213Zm5.8 14.8v-13h2.6v2.6l-.3-.4c.3-.8.8-1.4 1.6-1.8.7-.5 1.5-.7 2.4-.7 1 0 1.8.2 2.5.6.8.5 1.4 1 1.8 1.8.4.7.6 1.6.6 2.5v8.4h-2.7v-7.7c0-.6-.1-1.2-.4-1.6-.2-.5-.5-.8-1-1a3 3 0 0 0-1.5-.5 3 3 0 0 0-1.5.4c-.4.3-.8.6-1 1-.2.6-.4 1.1-.4 1.7v7.7H219Zm20.4 5.3c-1 0-1.9-.2-2.7-.5a6 6 0 0 1-2-1.3 5 5 0 0 1-1.3-1.8l2.5-1a3 3 0 0 0 1.2 1.5 4 4 0 0 0 2.2.6c.7 0 1.3-.2 1.9-.5a3 3 0 0 0 1.3-1.1c.3-.5.5-1.1.5-1.8v-3l.4.6c-.4.9-1 1.5-1.8 2-.8.3-1.7.6-2.7.6a6.3 6.3 0 0 1-5.5-3.2c-.6-1-.8-2-.8-3.3 0-1.2.2-2.3.8-3.3a6.2 6.2 0 0 1 8.1-2.5 5 5 0 0 1 2 1.9l-.4.7v-2.9h2.6v12.4c0 1.1-.3 2.1-.9 3-.5.9-1.2 1.6-2.2 2.1-1 .5-2 .8-3.2.8Zm-.2-8.3a3.6 3.6 0 0 0 3.3-1.8 4 4 0 0 0 .5-2 4 4 0 0 0-1.9-3.4c-.5-.4-1.2-.5-1.9-.5s-1.4.1-2 .5c-.5.3-1 .8-1.3 1.4a4 4 0 0 0-.5 2c0 .7.2 1.3.5 2 .3.5.8 1 1.3 1.3.6.4 1.3.5 2 .5Z"/><rect width="238.5" height="56.5" x="448.8" y="1232.8" fill="#DBEAFE" rx="11.3"/><rect width="238.5" height="56.5" x="448.8" y="1232.8" stroke="#4B5563" stroke-dasharray="8 8" stroke-width="1.5" rx="11.3"/><path fill="#222" d="M539.3 1271.3a7.3 7.3 0 0 1-7-5l2.3-1c.4 1.2 1 2 1.9 2.6.8.6 1.8.9 2.9.9.6 0 1.2-.1 1.7-.3.4-.2.8-.5 1-.9.3-.3.5-.8.5-1.2 0-.7-.2-1.2-.6-1.6-.3-.4-.9-.7-1.6-.9l-3.4-1c-1.3-.5-2.3-1.1-3-2-.7-.8-1.1-1.8-1.1-3 0-1 .3-1.9.7-2.6a5 5 0 0 1 2-1.8 7.1 7.1 0 0 1 8.2 1.5 6 6 0 0 1 1.5 2.2l-2.4 1a4.4 4.4 0 0 0-4.2-2.9c-.6 0-1.1.1-1.6.3-.4.2-.8.5-1 .9-.3.3-.4.8-.4 1.3s.2 1 .6 1.5c.3.5.9.8 1.6 1l3.2 1c1.4.4 2.5 1 3.2 1.9.7.8 1 1.8 1 3 0 1-.2 1.8-.7 2.6-.5.8-1.3 1.4-2.2 1.8-.9.5-2 .7-3.1.7Zm14.6-.2c-1.4 0-2.4-.3-3.2-1.1a4.4 4.4 0 0 1-1.1-3.3v-6.2h-2.3v-2.5h.4c.6 0 1-.2 1.4-.5.3-.4.5-.8.5-1.5v-1h2.7v3h3v2.5h-3v6.1c0 .5 0 .9.2 1.2l.7.7c.3.2.8.2 1.3.2h.9v2.3l-.8.1h-.7Zm10 .2c-1.3 0-2.5-.3-3.5-.9-1-.6-1.8-1.4-2.3-2.5-.6-1-.9-2.2-.9-3.4a7 7 0 0 1 .9-3.5 6.4 6.4 0 0 1 5.5-3.3c1 0 1.9.2 2.7.5.7.4 1.4.8 2 1.4l1.1 2a6.6 6.6 0 0 1 .3 3.7h-10.3v-2.2h8.8l-1.3 1a3.4 3.4 0 0 0-1.4-3.5c-.5-.4-1.1-.6-1.9-.6a3.4 3.4 0 0 0-3.2 2.1c-.3.7-.4 1.5-.3 2.4-.1.9 0 1.6.3 2.3.4.7.8 1.2 1.4 1.5a4 4 0 0 0 2 .6c.9 0 1.5-.2 2-.5.6-.4 1-.9 1.4-1.4l2.2 1c-.2.7-.6 1.2-1.2 1.7a6 6 0 0 1-2 1.2 7 7 0 0 1-2.3.4Zm8.6 4.5V1258h2.6v2.7l-.3-.6a5 5 0 0 1 1.9-1.8 6 6 0 0 1 2.7-.6c1.3 0 2.4.3 3.3 1 1 .5 1.8 1.3 2.4 2.3a7 7 0 0 1 .8 3.5 6.9 6.9 0 0 1-3.1 5.9c-1 .6-2.1.9-3.4.9-1 0-2-.2-2.7-.6-.9-.5-1.5-1-2-1.8l.5-.5v7.4h-2.7Zm6.7-7a3.9 3.9 0 0 0 3.4-2c.3-.8.5-1.5.5-2.3 0-.8-.2-1.5-.5-2.2a3.8 3.8 0 0 0-3.4-2 3.8 3.8 0 0 0-3.5 2c-.3.7-.5 1.4-.5 2.2 0 .8.2 1.5.5 2.2a4 4 0 0 0 1.4 1.5 4 4 0 0 0 2 .6Zm19 2.5a7 7 0 0 1-2.7-.5c-.8-.4-1.6-.9-2.2-1.5-.6-.7-1-1.4-1.2-2.3l2.4-.9a4 4 0 0 0 1.4 2c.7.4 1.4.7 2.3.7.7 0 1.3-.2 1.8-.4a3 3 0 0 0 1.3-1.2c.3-.5.4-1 .4-1.8 0-.7-.1-1.3-.4-1.8-.3-.5-.7-.8-1.3-1.1-.5-.3-1-.4-1.8-.4a5.5 5.5 0 0 0-1.6.3l-.7-1.3 4.7-5.6H593v-2.4h10.8v2.3l-4.6 5.5v-.9c1 0 2 .3 2.8.7.8.5 1.4 1.1 1.8 1.9.5.8.7 1.7.7 2.7a5.8 5.8 0 0 1-3 5.2c-1 .5-2 .8-3.3.8Z"/><circle cx="688" cy="1261" r="6.5" fill="#EFF6FF" stroke="#60A5FA" stroke-width="3"/><path fill="#60A5FA" d="M696 1263a1.5 1.5 0 1 1 0-3v3Zm167.7-187c.6.5.6 1.5 0 2l-9.5 9.6c-.6.6-1.5.6-2.1 0-.6-.6-.6-1.5 0-2.1l8.5-8.5-8.5-8.5a1.5 1.5 0 1 1 2.1-2.1l9.5 9.5ZM696 1260h12v3h-12v-3Zm34.5-22.6V1101h3v136.4h-3Zm25.5-161.9h106.7v3H756v-3Zm-25.5 25.5c0-14 11.4-25.5 25.5-25.5v3c-12.4 0-22.5 10-22.5 22.5h-3ZM708 1260c12.4 0 22.5-10.1 22.5-22.6h3c0 14.1-11.4 25.5-25.5 25.5v-3Z"/><path fill="#60A5FA" d="M696 1259.5a1.5 1.5 0 1 0 0 3v-3Zm167.7 187c.6-.6.6-1.5 0-2.1l-9.5-9.6c-.6-.5-1.5-.5-2.1 0-.6.6-.6 1.6 0 2.2l8.5 8.4-8.5 8.5c-.6.6-.6 1.6 0 2.1.6.6 1.5.6 2.1 0l9.5-9.5Zm-167.7-184h12v-3h-12v3Zm34.5 22.5v136.4h3V1285h-3Zm25.5 162h106.7v-3H756v3Zm-25.5-25.6c0 14.1 11.4 25.5 25.5 25.5v-3c-12.4 0-22.5-10-22.5-22.5h-3ZM708 1262.5c12.4 0 22.5 10 22.5 22.5h3c0-14-11.4-25.5-25.5-25.5v3Z"/><rect width="276" height="69" x="864" y="1041" fill="url(#d)" rx="20"/><path fill="#000" d="M924.8 1085.5v-17.9h5.8c1.9 0 3.5.4 4.9 1.2 1.3.7 2.4 1.7 3.1 3a9.4 9.4 0 0 1 1.2 4.8c0 1.7-.4 3.3-1.2 4.6a8 8 0 0 1-3.1 3.2c-1.4.7-3 1.1-4.9 1.1h-5.8Zm2.8-2.5h3c1.3 0 2.4-.3 3.4-.8s1.6-1.3 2.1-2.2c.6-1 .8-2.1.8-3.5 0-1.3-.3-2.4-.8-3.3-.5-1-1.2-1.7-2.1-2.3-1-.5-2-.8-3.3-.8h-3.1v12.9Zm20.8 2.8c-1.3 0-2.5-.3-3.5-.9-1-.6-1.7-1.4-2.3-2.5-.6-1-.8-2.2-.8-3.4a7 7 0 0 1 .8-3.5 6.4 6.4 0 0 1 5.6-3.3c1 0 1.8.2 2.6.5.8.4 1.4.8 2 1.4.5.6.9 1.3 1.1 2a6.6 6.6 0 0 1 .3 3.7H944v-2.2h8.8l-1.3 1a3.4 3.4 0 0 0-1.4-3.5c-.5-.4-1.1-.6-1.8-.6a3.4 3.4 0 0 0-3.2 2.1c-.3.7-.5 1.5-.4 2.4 0 .9 0 1.6.4 2.3.3.7.8 1.2 1.4 1.5a4 4 0 0 0 2 .6c.8 0 1.5-.2 2-.5.6-.4 1-.9 1.3-1.4l2.2 1c-.2.7-.6 1.2-1.2 1.7a6 6 0 0 1-1.9 1.2 7 7 0 0 1-2.4.4Zm12.1-.3-5-13h3l3.8 10.6h-1l3.9-10.6h3l-5.2 13h-2.5Zm15.3.3a6.4 6.4 0 0 1-5.8-3.3c-.5-1-.8-2.3-.8-3.5a7 7 0 0 1 .9-3.5 6.4 6.4 0 0 1 5.5-3.3c1 0 1.9.2 2.6.5.8.4 1.5.8 2 1.4a6.6 6.6 0 0 1 1.5 5.7h-10.4v-2.2h8.9l-1.3 1a3.4 3.4 0 0 0-1.4-3.5c-.5-.4-1.2-.6-1.9-.6a3.4 3.4 0 0 0-3.2 2.1c-.3.7-.4 1.5-.4 2.4 0 .9 0 1.6.4 2.3.3.7.8 1.2 1.4 1.5a4 4 0 0 0 2 .6c.8 0 1.5-.2 2-.5.6-.4 1-.9 1.4-1.4l2.2 1c-.3.7-.7 1.2-1.2 1.7a6 6 0 0 1-2 1.2 7 7 0 0 1-2.4.4Zm8.7-.3v-18.2h2.7v18.2h-2.7Zm12.1.3a6.8 6.8 0 0 1-5.9-3.3c-.6-1-.9-2.2-.9-3.5a6.6 6.6 0 0 1 3.4-5.9c1-.6 2.1-.9 3.4-.9a6.6 6.6 0 0 1 5.9 3.3c.6 1 .9 2.2.9 3.5a6.7 6.7 0 0 1-6.8 6.8Zm0-2.5c.8 0 1.5-.2 2-.6.6-.4 1.1-.9 1.4-1.5a4.5 4.5 0 0 0 0-4.4 3.8 3.8 0 0 0-3.4-2 3.8 3.8 0 0 0-3.5 2c-.3.7-.5 1.4-.5 2.2 0 .8.2 1.5.5 2.2a4 4 0 0 0 1.5 1.5 4 4 0 0 0 2 .6Zm9.4 7v-17.8h2.6v2.7l-.3-.6a5 5 0 0 1 2-1.8 6 6 0 0 1 2.7-.6c1.2 0 2.3.3 3.3 1 1 .5 1.7 1.3 2.3 2.3a7 7 0 0 1 .9 3.5 7 7 0 0 1-3.2 5.9c-1 .6-2 .9-3.3.9-1 0-2-.2-2.8-.6-.8-.5-1.5-1-1.9-1.8l.4-.5v7.4h-2.7Zm6.7-7c.8 0 1.4-.2 2-.6.6-.4 1-.9 1.4-1.5.4-.7.5-1.4.5-2.2 0-.8-.1-1.5-.5-2.2a3.8 3.8 0 0 0-3.4-2 3.9 3.9 0 0 0-3.5 2c-.3.7-.5 1.4-.5 2.2 0 .8.2 1.5.5 2.2a4 4 0 0 0 1.4 1.5 4 4 0 0 0 2 .6Zm9.4 2.2v-13h2.6v2.8l-.3-.4c.2-.9.7-1.6 1.4-2 .8-.5 1.6-.7 2.5-.7 1 0 2 .3 2.8.9.8.5 1.3 1.2 1.6 2.2h-.8c.4-1 1-1.8 1.8-2.3.8-.5 1.7-.8 2.7-.8a4.8 4.8 0 0 1 4.2 2.4c.4.7.7 1.6.7 2.5v8.4h-2.8v-7.7c0-.6 0-1.2-.3-1.6-.2-.5-.6-.8-1-1-.4-.3-.9-.5-1.4-.5-.5 0-1 .2-1.4.4-.5.3-.8.6-1 1-.3.6-.4 1.1-.4 1.7v7.7h-2.7v-7.7c0-.6 0-1.2-.3-1.6-.3-.5-.6-.8-1-1-.4-.3-.9-.5-1.4-.5-.6 0-1 .2-1.5.4l-1 1c-.2.6-.3 1.1-.3 1.7v7.7h-2.7Zm28.1.3c-1.3 0-2.4-.3-3.4-.9-1-.6-1.8-1.4-2.3-2.5-.6-1-.9-2.2-.9-3.4a7 7 0 0 1 .9-3.5 6.3 6.3 0 0 1 5.5-3.3c1 0 1.9.2 2.7.5a5.8 5.8 0 0 1 3.1 3.4 6.6 6.6 0 0 1 .3 3.7h-10.3v-2.2h8.8l-1.3 1c.1-.8 0-1.5-.2-2-.3-.7-.6-1.2-1.2-1.5-.5-.4-1.2-.6-1.9-.6a3.4 3.4 0 0 0-3.2 2.1c-.3.7-.4 1.5-.3 2.4-.1.9 0 1.6.3 2.3.4.7.8 1.2 1.4 1.5a4 4 0 0 0 2 .6 3.6 3.6 0 0 0 3.4-2l2.2 1.2c-.3.6-.7 1.1-1.2 1.6s-1.2.9-2 1.2a7 7 0 0 1-2.3.4Zm8.7-.3v-13h2.6v2.6l-.3-.4c.3-.8.8-1.4 1.5-1.8.7-.5 1.5-.7 2.4-.7 1 0 1.9.2 2.6.6a5 5 0 0 1 2.3 4.3v8.4h-2.7v-7.7c0-.6 0-1.2-.3-1.6-.3-.5-.6-.8-1-1-.5-.3-1-.5-1.5-.5a3 3 0 0 0-1.5.4c-.5.3-.8.6-1 1-.3.6-.4 1.1-.4 1.7v7.7h-2.7Zm19.6.1c-1.3 0-2.4-.3-3.1-1.1a4.4 4.4 0 0 1-1.1-3.3v-6.2h-2.3v-2.5h.3c.6 0 1.1-.2 1.5-.5.3-.4.5-.8.5-1.5v-1h2.7v3h3v2.5h-3v6.1c0 .5 0 .9.2 1.2.1.3.4.5.7.7.3.2.7.2 1.2.2h.9v2.3l-.7.1h-.8Z"/><rect width="276" height="69" x="864" y="1225" fill="url(#e)" rx="20"/><path fill="#000" d="M907.1 1269.8a8.8 8.8 0 0 1-6.3-2.6 9.2 9.2 0 0 1-2.5-6.7c0-1.3.2-2.5.6-3.6a8.6 8.6 0 0 1 8.2-5.6 8.4 8.4 0 0 1 6 2.4c.6.7 1.1 1.4 1.4 2.2l-2.5 1.2a5 5 0 0 0-4.9-3.2c-1.2 0-2.2.3-3.1.8-1 .6-1.7 1.4-2.2 2.4-.5 1-.7 2.1-.7 3.5 0 1.3.2 2.4.7 3.5.5 1 1.3 1.7 2.2 2.3a6 6 0 0 0 6.1 0 5 5 0 0 0 1.9-2.4l2.5 1.2c-.3.8-.8 1.5-1.5 2.2-.7.7-1.5 1.3-2.5 1.7-1 .5-2.1.7-3.4.7Zm16.1 0a6.8 6.8 0 0 1-5.9-3.3c-.6-1-.9-2.2-.9-3.5a6.6 6.6 0 0 1 3.4-5.9c1-.6 2.1-.9 3.4-.9a6.6 6.6 0 0 1 5.9 3.3c.6 1 .9 2.2.9 3.5a6.7 6.7 0 0 1-3.4 6c-1 .5-2.2.8-3.4.8Zm0-2.5c.8 0 1.4-.2 2-.6.6-.4 1.1-.9 1.4-1.5a4.5 4.5 0 0 0 0-4.4 3.8 3.8 0 0 0-3.4-2 3.8 3.8 0 0 0-3.5 2c-.3.7-.5 1.4-.5 2.2 0 .8.2 1.5.5 2.2a4 4 0 0 0 1.5 1.5 4 4 0 0 0 2 .6Zm15.4 2.5c-1.2 0-2.4-.3-3.3-.9a6.7 6.7 0 0 1-3.2-5.9 7 7 0 0 1 .9-3.5c.5-1 1.3-1.8 2.3-2.4 1-.6 2-.9 3.3-.9 1 0 2 .2 2.8.6.8.5 1.4 1 1.8 1.8l-.4.6v-7.9h2.7v18.2H943v-2.6l.3.5c-.5.8-1.1 1.3-2 1.8a6 6 0 0 1-2.7.6Zm.3-2.5a3.8 3.8 0 0 0 3.4-2.1c.4-.7.5-1.4.5-2.2 0-.8-.1-1.5-.5-2.2a3.8 3.8 0 0 0-3.4-2 3.8 3.8 0 0 0-3.5 2c-.3.7-.5 1.4-.5 2.2 0 .8.2 1.5.5 2.2.4.6.8 1.1 1.4 1.5a4 4 0 0 0 2 .6Zm9.8 2.2v-13h2.7v13h-2.7Zm0-14.8v-3h2.7v3h-2.7Zm5.9 14.8v-13h2.6v2.6l-.3-.4c.3-.8.8-1.4 1.5-1.8.7-.5 1.5-.7 2.4-.7 1 0 1.8.2 2.6.6.7.5 1.3 1 1.7 1.8.4.7.6 1.6.6 2.5v8.4H963v-7.7c0-.6 0-1.2-.3-1.6-.3-.5-.6-.8-1-1a3 3 0 0 0-1.5-.5 3 3 0 0 0-1.5.4c-.5.3-.8.6-1 1-.3.6-.4 1.1-.4 1.7v7.7h-2.7Zm20.3 5.3c-1 0-1.8-.2-2.6-.5a6 6 0 0 1-2-1.3 5 5 0 0 1-1.4-1.8l2.5-1a3 3 0 0 0 1.2 1.5 4 4 0 0 0 2.3.6c.7 0 1.3-.2 1.8-.5a3 3 0 0 0 1.3-1.1c.3-.5.5-1.1.5-1.8v-3l.5.6c-.5.9-1 1.5-1.9 2-.8.3-1.7.6-2.7.6a6.3 6.3 0 0 1-5.5-3.2c-.5-1-.8-2-.8-3.3 0-1.2.3-2.3.8-3.3.6-1 1.3-1.7 2.3-2.2a6.2 6.2 0 0 1 5.9-.2 5 5 0 0 1 1.9 1.8l-.4.7v-2.9h2.6v12.4c0 1.1-.3 2.1-.8 3-.6.9-1.3 1.6-2.2 2.1-1 .5-2 .8-3.3.8Zm-.1-8.3a3.6 3.6 0 0 0 3.2-1.8 4 4 0 0 0 .5-2 4 4 0 0 0-1.8-3.4c-.6-.4-1.2-.5-2-.5a3.7 3.7 0 0 0-3.3 2 4 4 0 0 0-.5 1.9c0 .7.2 1.3.5 2 .4.5.8 1 1.4 1.3.6.4 1.2.5 2 .5Zm20.3 3.3a7.3 7.3 0 0 1-7-5l2.3-1c.5 1.2 1.1 2 2 2.6.8.6 1.7.9 2.8.9.6 0 1.2-.1 1.7-.3.5-.2.8-.5 1-.9.4-.3.5-.8.5-1.2 0-.7-.2-1.2-.6-1.6-.3-.4-.9-.7-1.6-.9l-3.3-1c-1.4-.5-2.4-1.1-3.1-2-.7-.8-1-1.8-1-3 0-1 .2-1.9.7-2.6a5 5 0 0 1 2-1.8c.9-.5 1.9-.7 3-.7a7.1 7.1 0 0 1 5.2 2.1 6 6 0 0 1 1.4 2.3l-2.4 1a4.4 4.4 0 0 0-4.2-2.9c-.6 0-1.1.1-1.5.3-.5.2-.8.5-1.1.9a2.4 2.4 0 0 0 .2 2.8c.4.5 1 .8 1.7 1l3 1c1.5.4 2.6 1 3.3 1.9.7.8 1 1.8 1 3 0 1-.2 1.8-.7 2.6-.5.8-1.2 1.4-2.1 1.8-1 .5-2 .7-3.2.7Zm14.6-.2c-1.3 0-2.4-.3-3.2-1.1a4.5 4.5 0 0 1-1-3.3v-6.2h-2.4v-2.5h.4c.6 0 1-.2 1.4-.5.4-.4.5-.8.5-1.5v-1h2.7v3h3v2.5h-3v6.1c0 .5.1.9.3 1.2 0 .3.3.5.6.7.4.2.8.2 1.3.2h.9v2.3l-.8.1h-.7Zm7.9.2c-.9 0-1.7-.2-2.3-.5-.7-.3-1.2-.7-1.6-1.3-.3-.5-.5-1.2-.5-2 0-.6.1-1.3.4-1.8.4-.6.9-1 1.5-1.4a7 7 0 0 1 2.5-.9l4.5-.7v2.1l-4 .7a3 3 0 0 0-1.6.7c-.3.3-.5.8-.5 1.3s.2.9.6 1.2c.4.3.8.5 1.4.5a3.7 3.7 0 0 0 3.3-1.8c.3-.5.4-1.1.4-1.8v-3.3a2 2 0 0 0-.7-1.6c-.5-.4-1.1-.6-1.9-.6-.7 0-1.3.2-1.9.6-.5.3-1 .8-1.2 1.4l-2.2-1.1c.2-.7.6-1.2 1.2-1.7.5-.5 1.1-.9 1.9-1.2.7-.2 1.5-.4 2.3-.4 1 0 2 .2 2.7.6a4.4 4.4 0 0 1 2.5 4v8.7h-2.6v-2.3h.6a5.2 5.2 0 0 1-2.8 2.3c-.6.2-1.3.3-2 .3Zm10-.3v-13h2.6v2.6l-.3-.4c.3-.8.8-1.4 1.5-1.8.7-.5 1.5-.7 2.4-.7 1 0 1.9.2 2.6.6a5 5 0 0 1 2.3 4.3v8.4h-2.6v-7.7c0-.6-.2-1.2-.4-1.6-.2-.5-.6-.8-1-1-.5-.3-1-.5-1.5-.5a3 3 0 0 0-1.5.4c-.5.3-.8.6-1 1-.3.6-.4 1.1-.4 1.7v7.7h-2.7Zm20 .3c-1.2 0-2.3-.3-3.3-.9a6.6 6.6 0 0 1-3.2-5.9 7 7 0 0 1 .9-3.5 6.2 6.2 0 0 1 5.6-3.3c1 0 2 .2 2.8.7.8.4 1.4 1 1.9 1.7l-.4.6v-7.9h2.7v18.2h-2.6v-2.6l.3.5c-.5.8-1 1.3-2 1.8a6 6 0 0 1-2.6.6Zm.3-2.5a3.8 3.8 0 0 0 3.4-2.1 4.5 4.5 0 0 0 0-4.4 3.8 3.8 0 0 0-3.4-2 3.9 3.9 0 0 0-3.5 2c-.3.7-.5 1.4-.5 2.2 0 .8.2 1.5.5 2.2.4.6.8 1.1 1.4 1.5a4 4 0 0 0 2.1.6Zm13.7 2.5c-.9 0-1.6-.2-2.3-.5-.7-.3-1.2-.7-1.5-1.3-.4-.5-.6-1.2-.6-2 0-.6.1-1.3.5-1.8.3-.6.8-1 1.4-1.4a7 7 0 0 1 2.5-.9l4.5-.7v2.1l-4 .7a3 3 0 0 0-1.6.7c-.3.3-.5.8-.5 1.3s.2.9.6 1.2c.4.3.9.5 1.4.5a3.7 3.7 0 0 0 3.3-1.8c.3-.5.4-1.1.4-1.8v-3.3a2 2 0 0 0-.7-1.6c-.5-.4-1-.6-1.9-.6-.7 0-1.3.2-1.9.6-.5.3-.9.8-1.2 1.4l-2.2-1.1c.2-.7.6-1.2 1.2-1.7.5-.5 1.2-.9 1.9-1.2.7-.2 1.5-.4 2.3-.4 1 0 2 .2 2.7.6.8.4 1.4 1 1.9 1.6.4.7.6 1.5.6 2.4v8.7h-2.6v-2.3h.6a5 5 0 0 1-2.8 2.3c-.6.2-1.3.3-2 .3Zm10-.3v-13h2.6v2.6l-.3-.3c.3-.9.8-1.5 1.4-1.9.7-.4 1.5-.6 2.4-.6h.7v2.5h-1a3 3 0 0 0-2.3.9c-.5.5-.8 1.3-.8 2.3v7.5h-2.7Zm14.7.3c-1.3 0-2.4-.3-3.4-.9a6.7 6.7 0 0 1-3.1-5.9c0-1.3.3-2.4.8-3.5.6-1 1.4-1.8 2.4-2.4 1-.6 2-.9 3.3-.9 1 0 2 .2 2.7.6.8.5 1.5 1 2 1.8l-.5.6v-7.9h2.7v18.2h-2.6v-2.6l.4.5c-.5.8-1.1 1.3-2 1.8a6 6 0 0 1-2.7.6Zm.3-2.5a3.8 3.8 0 0 0 3.4-2.1c.3-.7.5-1.4.5-2.2 0-.8-.2-1.5-.5-2.2a3.8 3.8 0 0 0-3.4-2 3.9 3.9 0 0 0-3.5 2c-.3.7-.5 1.4-.5 2.2 0 .8.2 1.5.5 2.2a4 4 0 0 0 1.4 1.5 4 4 0 0 0 2 .6Zm14.6 2.5c-1.4 0-2.5-.3-3.5-1-1-.6-1.7-1.5-2.1-2.6l2-1c.4.7.9 1.3 1.5 1.7.6.5 1.3.7 2 .7s1.2-.2 1.6-.4c.4-.3.6-.7.6-1.2 0-.3 0-.6-.2-.8l-.7-.5a4 4 0 0 0-.8-.3l-2-.6c-1.1-.3-2-.8-2.5-1.4-.6-.7-.9-1.4-.9-2.3 0-.8.2-1.4.6-2 .4-.6 1-1 1.7-1.4.7-.3 1.5-.5 2.4-.5 1.1 0 2.2.3 3.1 1 1 .5 1.6 1.3 2 2.3l-2 1c-.3-.6-.8-1.1-1.3-1.5-.6-.3-1.2-.5-1.9-.5-.5 0-1 .1-1.4.4-.3.3-.5.6-.5 1.1 0 .3 0 .6.2.8l.7.4c.2.2.5.3.8.3l2 .7a5 5 0 0 1 2.5 1.4c.6.6.9 1.4.9 2.3 0 .8-.2 1.4-.6 2-.4.6-1 1-1.7 1.4-.7.3-1.6.5-2.5.5Z"/><rect width="277" height="69" x="863" y="1410" fill="url(#f)" rx="20"/><path fill="#000" d="m918.7 1454.5-6.4-17.9h3.1l5.2 15.3h-.6l5.1-15.3h3l-6.2 17.9h-3.2Zm16.2.3a6.4 6.4 0 0 1-5.8-3.3c-.5-1-.8-2.3-.8-3.5a7 7 0 0 1 .8-3.5 6.4 6.4 0 0 1 5.6-3.3c1 0 1.9.2 2.6.5.8.4 1.4.8 2 1.4a6.6 6.6 0 0 1 1.5 5.7h-10.4v-2.2h8.9l-1.3 1a3.4 3.4 0 0 0-1.4-3.5c-.5-.4-1.2-.6-1.9-.6a3.4 3.4 0 0 0-3.2 2.1c-.3.7-.4 1.5-.4 2.4 0 .9 0 1.6.4 2.3.3.7.8 1.2 1.4 1.5a4 4 0 0 0 2 .6c.8 0 1.5-.2 2-.5.6-.4 1-.9 1.4-1.4l2.2 1c-.3.7-.7 1.2-1.2 1.7a6 6 0 0 1-2 1.2 7 7 0 0 1-2.4.4Zm8.7-.3v-13h2.5v2.6l-.2-.3c.3-.9.8-1.5 1.4-1.9.6-.4 1.4-.6 2.3-.6h.8v2.5h-1.1a3 3 0 0 0-2.2.9c-.6.5-.8 1.3-.8 2.3v7.5h-2.7Zm13.4.3c-1.3 0-2.4-.3-3.5-1-1-.6-1.6-1.5-2-2.6l2-1c.4.7.9 1.3 1.5 1.7.6.5 1.3.7 2 .7s1.2-.2 1.6-.4c.4-.3.6-.7.6-1.2 0-.3 0-.6-.3-.8a2 2 0 0 0-.6-.5l-.8-.3-2-.6c-1.2-.3-2-.8-2.6-1.4-.5-.7-.8-1.4-.8-2.3 0-.8.2-1.4.6-2 .4-.6 1-1 1.7-1.4.7-.3 1.5-.5 2.3-.5 1.2 0 2.3.3 3.2 1 1 .5 1.6 1.3 2 2.3l-2.1 1c-.3-.6-.7-1.1-1.2-1.5-.6-.3-1.2-.5-1.9-.5-.6 0-1 .1-1.4.4-.4.3-.5.6-.5 1.1 0 .3 0 .6.2.8l.6.4.8.3 2.1.7a5 5 0 0 1 2.5 1.4c.6.6.9 1.4.9 2.3 0 .8-.2 1.4-.7 2-.4.6-1 1-1.6 1.4-.8.3-1.6.5-2.6.5Zm7.5-.3v-13h2.7v13h-2.7Zm0-14.8v-3h2.7v3h-2.7Zm12.2 15a6.8 6.8 0 0 1-5.9-3.2c-.6-1-1-2.2-1-3.5a6.6 6.6 0 0 1 3.4-5.9c1-.6 2.2-.9 3.5-.9a6.6 6.6 0 0 1 5.8 3.3c.6 1 1 2.2 1 3.5a6.7 6.7 0 0 1-3.4 6c-1 .5-2.2.8-3.4.8Zm0-2.4a3.9 3.9 0 0 0 3.4-2c.4-.8.5-1.5.5-2.3 0-.8-.1-1.5-.5-2.2a3.8 3.8 0 0 0-3.4-2 3.8 3.8 0 0 0-3.5 2c-.3.7-.5 1.4-.5 2.2 0 .8.2 1.5.5 2.2a4 4 0 0 0 1.4 1.5 4 4 0 0 0 2 .6Zm9.4 2.2v-13h2.6v2.6l-.3-.4c.3-.8.8-1.4 1.5-1.8.7-.5 1.5-.7 2.5-.7s1.8.2 2.5.6c.7.5 1.3 1 1.7 1.8.4.7.7 1.6.7 2.5v8.4h-2.7v-7.7c0-.6-.2-1.2-.4-1.6-.2-.5-.6-.8-1-1a3 3 0 0 0-1.5-.5 3 3 0 0 0-1.5.4c-.5.3-.8.6-1 1-.3.6-.4 1.1-.4 1.7v7.7h-2.7Zm26.8.3a8.8 8.8 0 0 1-6.3-2.6 9.8 9.8 0 0 1-2.5-6.6c0-1.4.2-2.6.6-3.7a8.6 8.6 0 0 1 8.2-5.6 8.5 8.5 0 0 1 6 2.4c.7.7 1.1 1.4 1.5 2.2l-2.6 1.2a5 5 0 0 0-4.9-3.2c-1.1 0-2.2.3-3.1.8-1 .6-1.6 1.4-2.1 2.4s-.8 2.1-.8 3.5a8 8 0 0 0 .8 3.5c.5 1 1.2 1.7 2.1 2.3 1 .5 2 .8 3.1.8a5.1 5.1 0 0 0 5-3.2l2.5 1.2c-.4.8-.8 1.5-1.5 2.2a8.5 8.5 0 0 1-6 2.3Zm16.1 0a6.7 6.7 0 0 1-6.8-6.8 6.6 6.6 0 0 1 3.4-5.9c1-.6 2.2-.9 3.4-.9a6.6 6.6 0 0 1 5.9 3.3c.6 1 .9 2.2.9 3.5a6.7 6.7 0 0 1-6.8 6.8Zm0-2.5c.8 0 1.5-.2 2-.6a4 4 0 0 0 1.5-1.5c.3-.7.5-1.4.5-2.2 0-.8-.2-1.5-.5-2.2-.4-.6-.8-1.1-1.4-1.5-.6-.4-1.3-.5-2-.5a3.8 3.8 0 0 0-3.5 2c-.4.7-.5 1.4-.5 2.2 0 .8.1 1.5.5 2.2a4 4 0 0 0 1.4 1.5c.6.4 1.3.6 2 .6Zm9.5 2.2v-13h2.5v2.6l-.3-.4c.3-.8.9-1.4 1.6-1.8.7-.5 1.5-.7 2.4-.7 1 0 1.8.2 2.6.6.7.5 1.3 1 1.7 1.8.4.7.6 1.6.6 2.5v8.4h-2.7v-7.7c0-.6-.1-1.2-.3-1.6-.3-.5-.6-.8-1-1a3 3 0 0 0-1.6-.5 3 3 0 0 0-1.5.4l-1 1c-.2.6-.3 1.1-.3 1.7v7.7h-2.8Zm19.6.1c-1.3 0-2.4-.3-3.1-1.1a4.5 4.5 0 0 1-1.2-3.3v-6.2h-2.3v-2.5h.4c.6 0 1-.2 1.4-.5.4-.4.5-.8.5-1.5v-1h2.8v3h2.9v2.5h-3v6.1c0 .5.1.9.3 1.2.1.3.3.5.7.7.3.2.7.2 1.2.2h.9v2.3l-.8.1h-.7Zm4.1-.1v-13h2.6v2.6l-.2-.3c.3-.9.7-1.5 1.4-1.9.6-.4 1.4-.6 2.3-.6h.8v2.5h-1.1a3 3 0 0 0-2.2.9c-.6.5-.8 1.3-.8 2.3v7.5h-2.8Zm15 .3a6.8 6.8 0 0 1-5.9-3.3c-.6-1-.9-2.2-.9-3.5a6.5 6.5 0 0 1 3.4-5.9c1-.6 2.1-.9 3.4-.9 1.3 0 2.4.3 3.4 1 1 .5 1.9 1.3 2.5 2.3.6 1 .9 2.2.9 3.5 0 1.3-.3 2.5-1 3.5a6.8 6.8 0 0 1-5.8 3.3Zm0-2.5c.8 0 1.5-.2 2-.6.6-.4 1.1-.9 1.4-1.5a4.5 4.5 0 0 0 0-4.4 3.8 3.8 0 0 0-3.4-2 3.9 3.9 0 0 0-3.5 2c-.3.7-.5 1.4-.5 2.2 0 .8.2 1.5.5 2.2.4.6.9 1.1 1.5 1.5a4 4 0 0 0 2 .6Zm9.4 2.2v-18.2h2.7v18.2h-2.7Z"/><path fill="#60A5FA" d="M700 1259.8a1.5 1.5 0 1 0 0 3v-3Zm163.6 2.6c.5-.6.5-1.6 0-2.2l-9.6-9.5c-.6-.6-1.5-.6-2.1 0-.6.6-.6 1.5 0 2.1l8.5 8.5-8.5 8.5a1.5 1.5 0 1 0 2.1 2.1l9.6-9.5Zm-163.6.4h162.5v-3H700v3Z"/><rect width="238.5" height="56.5" x="444.8" y="721.8" fill="#DBEAFE" rx="11.3"/><rect width="238.5" height="56.5" x="444.8" y="721.8" stroke="#4B5563" stroke-dasharray="8 8" stroke-width="1.5" rx="11.3"/><path fill="#222" d="M535.4 760.3a7.4 7.4 0 0 1-5.6-2.4 7 7 0 0 1-1.4-2.5l2.4-1c.4 1 1 2 1.9 2.5.8.6 1.8.9 2.8.9.7 0 1.2-.1 1.7-.3.5-.2.9-.5 1.1-.9.3-.3.4-.8.4-1.2 0-.7-.1-1.2-.5-1.6-.4-.4-1-.7-1.6-.9l-3.4-1c-1.3-.5-2.4-1.1-3-2-.8-.8-1.1-1.8-1.1-3 0-1 .2-1.9.7-2.6a5 5 0 0 1 2-1.8 7.2 7.2 0 0 1 8.2 1.5c.7.6 1.1 1.4 1.4 2.2l-2.3 1c-.4-.9-1-1.6-1.7-2.1a4.4 4.4 0 0 0-4.1-.5c-.5.2-.8.5-1 .9-.3.3-.4.8-.4 1.3 0 .6.2 1 .5 1.5.4.5 1 .8 1.7 1l3.1 1c1.5.4 2.5 1 3.2 1.9.8.8 1.1 1.8 1.1 3 0 1-.2 1.8-.8 2.6-.5.8-1.2 1.4-2.1 1.8-1 .5-2 .7-3.2.7Zm14.7-.2c-1.4 0-2.5-.3-3.2-1.1a4.4 4.4 0 0 1-1.1-3.2v-6.3h-2.3V747h.3c.6 0 1.1-.2 1.5-.5.3-.4.5-.8.5-1.5v-1h2.7v3h3v2.5h-3v6.1c0 .5 0 .9.2 1.2.1.3.4.5.7.7.3.2.7.2 1.2.2h.9v2.3a30.5 30.5 0 0 1-1.4.1Zm10 .2c-1.4 0-2.5-.3-3.5-.9-1-.6-1.8-1.4-2.4-2.4-.5-1-.8-2.2-.8-3.5a6.4 6.4 0 0 1 9-6.2c.8.3 1.4.7 2 1.3a6.7 6.7 0 0 1 1.5 5.7h-10.4V752h8.8l-1.2 1a3.4 3.4 0 0 0-1.4-3.5c-.5-.4-1.2-.6-1.9-.6a3.4 3.4 0 0 0-3.2 2.1c-.3.7-.4 1.5-.4 2.4 0 .9 0 1.6.4 2.3.3.7.8 1.2 1.4 1.5a4 4 0 0 0 2 .6c.8 0 1.5-.2 2-.5.6-.4 1-.8 1.4-1.4l2.2 1c-.3.7-.7 1.2-1.2 1.7a6 6 0 0 1-2 1.2 7 7 0 0 1-2.4.4Zm8.5 4.5V747h2.6v2.7l-.3-.6a5 5 0 0 1 2-1.7c.8-.5 1.7-.7 2.7-.7a6.3 6.3 0 0 1 5.6 3.3 7 7 0 0 1 .9 3.5 7 7 0 0 1-3.2 5.9c-1 .6-2 .9-3.3.9-1 0-2-.2-2.8-.6-.8-.5-1.4-1-1.9-1.8l.5-.5v7.4h-2.8Zm6.7-7a3.8 3.8 0 0 0 3.5-2.1c.3-.7.5-1.4.5-2.2 0-.8-.2-1.5-.5-2.2-.4-.6-.8-1.1-1.4-1.5a3.9 3.9 0 0 0-5.5 1.5c-.4.7-.5 1.4-.5 2.2 0 .8.1 1.5.5 2.2a3.9 3.9 0 0 0 3.5 2Zm13.2 2.2v-2l5-5.3a97.6 97.6 0 0 0 3.4-4.1c.2-.5.4-1 .4-1.5 0-.9-.3-1.6-.8-2a3 3 0 0 0-2-.7c-1 0-1.7.2-2.3.7-.6.5-1 1.2-1.3 2.1l-2.5-.7a5.9 5.9 0 0 1 3.3-4c.8-.5 1.7-.7 2.7-.7 1.2 0 2.1.2 3 .7a4.7 4.7 0 0 1 2.7 4.3 5 5 0 0 1-.4 2c-.2.6-.6 1.2-1.1 2l-2 2.2-4.3 4.6h8.1v2.4h-11.9Z"/><path fill="#60A5FA" d="M443.7 752a1.5 1.5 0 0 0 0-3v3ZM275.9 565c-.5.5-.5 1.5 0 2l9.6 9.6a1.5 1.5 0 0 0 2.1-2.1l-8.5-8.5 8.5-8.5a1.5 1.5 0 0 0-2.1-2.1l-9.6 9.5Zm167.8 184h-12v3h12v-3Zm-34.5-22.6V590h-3v136.4h3Zm-25.5-161.9H277v3h106.7v-3Zm25.5 25.5c0-14-11.4-25.5-25.5-25.5v3c12.4 0 22.5 10 22.5 22.5h3Zm22.5 159c-12.4 0-22.5-10.1-22.5-22.6h-3c0 14.1 11.4 25.5 25.5 25.5v-3Z"/><path fill="#60A5FA" d="M443.7 749.5a1.5 1.5 0 0 1 0 3v-3Zm-167.8 187c-.5-.6-.5-1.5 0-2.1l9.6-9.6a1.5 1.5 0 1 1 2.1 2.2l-8.5 8.4 8.5 8.5a1.5 1.5 0 1 1-2.1 2.1l-9.6-9.5Zm167.8-184h-12v-3h12v3ZM409.2 775v136.4h-3V775h3Zm-25.5 162H277v-3h106.7v3Zm25.5-25.6c0 14.1-11.4 25.5-25.5 25.5v-3c12.4 0 22.5-10 22.5-22.5h3Zm22.5-158.9c-12.4 0-22.5 10-22.5 22.5h-3c0-14 11.4-25.5 25.5-25.5v3Z"/><circle cx="444" cy="750" r="6.5" fill="#EFF6FF" stroke="#60A5FA" stroke-width="3"/><path fill="#60A5FA" d="M432 750.6a1.5 1.5 0 1 0 0-3v3Zm-156-2.5c-.6.6-.6 1.5 0 2l9.5 9.6a1.5 1.5 0 1 0 2.2-2l-8.5-8.6 8.5-8.5a1.5 1.5 0 1 0-2.2-2L276 748Zm156-.5H277v3h155v-3Z"/><rect width="275" height="69" y="530" fill="url(#g)" rx="20"/><path fill="#000" d="M73.8 574.8c-1.3 0-2.5-.3-3.5-.9-1-.5-1.8-1.3-2.4-2.3-.6-1-.9-2-.9-3.3v-11.7h2.8v11.6a3.8 3.8 0 0 0 2 3.5c.6.3 1.3.5 2 .5.8 0 1.5-.2 2.1-.5.6-.3 1.1-.8 1.4-1.4a4 4 0 0 0 .6-2.1v-11.6h2.8v11.7c0 1.3-.3 2.4-.9 3.3-.6 1-1.4 1.8-2.4 2.3-1 .6-2.2.9-3.6.9Zm8.9-.3 5.8-9-5.8-8.9H86l4.8 7.4h-1.4l4.7-7.4h3.3l-5.7 8.9 5.8 9h-3.2l-5-7.6h1.5l-5 7.6h-3.1Zm21 0v-17.9h6.6c1.2 0 2.2.2 3.2.7.9.4 1.6 1 2 2 .6.7.9 1.7.9 3 0 1.1-.3 2.2-1 3-.6 1-1.4 1.6-2.4 2l4.1 7.2h-3.2l-4.4-7.8 1.8 1h-4.7v6.8h-2.8Zm3-9.2h3.6c.7 0 1.3-.2 1.7-.4.5-.3.9-.6 1.1-1 .3-.5.5-1 .5-1.7a3 3 0 0 0-.5-1.6c-.2-.5-.6-.8-1-1-.5-.3-1.1-.5-1.8-.5h-3.7v6.2Zm17.9 9.5c-1.3 0-2.5-.3-3.5-.9-1-.6-1.7-1.4-2.3-2.4-.6-1-.8-2.2-.8-3.5a6.4 6.4 0 0 1 9-6.2c.8.3 1.4.7 2 1.3.5.6.9 1.3 1.1 2a6.7 6.7 0 0 1 .3 3.7h-10.3v-2.2h8.8l-1.3 1a3.4 3.4 0 0 0-1.4-3.5c-.5-.4-1.1-.6-1.8-.6a3.4 3.4 0 0 0-3.2 2.1c-.3.7-.5 1.5-.4 2.4 0 .9 0 1.6.4 2.3.3.7.8 1.2 1.3 1.5a4 4 0 0 0 2.1.6c.8 0 1.5-.2 2-.5.6-.4 1-.8 1.3-1.4l2.2 1c-.2.7-.6 1.2-1.2 1.7a6 6 0 0 1-1.9 1.2 7 7 0 0 1-2.4.4Zm13.4 0c-1.3 0-2.5-.3-3.5-1s-1.7-1.5-2-2.6l2-1c.4.7.8 1.3 1.4 1.7.7.5 1.4.7 2.1.7.7 0 1.2-.2 1.6-.5.4-.2.6-.6.6-1.1 0-.3-.1-.6-.3-.8a2 2 0 0 0-.7-.5l-.8-.3-2-.6c-1.1-.3-2-.8-2.5-1.4-.6-.7-.8-1.4-.8-2.3 0-.8.2-1.4.6-2 .4-.6 1-1 1.6-1.4.7-.3 1.5-.5 2.4-.5 1.2 0 2.2.3 3.2 1 .9.5 1.6 1.3 2 2.3l-2.2 1c-.2-.6-.6-1.1-1.2-1.5-.5-.3-1.1-.5-1.8-.5-.6 0-1 .1-1.4.4-.4.3-.6.6-.6 1.1 0 .3.1.6.3.8.1.2.3.3.6.4.3.2.5.3.8.3l2.1.7a5 5 0 0 1 2.5 1.4c.5.6.8 1.4.8 2.3 0 .8-.2 1.4-.6 2-.4.6-1 1-1.7 1.4-.7.3-1.5.5-2.5.5Zm13.6 0c-1.3 0-2.5-.3-3.5-.9-1-.6-1.7-1.4-2.3-2.4-.6-1-.8-2.2-.8-3.5a6.4 6.4 0 0 1 9-6.2c.8.3 1.4.7 2 1.3.5.6.9 1.3 1.1 2a6.7 6.7 0 0 1 .3 3.7h-10.3v-2.2h8.8l-1.3 1a3.4 3.4 0 0 0-1.4-3.5c-.5-.4-1.1-.6-1.8-.6a3.4 3.4 0 0 0-3.2 2.1c-.3.7-.5 1.5-.4 2.4 0 .9 0 1.6.4 2.3.3.7.8 1.2 1.4 1.5a4 4 0 0 0 2 .6c.8 0 1.5-.2 2-.5.6-.4 1-.8 1.3-1.4l2.2 1c-.2.7-.6 1.2-1.2 1.7a6 6 0 0 1-1.9 1.2 7 7 0 0 1-2.4.4Zm12.4 0c-.9 0-1.7-.2-2.3-.5-.7-.3-1.2-.7-1.6-1.3-.3-.5-.5-1.2-.5-2 0-.6.1-1.3.4-1.8.3-.6.8-1 1.5-1.4.6-.4 1.5-.7 2.5-.9l4.5-.7v2.1l-4 .7a3 3 0 0 0-1.6.7c-.3.3-.5.8-.5 1.3s.2.9.6 1.2c.3.3.8.5 1.4.5.8 0 1.4-.2 2-.5a3.4 3.4 0 0 0 1.7-3.1v-3.3a2 2 0 0 0-.7-1.6c-.5-.4-1.1-.6-1.9-.6-.7 0-1.4.2-1.9.6-.5.3-1 .8-1.2 1.4l-2.2-1.1c.2-.7.6-1.2 1.1-1.7a6.7 6.7 0 0 1 7-1 4.3 4.3 0 0 1 2.5 4v8.7h-2.6v-2.4l.6.1a5 5 0 0 1-2.8 2.3 6 6 0 0 1-2 .3Zm10-.3v-13h2.6v2.6l-.3-.4c.3-.8.8-1.4 1.4-1.8.7-.4 1.4-.6 2.3-.6h.8v2.5h-1.1a3 3 0 0 0-2.2.9c-.5.5-.8 1.3-.8 2.3v7.5H174Zm14.8.3c-1.3 0-2.4-.3-3.4-.9a6.8 6.8 0 0 1-3.3-6 7 7 0 0 1 .9-3.4 6.7 6.7 0 0 1 5.8-3.3 6.4 6.4 0 0 1 4.5 1.8 5 5 0 0 1 1.3 1.9l-2.4 1c-.3-.6-.7-1.1-1.3-1.5-.6-.4-1.3-.7-2-.7a3.7 3.7 0 0 0-3.4 2.1c-.4.7-.5 1.4-.5 2.2 0 .8.1 1.5.5 2.2a3.7 3.7 0 0 0 3.4 2 3.5 3.5 0 0 0 3.3-2.2l2.4 1.1a5 5 0 0 1-1.3 2 6.3 6.3 0 0 1-4.5 1.7Zm8.4-.3v-18.2h2.7v7.8l-.4-.4c.3-.8.8-1.4 1.5-1.8.7-.5 1.6-.7 2.5-.7 1 0 1.8.2 2.5.7.8.4 1.3 1 1.8 1.7.4.7.6 1.6.6 2.5v8.4h-2.7v-7.7c0-.6-.1-1.2-.4-1.6-.2-.5-.6-.8-1-1-.4-.3-1-.5-1.5-.5a3 3 0 0 0-1.5.4c-.4.3-.8.6-1 1-.2.6-.4 1.1-.4 1.7v7.7h-2.7Z"/><rect width="275" height="69" y="715" fill="url(#h)" rx="20"/><path fill="#000" d="M91.9 759.8c-1.3 0-2.5-.3-3.5-.9-1-.5-1.9-1.3-2.5-2.3-.5-1-.8-2-.8-3.3v-11.7h2.8v11.6a3.8 3.8 0 0 0 2 3.5c.5.3 1.2.5 2 .5s1.5-.2 2-.5c.7-.3 1.2-.8 1.5-1.4a4 4 0 0 0 .5-2.1v-11.6h2.8v11.7c0 1.3-.2 2.4-.8 3.3-.6 1-1.4 1.8-2.4 2.3-1 .6-2.3.9-3.6.9Zm10.4-.3v-17.9h2.8v17.9h-2.8Zm10.7 0v-17.9h5.9c1.8 0 3.4.4 4.8 1.1 1.4.8 2.4 1.8 3.2 3.2a9.4 9.4 0 0 1 1.1 4.6c0 1.8-.3 3.4-1.1 4.7a8 8 0 0 1-3.2 3.2c-1.4.7-3 1.1-4.8 1.1H113Zm2.9-2.5h3c1.3 0 2.4-.3 3.3-.8 1-.5 1.7-1.3 2.2-2.2.5-1 .8-2.1.8-3.5 0-1.3-.3-2.4-.8-3.3-.5-1-1.3-1.7-2.2-2.3-1-.5-2-.8-3.3-.8h-3V757Zm20.7 2.8c-1.2 0-2.4-.3-3.4-.9-1-.6-1.8-1.4-2.3-2.4-.6-1-.9-2.2-.9-3.5a6.4 6.4 0 0 1 9-6.2c.8.3 1.5.7 2 1.3a6.7 6.7 0 0 1 1.5 5.7h-10.3v-2.2h8.8l-1.3 1a3.4 3.4 0 0 0-1.4-3.5c-.5-.4-1.1-.6-1.9-.6a3.4 3.4 0 0 0-3.2 2.1c-.3.7-.4 1.5-.3 2.4-.1.9 0 1.6.3 2.3.4.7.8 1.2 1.4 1.5a4 4 0 0 0 2 .6c.9 0 1.5-.2 2-.5.6-.4 1-.8 1.4-1.4l2.2 1c-.3.7-.7 1.2-1.2 1.7a6 6 0 0 1-2 1.2 7 7 0 0 1-2.4.4Zm13.5 0c-1.4 0-2.5-.3-3.5-1s-1.7-1.5-2.1-2.6l2-1c.4.7.9 1.3 1.5 1.7.6.5 1.3.7 2 .7s1.2-.2 1.6-.5c.4-.2.6-.6.6-1.1 0-.3 0-.6-.2-.8a2 2 0 0 0-.7-.5l-.8-.3-2-.6c-1.2-.3-2-.8-2.6-1.4-.5-.7-.8-1.4-.8-2.3 0-.8.2-1.4.6-2 .4-.6 1-1 1.7-1.4.7-.3 1.5-.5 2.4-.5 1.1 0 2.2.3 3.1 1 1 .5 1.6 1.3 2 2.3l-2 1c-.3-.6-.8-1.1-1.3-1.5-.6-.3-1.2-.5-1.9-.5-.6 0-1 .1-1.4.4-.3.3-.5.6-.5 1.1 0 .3 0 .6.2.8l.7.4c.2.2.5.3.7.3l2.2.7a5 5 0 0 1 2.4 1.4c.6.6.9 1.4.9 2.3 0 .8-.2 1.4-.6 2-.4.6-1 1-1.7 1.4-.7.3-1.6.5-2.5.5Zm7.5-.3v-13h2.7v13h-2.7Zm0-14.8v-3h2.7v3h-2.7Zm12.1 20c-1 0-1.8 0-2.6-.4-.8-.3-1.5-.7-2-1.2a5 5 0 0 1-1.4-2l2.5-1c.2.7.7 1.2 1.2 1.6a4 4 0 0 0 2.3.6 4 4 0 0 0 1.8-.4 3 3 0 0 0 1.3-1.2c.3-.5.5-1.1.5-1.8v-3l.5.6c-.5.9-1 1.5-1.9 2-.8.4-1.7.6-2.7.6a6.3 6.3 0 0 1-5.5-3.2c-.5-1-.8-2-.8-3.3 0-1.2.3-2.3.8-3.3.6-1 1.3-1.7 2.3-2.2a6.2 6.2 0 0 1 5.9-.2 5 5 0 0 1 1.9 1.8l-.4.7v-2.9h2.6V759a5.6 5.6 0 0 1-3 5.1c-1 .5-2 .8-3.3.8Zm-.1-8.2c.7 0 1.3-.1 1.9-.5.5-.3 1-.8 1.3-1.3a4 4 0 0 0 .5-2 4 4 0 0 0-.5-2 3.7 3.7 0 0 0-5.2-1.4 3.7 3.7 0 0 0-1.9 3.4c0 .7.2 1.3.5 2 .4.5.8 1 1.4 1.3.6.4 1.2.5 2 .5Zm9.6 3v-13h2.6v2.6l-.4-.4c.4-.8.9-1.4 1.6-1.8.7-.5 1.5-.7 2.4-.7 1 0 1.8.2 2.6.7.7.4 1.3 1 1.7 1.7.4.7.6 1.6.6 2.5v8.4h-2.7v-7.7c0-.6 0-1.2-.3-1.6-.3-.5-.6-.8-1-1-.5-.3-1-.5-1.5-.5a3 3 0 0 0-1.6.4l-1 1c-.2.6-.3 1.1-.3 1.7v7.7h-2.7Z"/><rect width="275" height="69" y="900" fill="url(#i)" rx="20"/><path fill="#000" d="M55.1 944.5v-17.9H61c1.8 0 3.4.4 4.8 1.1 1.4.8 2.4 1.8 3.2 3.2a9.4 9.4 0 0 1 1.1 4.6c0 1.8-.4 3.4-1.1 4.7a8 8 0 0 1-3.2 3.2c-1.4.7-3 1.1-4.8 1.1H55ZM58 942h3c1.3 0 2.4-.3 3.3-.8 1-.5 1.7-1.3 2.2-2.2.5-1 .8-2.1.8-3.5 0-1.3-.3-2.4-.8-3.3-.5-1-1.3-1.7-2.2-2.3-1-.5-2-.8-3.3-.8h-3V942Zm20.7 2.8c-1.2 0-2.4-.3-3.4-.9-1-.6-1.8-1.4-2.3-2.4-.6-1-.9-2.2-.9-3.5a6.4 6.4 0 0 1 9-6.2c.8.3 1.5.7 2 1.3a6.7 6.7 0 0 1 1.5 5.7H74.3v-2.2H83l-1.3 1a3.4 3.4 0 0 0-1.4-3.5c-.5-.4-1.1-.6-1.9-.6a3.4 3.4 0 0 0-3.2 2.1c-.3.7-.4 1.5-.3 2.4-.1.9 0 1.6.3 2.3.4.7.8 1.2 1.4 1.5a4 4 0 0 0 2 .6c.9 0 1.5-.2 2-.5.6-.4 1-.8 1.4-1.4l2.2 1c-.3.7-.7 1.2-1.2 1.7a6 6 0 0 1-2 1.2 7 7 0 0 1-2.4.4Zm13.5 0c-1.4 0-2.5-.3-3.5-1s-1.7-1.5-2.1-2.6l2-1c.4.7.9 1.3 1.5 1.7.6.5 1.3.7 2 .7s1.2-.2 1.6-.5c.4-.2.6-.6.6-1.1 0-.3 0-.6-.2-.8a2 2 0 0 0-.7-.5l-.8-.3-2-.6c-1.2-.3-2-.8-2.6-1.4-.5-.7-.8-1.4-.8-2.3 0-.8.2-1.4.6-2 .4-.6 1-1 1.7-1.4.7-.3 1.5-.5 2.4-.5 1.1 0 2.2.3 3.1 1 1 .5 1.6 1.3 2 2.3l-2 1c-.4-.6-.8-1.1-1.3-1.5-.6-.3-1.2-.5-1.9-.5-.6 0-1 .1-1.4.4-.3.3-.5.6-.5 1.1 0 .3 0 .6.2.8l.7.4c.2.2.5.3.7.3l2.2.7a5 5 0 0 1 2.4 1.4c.6.6.9 1.4.9 2.3 0 .8-.2 1.4-.6 2-.4.6-1 1-1.7 1.4-.7.3-1.6.5-2.5.5Zm7.5-.3v-13h2.7v13h-2.7Zm0-14.8v-3h2.7v3h-2.7Zm12.1 20c-1 0-1.8 0-2.6-.4-.8-.3-1.5-.7-2-1.2a5 5 0 0 1-1.4-2l2.5-1c.2.7.6 1.2 1.2 1.6a4 4 0 0 0 2.3.6 4 4 0 0 0 1.8-.4 3 3 0 0 0 1.3-1.2c.3-.5.5-1.1.5-1.8v-3l.5.6c-.5.9-1 1.5-1.9 2-.8.4-1.7.6-2.7.6a6.3 6.3 0 0 1-5.5-3.2c-.5-1-.8-2-.8-3.3 0-1.2.3-2.3.8-3.3.6-1 1.3-1.7 2.3-2.2a6.2 6.2 0 0 1 5.9-.2 5 5 0 0 1 1.9 1.8l-.4.7v-2.9h2.6V944a5.6 5.6 0 0 1-3 5.1c-1 .5-2 .8-3.3.8Zm-.1-8.2c.7 0 1.3-.1 1.9-.5.5-.3 1-.8 1.3-1.3a4 4 0 0 0 .5-2 4 4 0 0 0-.5-2 3.7 3.7 0 0 0-5.2-1.4 3.7 3.7 0 0 0-1.9 3.4c0 .7.2 1.3.5 2 .4.5.8 1 1.4 1.3.6.4 1.2.5 2 .5Zm9.6 3v-13h2.6v2.6l-.4-.4c.4-.8.9-1.4 1.6-1.8.7-.5 1.5-.7 2.4-.7 1 0 1.8.2 2.6.7.7.4 1.3 1 1.7 1.7.4.7.6 1.6.6 2.5v8.4h-2.7v-7.7c0-.6 0-1.2-.3-1.6-.3-.5-.6-.8-1-1-.5-.3-1-.5-1.5-.5a3 3 0 0 0-1.6.4l-1 1c-.2.6-.3 1.1-.3 1.7v7.7h-2.7Zm18.5 0v-17.9h6.5c1.2 0 2.2.2 3.2.7.9.4 1.6 1 2 2 .6.7.9 1.7.9 3 0 1.1-.3 2.2-1 3-.6 1-1.4 1.6-2.4 2l4.1 7.2h-3.2l-4.4-7.8 1.8 1h-4.7v6.8h-2.8Zm2.8-9.2h3.7c.7 0 1.3-.2 1.7-.4.5-.3.9-.6 1.1-1 .3-.5.5-1 .5-1.7a3 3 0 0 0-.5-1.6c-.2-.5-.6-.8-1-1-.5-.3-1.1-.5-1.8-.5h-3.7v6.2Zm18 9.5c-1.3 0-2.5-.3-3.5-.9-1-.6-1.7-1.4-2.3-2.4-.6-1-.8-2.2-.8-3.5a6.4 6.4 0 0 1 9-6.2c.8.3 1.4.7 2 1.3.5.6.9 1.3 1.1 2a6.7 6.7 0 0 1 .3 3.7h-10.3v-2.2h8.8l-1.3 1a3.4 3.4 0 0 0-1.4-3.5c-.5-.4-1.1-.6-1.8-.6a3.4 3.4 0 0 0-3.2 2.1c-.3.7-.5 1.5-.4 2.4 0 .9 0 1.6.4 2.3.3.7.8 1.2 1.4 1.5a4 4 0 0 0 2 .6c.8 0 1.5-.2 2-.5.6-.4 1-.8 1.3-1.4l2.2 1c-.2.7-.6 1.2-1.2 1.7a6 6 0 0 1-1.9 1.2 7 7 0 0 1-2.4.4Zm12.1-.3-5-13h3l3.8 10.6h-1l3.9-10.6h3l-5.2 13h-2.5Zm9.5 0v-13h2.7v13h-2.7Zm0-14.8v-3h2.7v3h-2.7Zm12 15c-1.3 0-2.5-.2-3.5-.8-1-.6-1.8-1.4-2.3-2.4-.6-1-.9-2.2-.9-3.5a6.4 6.4 0 0 1 9-6.2c.8.3 1.5.7 2 1.3a6.7 6.7 0 0 1 1.5 5.7h-10.3v-2.2h8.8l-1.3 1a3.4 3.4 0 0 0-1.4-3.5c-.5-.4-1.1-.6-1.9-.6a3.4 3.4 0 0 0-3.2 2.1c-.3.7-.4 1.5-.3 2.4-.1.9 0 1.6.3 2.3.4.7.8 1.2 1.4 1.5a4 4 0 0 0 2 .6c.9 0 1.5-.2 2-.5.6-.4 1-.8 1.4-1.4l2.2 1c-.3.7-.7 1.2-1.2 1.7a6 6 0 0 1-2 1.2 7 7 0 0 1-2.3.4Zm11.7-.2-4.4-13h2.8l3.4 10.4h-1l3.5-10.4h2.5L216 942h-1l3.5-10.4h2.8l-4.4 13h-2.5l-3.5-10.6h.9l-3.5 10.6h-2.5Z"/><rect width="238.5" height="56.5" x="448.8" y="211.8" fill="#DBEAFE" rx="11.3"/><rect width="238.5" height="56.5" x="448.8" y="211.8" stroke="#4B5563" stroke-dasharray="8 8" stroke-width="1.5" rx="11.3"/><path fill="#222" d="M541.4 250.3a7.4 7.4 0 0 1-5.6-2.4 7 7 0 0 1-1.5-2.5l2.4-1c.5 1 1.1 2 2 2.5.8.6 1.7.9 2.8.9.7 0 1.2-.1 1.7-.3.5-.2.8-.5 1.1-.9.3-.3.4-.8.4-1.2 0-.7-.2-1.2-.5-1.6-.4-.4-1-.7-1.7-.9l-3.3-1c-1.4-.5-2.4-1.1-3.1-2-.7-.8-1-1.8-1-3 0-1 .2-1.9.7-2.6a5 5 0 0 1 2-1.8 7.2 7.2 0 0 1 8.2 1.5c.6.6 1.1 1.4 1.4 2.2l-2.4 1c-.3-.9-.9-1.6-1.6-2.1a4.4 4.4 0 0 0-4.1-.5c-.5.2-.8.5-1 .9-.3.3-.5.8-.5 1.3 0 .6.2 1 .6 1.5.4.5 1 .8 1.7 1l3.1 1c1.4.4 2.5 1 3.2 1.9.7.8 1.1 1.8 1.1 3 0 1-.3 1.8-.8 2.6s-1.2 1.4-2.1 1.8c-1 .5-2 .7-3.2.7Zm14.6-.2c-1.3 0-2.4-.3-3.1-1.1a4.4 4.4 0 0 1-1.2-3.2v-6.3h-2.2V237h.3c.6 0 1-.2 1.4-.5.4-.4.5-.8.5-1.5v-1h2.7v3h3v2.5h-3v6.1c0 .5.1.9.3 1.2.1.3.3.5.7.7.3.2.7.2 1.2.2h.9v2.3a30.5 30.5 0 0 1-1.5.1Zm10 .2c-1.3 0-2.4-.3-3.5-.9-1-.6-1.7-1.4-2.3-2.4-.5-1-.8-2.2-.8-3.5a6.4 6.4 0 0 1 9-6.2c.8.3 1.4.7 2 1.3.5.6.9 1.3 1.1 2a6.7 6.7 0 0 1 .4 3.7h-10.4V242h8.8l-1.3 1a3.4 3.4 0 0 0-1.3-3.5c-.6-.4-1.2-.6-2-.6a3.4 3.4 0 0 0-3.1 2.1c-.3.7-.5 1.5-.4 2.4 0 .9 0 1.6.4 2.3.3.7.8 1.2 1.4 1.5a4 4 0 0 0 2 .6c.8 0 1.5-.2 2-.5.6-.4 1-.8 1.3-1.4l2.2 1c-.2.7-.6 1.2-1.2 1.7a6 6 0 0 1-1.9 1.2 7 7 0 0 1-2.4.4Zm8.6 4.5V237h2.6v2.7l-.3-.6a5 5 0 0 1 2-1.7c.7-.5 1.6-.7 2.7-.7a6.3 6.3 0 0 1 5.6 3.3 7 7 0 0 1 .9 3.5 7 7 0 0 1-3.2 5.9c-1 .6-2 .9-3.3.9-1 0-2-.2-2.8-.6-.8-.5-1.4-1-1.9-1.8l.4-.5v7.4h-2.7Zm6.7-7a3.8 3.8 0 0 0 3.4-2.1 4.5 4.5 0 0 0 0-4.4 3.8 3.8 0 0 0-3.4-2 3.9 3.9 0 0 0-3.5 2c-.3.7-.5 1.4-.5 2.2 0 .8.2 1.5.5 2.2a3.9 3.9 0 0 0 3.5 2Zm16.2 2.2v-15.5h-3.4v-2.4h6.2V250h-2.8Z"/><circle cx="688" cy="240" r="6.5" fill="#EFF6FF" stroke="#60A5FA" stroke-width="3"/><path fill="#60A5FA" d="M696 242a1.5 1.5 0 1 1 0-3v3ZM863.7 55c.6.5.6 1.5 0 2l-9.5 9.6a1.5 1.5 0 1 1-2.1-2.1l8.5-8.5-8.5-8.5a1.5 1.5 0 1 1 2.1-2.1l9.5 9.5ZM696 239h12v3h-12v-3Zm34.5-22.6V80h3v136.4h-3ZM756 54.5h106.7v3H756v-3ZM730.5 80c0-14 11.4-25.5 25.5-25.5v3c-12.4 0-22.5 10-22.5 22.5h-3ZM708 239c12.4 0 22.5-10.1 22.5-22.6h3c0 14.1-11.4 25.5-25.5 25.5v-3Z"/><path fill="#60A5FA" d="M696 238.5a1.5 1.5 0 0 0 0 3v-3Zm167.7 187c.6-.6.6-1.5 0-2.1l-9.5-9.6a1.5 1.5 0 1 0-2.1 2.2l8.5 8.4-8.5 8.5a1.5 1.5 0 1 0 2.1 2.1l9.5-9.5ZM696 241.5h12v-3h-12v3Zm34.5 22.5v136.4h3V264h-3ZM756 426h106.7v-3H756v3Zm-25.5-25.6c0 14.1 11.4 25.5 25.5 25.5v-3c-12.4 0-22.5-10-22.5-22.5h-3ZM708 241.5c12.4 0 22.5 10 22.5 22.5h3c0-14-11.4-25.5-25.5-25.5v3Z"/><rect width="276" height="69" x="864" y="20" fill="url(#j)" rx="20"/><path fill="#000" d="m955 64.5 6.3-17.9h3.5l6.3 17.9h-3l-1.4-4h-7.3l-1.4 4h-3Zm5.2-6.5h5.6l-3.2-9.4h.8l-3.2 9.4Zm12.7 6.5v-13h2.6v2.6l-.3-.4c.3-.8.8-1.4 1.5-1.8.7-.5 1.6-.7 2.5-.7 1 0 1.8.2 2.5.7.8.4 1.3 1 1.8 1.7.4.7.6 1.6.6 2.5v8.4h-2.7v-7.7c0-.6-.1-1.2-.4-1.6-.2-.5-.5-.8-1-1-.4-.3-1-.5-1.5-.5a3 3 0 0 0-1.5.4c-.4.3-.8.6-1 1-.2.6-.4 1.1-.4 1.7v7.7H973Zm18 .3c-.9 0-1.7-.2-2.4-.5a3.5 3.5 0 0 1-2-3.3c0-.6.1-1.3.4-1.8.3-.6.8-1 1.5-1.4.6-.4 1.5-.7 2.5-.9l4.5-.7v2.1l-4 .7a3 3 0 0 0-1.6.7c-.3.3-.5.8-.5 1.3s.2.9.5 1.2c.4.3 1 .5 1.5.5.7 0 1.4-.2 2-.5A3.4 3.4 0 0 0 995 59v-3.3a2 2 0 0 0-.7-1.6c-.5-.4-1.1-.6-2-.6-.6 0-1.3.2-1.8.6-.5.3-1 .8-1.2 1.4l-2.2-1.1c.2-.7.6-1.2 1.1-1.7a6.7 6.7 0 0 1 7-1 4.3 4.3 0 0 1 2.5 4v8.7H995v-2.4l.6.1c-.4.5-.7 1-1.2 1.4a5 5 0 0 1-1.6.9 6 6 0 0 1-2 .3Zm10-.3V46.3h2.7v18.2h-2.7Zm7 5.3a4.9 4.9 0 0 1-1.8-.3V67l.7.2h.8c.7 0 1.3-.1 1.6-.5a4 4 0 0 0 1-1.5l.9-2v2.3l-5.7-14h3l4 10.7h-.9l4.1-10.8h3l-5.8 14.4c-.3.8-.7 1.5-1.1 2-.5.6-1 1-1.6 1.4-.6.3-1.4.5-2.2.5Zm17.3-5c-1.3 0-2.5-.3-3.5-1s-1.7-1.5-2-2.6l2-1c.4.7.8 1.3 1.4 1.7.7.5 1.4.7 2.1.7.6 0 1.2-.2 1.6-.5.4-.2.6-.6.6-1.1 0-.3-.1-.6-.3-.8a2 2 0 0 0-.7-.5l-.8-.3-2-.6c-1.1-.3-2-.8-2.5-1.4-.6-.7-.8-1.4-.8-2.3 0-.8.2-1.4.6-2 .4-.6 1-1 1.6-1.4.7-.3 1.5-.5 2.4-.5 1.2 0 2.2.3 3.2 1 .9.5 1.6 1.3 2 2.3l-2.1 1c-.3-.6-.7-1.1-1.3-1.5-.5-.3-1.1-.5-1.8-.5-.6 0-1 .1-1.4.4-.4.3-.6.6-.6 1.1 0 .3.1.6.3.8.1.2.3.3.6.4.3.2.5.3.8.3l2.1.7a5 5 0 0 1 2.5 1.4c.5.6.8 1.4.8 2.3 0 .8-.2 1.4-.6 2-.4.6-1 1-1.7 1.4-.7.3-1.5.5-2.5.5Zm7.5-.3v-13h2.7v13h-2.7Zm0-14.8v-3h2.7v3h-2.7Zm10.7 15c-1.4 0-2.5-.2-3.5-.9s-1.7-1.5-2.1-2.6l2-1c.4.7.9 1.3 1.5 1.7.6.5 1.3.7 2 .7s1.2-.2 1.6-.5c.4-.2.6-.6.6-1.1 0-.3 0-.6-.2-.8a2 2 0 0 0-.7-.5l-.8-.3-2-.6c-1.1-.3-2-.8-2.5-1.4-.6-.7-.9-1.4-.9-2.3 0-.8.2-1.4.6-2 .4-.6 1-1 1.7-1.4.7-.3 1.5-.5 2.4-.5 1.2 0 2.2.3 3.1 1 1 .5 1.6 1.3 2 2.3l-2 1c-.3-.6-.8-1.1-1.3-1.5-.6-.3-1.2-.5-1.9-.5-.5 0-1 .1-1.4.4-.3.3-.5.6-.5 1.1 0 .3 0 .6.2.8l.7.4c.2.2.5.3.8.3l2 .7a5 5 0 0 1 2.5 1.4c.6.6.9 1.4.9 2.3 0 .8-.2 1.4-.6 2-.4.6-1 1-1.7 1.4-.7.3-1.6.5-2.5.5Z"/><rect width="276" height="69" x="864" y="204" fill="url(#k)" rx="20"/><path fill="#000" d="M924 248.8a7.4 7.4 0 0 1-5.6-2.4 7 7 0 0 1-1.4-2.5l2.4-1c.5 1 1 2 2 2.5.8.6 1.7.9 2.8.9.6 0 1.2-.1 1.7-.3.5-.2.8-.5 1-.9.4-.3.5-.8.5-1.2 0-.7-.2-1.2-.6-1.6-.3-.4-.9-.7-1.6-.9l-3.3-1c-1.4-.5-2.4-1.1-3.1-2-.7-.8-1-1.8-1-3 0-1 .2-1.9.7-2.6a5 5 0 0 1 2-1.8 7.2 7.2 0 0 1 8.2 1.5c.6.6 1.1 1.4 1.4 2.2l-2.4 1c-.3-.9-.9-1.6-1.6-2.1a4.4 4.4 0 0 0-4.2-.5c-.4.2-.8.5-1 .9a2.4 2.4 0 0 0 .2 2.8c.4.5 1 .8 1.7 1l3 1c1.5.4 2.6 1 3.3 1.9.7.8 1 1.8 1 3 0 1-.2 1.8-.7 2.6-.5.8-1.2 1.4-2.1 1.8-1 .5-2 .7-3.2.7Zm15.2 0c-1.3 0-2.5-.3-3.5-.9-1-.6-1.7-1.4-2.3-2.4-.6-1-.8-2.2-.8-3.5a6.4 6.4 0 0 1 9-6.2c.8.3 1.4.7 2 1.3.5.6.9 1.3 1.1 2a6.7 6.7 0 0 1 .3 3.7h-10.3v-2.2h8.8l-1.3 1a3.4 3.4 0 0 0-1.4-3.5c-.5-.4-1.1-.6-1.8-.6a3.4 3.4 0 0 0-3.2 2.1c-.3.7-.5 1.5-.4 2.4 0 .9 0 1.6.4 2.3.3.7.8 1.2 1.4 1.5a4 4 0 0 0 2 .6c.8 0 1.5-.2 2-.5.6-.4 1-.8 1.3-1.4l2.2 1c-.2.7-.6 1.2-1.2 1.7a6 6 0 0 1-1.9 1.2 7 7 0 0 1-2.4.4Zm14.2-.2c-1.3 0-2.4-.3-3.1-1.1a4.4 4.4 0 0 1-1.2-3.2V238H947v-2.5h.3c.6 0 1-.2 1.4-.5.4-.4.5-.8.5-1.5v-1h2.7v3h3v2.5h-3v6.1c0 .5.1.9.3 1.2.1.3.3.5.7.7.3.2.7.2 1.2.2h.9v2.3a30.5 30.5 0 0 1-1.5.1Zm17.3.2a9.4 9.4 0 0 1-6.6-2.7 9.2 9.2 0 0 1-2.6-6.6 8.9 8.9 0 0 1 5.6-8.5c1-.4 2.3-.7 3.6-.7a9.3 9.3 0 0 1 6.5 2.6 9.5 9.5 0 0 1 2.7 6.6 9.2 9.2 0 0 1-5.6 8.6c-1.1.5-2.3.7-3.6.7Zm0-2.6a6.3 6.3 0 0 0 6-4 7.2 7.2 0 0 0-1.4-7.4 6 6 0 0 0-4.6-1.9 6.1 6.1 0 0 0-4.6 2 6.6 6.6 0 0 0-1.8 4.6c0 1 .2 1.9.5 2.7.3.8.7 1.5 1.3 2.1a6.2 6.2 0 0 0 4.6 1.9Zm19 2.6c-1 0-1.9-.2-2.7-.6-.8-.5-1.5-1-2-1.8l.4-.5v2.6h-2.6v-18.2h2.7v7.9l-.4-.6a5 5 0 0 1 2-1.7c.7-.5 1.6-.7 2.6-.7a6.3 6.3 0 0 1 5.7 3.3 7 7 0 0 1 .8 3.5 7 7 0 0 1-3.1 5.9c-1 .6-2.1.9-3.4.9Zm-.2-2.5a3.8 3.8 0 0 0 3.4-2.1c.4-.7.5-1.4.5-2.2 0-.8-.1-1.5-.5-2.2a3.8 3.8 0 0 0-3.4-2 3.9 3.9 0 0 0-3.5 2c-.3.7-.5 1.4-.5 2.2 0 .8.2 1.5.5 2.2a3.9 3.9 0 0 0 3.5 2Zm7.4 7.5h-.6l-.5-.1v-2.4l.9.1c.6 0 1.2-.2 1.6-.5.4-.4.6-.9.6-1.6v-13.8h2.7v13.8c0 1-.2 1.8-.6 2.5-.4.6-1 1.1-1.7 1.5-.7.3-1.5.5-2.4.5Zm2-20v-3.2h2.7v3.1h-2.7Zm12 15c-1.3 0-2.5-.3-3.5-.9-1-.6-1.8-1.4-2.3-2.4-.6-1-.9-2.2-.9-3.5a6.5 6.5 0 0 1 3.1-5.9c1-.6 2.1-.9 3.3-.9 1 0 1.9.2 2.7.5.7.4 1.4.8 2 1.4l1.1 2c.3.8.4 1.6.4 2.4V242.8h-10.4v-2.2h8.8l-1.3 1a3.4 3.4 0 0 0-1.4-3.5c-.5-.4-1.1-.6-1.9-.6a3.4 3.4 0 0 0-3.2 2.1 5 5 0 0 0-.3 2.4c-.1.9 0 1.6.3 2.3.4.7.8 1.2 1.4 1.5a4 4 0 0 0 2 .6c.9 0 1.5-.2 2-.5.6-.4 1-.8 1.4-1.4l2.2 1c-.3.7-.6 1.2-1.2 1.7a6 6 0 0 1-2 1.2 7 7 0 0 1-2.3.4Zm14.8 0c-1.3 0-2.5-.3-3.5-.9-1-.6-1.8-1.4-2.4-2.4a7 7 0 0 1-.8-3.5 7 7 0 0 1 .8-3.5 6.7 6.7 0 0 1 5.8-3.3 6.4 6.4 0 0 1 4.5 1.8 5 5 0 0 1 1.3 1.9l-2.4 1c-.3-.6-.7-1.1-1.3-1.5-.6-.4-1.3-.7-2-.7a3.7 3.7 0 0 0-3.4 2.1c-.3.7-.5 1.4-.5 2.2 0 .8.2 1.5.5 2.2a3.7 3.7 0 0 0 3.4 2c.7 0 1.4-.1 2-.5.6-.4 1-1 1.3-1.7l2.4 1.1a5 5 0 0 1-1.3 2 6.3 6.3 0 0 1-4.4 1.7Zm14-.2c-1.4 0-2.5-.3-3.2-1.1a4.4 4.4 0 0 1-1.1-3.2V238h-2.3v-2.5h.3c.6 0 1.1-.2 1.5-.5.3-.4.5-.8.5-1.5v-1h2.7v3h3v2.5h-3v6.1c0 .5 0 .9.2 1.2.1.3.4.5.7.7.3.2.7.2 1.2.2a4.5 4.5 0 0 0 1 0v2.3a28.8 28.8 0 0 1-1.5.1Zm4-.1v-13h2.8v13h-2.7Zm0-14.8v-3h2.8v3h-2.7Zm9.7 14.8-5-13h2.9l3.9 10.6h-1l3.8-10.6h3l-5.1 13h-2.5Zm15.3.3c-1.3 0-2.4-.3-3.5-.9-1-.6-1.7-1.4-2.3-2.4-.5-1-.8-2.2-.8-3.5a6.5 6.5 0 0 1 3.2-5.9c.9-.6 2-.9 3.2-.9 1 0 1.8.2 2.6.5.8.4 1.4.8 2 1.4a6.6 6.6 0 0 1 1.6 4.4v.7l-.1.6h-10.4v-2.2h8.8l-1.3 1c.2-.8.1-1.5-.1-2a3 3 0 0 0-1.2-1.5c-.6-.4-1.2-.6-2-.6a3.4 3.4 0 0 0-3.1 2.1c-.3.7-.5 1.5-.4 2.4 0 .9 0 1.6.4 2.3.3.7.8 1.2 1.4 1.5.6.4 1.3.6 2 .6.8 0 1.5-.2 2-.5.6-.4 1-.8 1.3-1.4l2.3 1a6 6 0 0 1-3.1 2.8c-.8.4-1.6.5-2.5.5Zm13.4 0c-1.3 0-2.5-.3-3.5-1s-1.7-1.5-2-2.6l2-1c.4.7.9 1.3 1.5 1.7.6.5 1.3.7 2 .7s1.2-.2 1.6-.5c.4-.2.6-.6.6-1.1 0-.3-.1-.6-.3-.8a2 2 0 0 0-.7-.5l-.7-.3-2-.6c-1.2-.3-2-.8-2.6-1.4-.5-.7-.8-1.4-.8-2.3 0-.8.2-1.4.6-2 .4-.6 1-1 1.6-1.4.8-.3 1.5-.5 2.4-.5 1.2 0 2.3.3 3.2 1 1 .5 1.6 1.3 2 2.3l-2.1 1c-.3-.6-.7-1.1-1.3-1.5-.5-.3-1.1-.5-1.8-.5-.6 0-1 .1-1.4.4-.4.3-.6.6-.6 1.1 0 .3.1.6.3.8l.6.4c.3.2.5.3.8.3l2.1.7a5 5 0 0 1 2.5 1.4c.6.6.9 1.4.9 2.3 0 .8-.3 1.4-.7 2-.4.6-1 1-1.6 1.4-.8.3-1.6.5-2.6.5Z"/><rect width="277" height="69" x="863" y="389" fill="url(#l)" rx="20"/><path fill="#000" d="M900.6 433.5v-17.9h6.5c1.2 0 2.3.2 3.2.7.9.4 1.6 1 2.1 2 .5.7.8 1.7.8 3 0 1.1-.3 2.2-1 3-.5 1-1.4 1.6-2.4 2l4.1 7.2h-3.2l-4.4-7.8 1.9 1h-4.8v6.8h-2.8Zm2.8-9.2h3.8c.6 0 1.2-.2 1.7-.4.4-.3.8-.6 1-1 .3-.5.5-1 .5-1.7a3 3 0 0 0-.4-1.6c-.3-.5-.7-.8-1.1-1-.5-.3-1-.5-1.7-.5h-3.8v6.2Zm12.6 9.2v-13h2.8v13H916Zm0-14.8v-3h2.8v3H916Zm10.7 15c-1.3 0-2.5-.2-3.5-.9s-1.7-1.5-2-2.6l2-1c.4.7.9 1.3 1.5 1.7.6.5 1.3.7 2 .7s1.2-.2 1.6-.5c.4-.2.6-.6.6-1.1 0-.3-.1-.6-.3-.8a2 2 0 0 0-.6-.5l-.8-.3-2-.6c-1.2-.3-2-.8-2.6-1.4-.5-.7-.8-1.4-.8-2.3 0-.8.2-1.4.6-2 .4-.6 1-1 1.6-1.4.7-.3 1.5-.5 2.4-.5 1.2 0 2.3.3 3.2 1 1 .5 1.6 1.3 2 2.3l-2.1 1c-.3-.6-.7-1.1-1.3-1.5-.5-.3-1.1-.5-1.8-.5-.6 0-1 .1-1.4.4-.4.3-.5.6-.5 1.1 0 .3 0 .6.2.8l.6.4c.3.2.5.3.8.3l2.1.7a5 5 0 0 1 2.5 1.4c.6.6.9 1.4.9 2.3 0 .8-.3 1.4-.7 2-.4.6-1 1-1.6 1.4-.8.3-1.6.5-2.6.5Zm7.5-.2v-18.2h2.7v12.2l-1-.3 6.5-6.7h3.4l-5 5.2 5.2 7.8h-3.1l-4.6-6.9 1.6-.2-3.8 4 .8-1.7v4.8h-2.7Zm18 0v-17.9h2.7l6.7 9.3h-1.3l6.6-9.3h2.7v17.9h-2.8V419l1 .2-6.7 9.3h-.3l-6.6-9.3 1-.2v14.5h-3Zm24.7.3c-.9 0-1.7-.2-2.3-.5-.7-.3-1.2-.7-1.6-1.3-.3-.5-.5-1.2-.5-2 0-.6.1-1.3.4-1.8.4-.6.8-1 1.5-1.4.6-.4 1.5-.7 2.5-.9l4.5-.7v2.1l-4 .7a3 3 0 0 0-1.6.7c-.3.3-.5.8-.5 1.3s.2.9.6 1.2c.3.3.8.5 1.4.5.8 0 1.4-.2 2-.5a3.4 3.4 0 0 0 1.7-3.1v-3.3a2 2 0 0 0-.7-1.6c-.5-.4-1.1-.6-1.9-.6-.7 0-1.4.2-1.9.6-.5.3-1 .8-1.2 1.4l-2.2-1.1c.2-.7.6-1.2 1.1-1.7a6.7 6.7 0 0 1 7-1 4.3 4.3 0 0 1 2.5 4v8.7h-2.6v-2.4l.6.1a5 5 0 0 1-2.8 2.3 6 6 0 0 1-2 .3Zm10-.3v-13h2.6v2.6l-.3-.4c.3-.8.8-1.4 1.5-1.8.7-.5 1.5-.7 2.4-.7 1 0 1.8.2 2.6.7.7.4 1.3 1 1.7 1.7.4.7.6 1.6.6 2.5v8.4h-2.7v-7.7c0-.6 0-1.2-.3-1.6-.3-.5-.6-.8-1-1-.5-.3-1-.5-1.5-.5a3 3 0 0 0-1.5.4c-.5.3-.8.6-1 1-.3.6-.4 1.1-.4 1.7v7.7h-2.7Zm18 .3c-1 0-1.7-.2-2.4-.5s-1.2-.7-1.5-1.3c-.4-.5-.6-1.2-.6-2 0-.6.2-1.3.5-1.8.3-.6.8-1 1.4-1.4.7-.4 1.5-.7 2.5-.9l4.5-.7v2.1l-4 .7c-.7.2-1.2.4-1.5.7-.4.3-.6.8-.6 1.3s.2.9.6 1.2c.4.3.9.5 1.5.5a3.7 3.7 0 0 0 3.2-1.8c.3-.5.4-1.1.4-1.8v-3.3a2 2 0 0 0-.7-1.6c-.5-.4-1-.6-1.9-.6a3.3 3.3 0 0 0-3 2l-2.3-1.1c.3-.7.6-1.2 1.2-1.7.5-.5 1.2-.9 1.9-1.2a6.7 6.7 0 0 1 5 .2 4.3 4.3 0 0 1 2.5 4v8.7h-2.6v-2.4l.6.1a5.1 5.1 0 0 1-2.8 2.3 6 6 0 0 1-2 .3Zm16.2 5c-1 0-1.8-.2-2.6-.5a6 6 0 0 1-2.1-1.2 5 5 0 0 1-1.3-2l2.5-1a3 3 0 0 0 1.2 1.6 4 4 0 0 0 2.3.6 4 4 0 0 0 1.8-.4 3 3 0 0 0 1.3-1.2c.3-.5.5-1.1.5-1.8v-3l.5.6c-.5.9-1.1 1.5-2 2a6.3 6.3 0 0 1-8.2-2.5c-.4-1-.7-2.1-.7-3.4 0-1.2.3-2.3.8-3.3a6.3 6.3 0 0 1 5.5-3 5.3 5.3 0 0 1 4.6 2.4l-.4.7v-2.9h2.6V433c0 1.1-.3 2.1-.9 3-.5.9-1.2 1.6-2.2 2.1-.9.5-2 .8-3.2.8Zm-.2-8.3c.8 0 1.4-.1 2-.5.5-.3 1-.8 1.3-1.3a4 4 0 0 0 .5-2 4 4 0 0 0-1.9-3.4c-.5-.4-1.2-.6-1.9-.6s-1.4.2-2 .6c-.5.3-1 .8-1.3 1.4a4 4 0 0 0-.5 2c0 .7.2 1.3.5 2 .3.5.8 1 1.4 1.3.5.4 1.2.5 2 .5Zm15.7 3.3c-1.3 0-2.4-.3-3.4-.9-1-.6-1.8-1.4-2.4-2.4-.5-1-.8-2.2-.8-3.5a6.5 6.5 0 0 1 3.2-5.9 6.5 6.5 0 0 1 5.9-.4 5.8 5.8 0 0 1 3.1 3.4c.3.8.4 1.6.4 2.4v.7l-.1.6h-10.3v-2.2h8.8l-1.3 1c.1-.8 0-1.5-.2-2a3 3 0 0 0-1.2-1.5c-.5-.4-1.2-.6-1.9-.6a3.4 3.4 0 0 0-3.2 2.1c-.3.7-.4 1.5-.4 2.4 0 .9 0 1.6.4 2.3.3.7.8 1.2 1.4 1.5.6.4 1.3.6 2 .6.9 0 1.5-.2 2-.5.6-.4 1-.8 1.4-1.4l2.2 1c-.3.7-.7 1.2-1.2 1.7a6 6 0 0 1-2 1.2c-.7.3-1.5.4-2.4.4Zm8.7-.3v-13h2.5v2.8l-.3-.4c.3-.9.8-1.6 1.5-2 .7-.4 1.5-.7 2.5-.7s2 .3 2.7.9a4 4 0 0 1 1.7 2.2h-.8c.4-1 1-1.8 1.8-2.3a5 5 0 0 1 2.7-.8 4.8 4.8 0 0 1 4.8 4.9v8.4h-2.7v-7.7c0-.6-.1-1.2-.4-1.6-.2-.5-.5-.8-1-1-.3-.3-.8-.5-1.3-.5-.6 0-1 .2-1.5.4l-1 1c-.2.6-.3 1.1-.3 1.7v7.7h-2.7v-7.7c0-.6-.1-1.2-.4-1.6-.2-.5-.5-.8-1-1-.3-.3-.8-.5-1.4-.5-.5 0-1 .2-1.4.4-.4.3-.8.6-1 1-.2.6-.3 1.1-.3 1.7v7.7h-2.7Zm28.1.3c-1.3 0-2.4-.3-3.5-.9-1-.6-1.7-1.4-2.3-2.4-.5-1-.8-2.2-.8-3.5a7 7 0 0 1 .8-3.5 6.4 6.4 0 0 1 10.2-1.4 6.6 6.6 0 0 1 1.5 5.7h-10.4v-2.2h8.8l-1.3 1c.2-.8.1-1.5-.1-2a3.2 3.2 0 0 0-3-2 3.4 3.4 0 0 0-3.3 2c-.3.7-.5 1.5-.4 2.4 0 .9 0 1.6.4 2.3.3.7.8 1.2 1.4 1.5a4 4 0 0 0 2 .6c.8 0 1.5-.2 2-.5.6-.4 1-.8 1.3-1.4l2.3 1c-.3.7-.7 1.2-1.3 1.7-.5.5-1.1.9-1.9 1.2-.7.3-1.5.4-2.4.4Zm8.6-.3v-13h2.6v2.6l-.3-.4c.3-.8.9-1.4 1.5-1.8.8-.5 1.6-.7 2.5-.7 1 0 1.8.2 2.5.7.8.4 1.4 1 1.8 1.7.4.7.6 1.6.6 2.5v8.4h-2.7v-7.7c0-.6-.1-1.2-.3-1.6-.3-.5-.6-.8-1-1-.5-.3-1-.5-1.6-.5a3 3 0 0 0-1.5.4c-.4.3-.8.6-1 1-.2.6-.3 1.1-.3 1.7v7.7h-2.8Zm19.7.1c-1.4 0-2.4-.3-3.2-1.1a4.4 4.4 0 0 1-1-3.2V423h-2.4v-2.5h.4c.6 0 1-.2 1.4-.5.3-.4.5-.8.5-1.5v-1h2.7v3h3v2.5h-3v6.1l.2 1.2.7.7c.4.2.8.2 1.3.2h.9v2.3a37.5 37.5 0 0 1-1.5.1Z"/><path fill="#60A5FA" d="M700 238.8a1.5 1.5 0 0 0 0 3v-3Zm163.6 2.6c.5-.6.5-1.6 0-2.2l-9.6-9.5a1.5 1.5 0 0 0-2.1 2.1l8.5 8.5-8.5 8.5a1.5 1.5 0 0 0 2.1 2.1l9.6-9.5Zm-163.6.4h162.5v-3H700v3Z"/><rect width="238.5" height="56.5" x="448.8" y="2253.8" fill="#DBEAFE" rx="11.3"/><rect width="238.5" height="56.5" x="448.8" y="2253.8" stroke="#4B5563" stroke-dasharray="8 8" stroke-width="1.5" rx="11.3"/><path fill="#222" d="M539.2 2292.3a7.3 7.3 0 0 1-7-5l2.4-1c.4 1.2 1 2 1.9 2.6.8.6 1.7.9 2.8.9.7 0 1.2-.1 1.7-.3.5-.2.9-.5 1.1-.9.3-.3.4-.8.4-1.2 0-.7-.2-1.2-.5-1.6-.4-.4-1-.7-1.7-.9l-3.3-1c-1.4-.5-2.4-1.1-3-2-.8-.8-1.1-1.8-1.1-3 0-1 .2-1.9.7-2.6a5 5 0 0 1 2-1.8 7.1 7.1 0 0 1 8.2 1.5 6 6 0 0 1 1.4 2.2l-2.3 1a4.4 4.4 0 0 0-4.3-2.9c-.6 0-1 .1-1.5.3-.5.2-.8.5-1 .9-.3.3-.4.8-.4 1.3s.1 1 .5 1.5 1 .8 1.7 1l3.1 1c1.4.4 2.5 1 3.2 1.9.8.8 1.1 1.8 1.1 3 0 1-.3 1.9-.8 2.6-.5.8-1.2 1.4-2.1 1.8-1 .5-2 .7-3.2.7Zm14.6-.2c-1.3 0-2.4-.3-3.1-1.1a4.4 4.4 0 0 1-1.2-3.3v-6.2h-2.2v-2.5h.3c.6 0 1.1-.2 1.4-.5.4-.4.5-.8.5-1.4v-1h2.8v3h3v2.4h-3v6.1c0 .5 0 .9.2 1.2.1.3.4.5.7.7.3.2.7.2 1.2.2h.9v2.3l-.7.1h-.8Zm10 .2a6.4 6.4 0 0 1-5.8-3.3c-.5-1-.8-2.3-.8-3.5a7 7 0 0 1 .8-3.5 6.4 6.4 0 0 1 5.6-3.3c1 0 1.8.2 2.6.5.8.4 1.4.8 2 1.4a6.6 6.6 0 0 1 1.5 5.7h-10.4v-2.2h8.8l-1.3 1a3.4 3.4 0 0 0-1.3-3.5c-.6-.4-1.2-.6-1.9-.6a3.4 3.4 0 0 0-3.2 2.1c-.3.7-.4 1.5-.4 2.4 0 .9 0 1.6.4 2.3.3.7.8 1.2 1.4 1.5a4 4 0 0 0 2 .6c.8 0 1.5-.2 2-.5.6-.4 1-.8 1.4-1.4l2.2 1c-.3.7-.7 1.2-1.2 1.7a6 6 0 0 1-2 1.2 7 7 0 0 1-2.4.4Zm8.6 4.5V2279h2.6v2.7l-.3-.6a5 5 0 0 1 2-1.8 6 6 0 0 1 2.7-.6c1.2 0 2.3.3 3.3 1 1 .5 1.8 1.3 2.3 2.3a7 7 0 0 1 .9 3.5 6.9 6.9 0 0 1-3.2 5.9c-1 .6-2 .9-3.3.9-1 0-2-.2-2.8-.6-.8-.4-1.4-1-1.9-1.8l.5-.5v7.4h-2.8Zm6.7-7c.8 0 1.5-.2 2-.6.6-.3 1.1-.9 1.4-1.5.4-.6.6-1.4.6-2.2 0-.8-.2-1.6-.6-2.2-.3-.6-.8-1.1-1.3-1.5a3.8 3.8 0 0 0-5.5 1.5c-.4.7-.5 1.4-.5 2.2 0 .8.1 1.6.5 2.2a4 4 0 0 0 1.4 1.5 4 4 0 0 0 2 .6Zm19.2 2.5a6.6 6.6 0 0 1-4.8-2c-.6-.6-1-1.4-1.3-2.2l2.4-1c.3.9.8 1.6 1.4 2 .7.4 1.5.7 2.3.7.7 0 1.3-.2 1.8-.5s.9-.7 1.2-1.2c.3-.6.4-1.2.4-1.8 0-.7-.1-1.3-.4-1.8-.3-.6-.7-1-1.2-1.3-.5-.3-1.1-.4-1.8-.4s-1.3.1-1.8.4c-.6.3-1 .8-1.3 1.3l-2.2-.5 1.3-9.9h9.6v2.4h-8.5l1.1-1.2-1 7.6-.9-.6c.5-.7 1-1.2 1.8-1.5.6-.3 1.4-.4 2.3-.4a5.7 5.7 0 0 1 5.1 2.9c.5.8.7 1.8.7 3a6 6 0 0 1-3 5.2c-1 .5-2 .8-3.2.8Z"/><circle cx="688" cy="2282" r="6.5" fill="#EFF6FF" stroke="#60A5FA" stroke-width="3"/><path fill="#60A5FA" d="M696 2284a1.5 1.5 0 1 1 0-3v3Zm167.7-187c.6.5.6 1.5 0 2l-9.5 9.6c-.6.6-1.5.6-2.1 0-.6-.6-.6-1.5 0-2.1l8.5-8.5-8.5-8.5a1.5 1.5 0 1 1 2.1-2.1l9.5 9.5ZM696 2281h12v3h-12v-3Zm34.5-22.6V2122h3v136.4h-3Zm25.5-161.9h106.7v3H756v-3Zm-25.5 25.5c0-14 11.4-25.5 25.5-25.5v3c-12.4 0-22.5 10-22.5 22.5h-3ZM708 2281c12.4 0 22.5-10.1 22.5-22.6h3c0 14.1-11.4 25.5-25.5 25.5v-3Z"/><path fill="#60A5FA" d="M696 2280.5a1.5 1.5 0 1 0 0 3v-3Zm167.7 187c.6-.6.6-1.5 0-2.1l-9.5-9.6c-.6-.6-1.5-.6-2.1 0-.6.6-.6 1.6 0 2.1l8.5 8.5-8.5 8.5c-.6.6-.6 1.6 0 2.2.6.5 1.5.5 2.1 0l9.5-9.6Zm-167.7-184h12v-3h-12v3Zm34.5 22.5v136.4h3V2306h-3Zm25.5 162h106.7v-3H756v3Zm-25.5-25.6c0 14.1 11.4 25.5 25.5 25.5v-3c-12.4 0-22.5-10-22.5-22.5h-3ZM708 2283.5c12.4 0 22.5 10 22.5 22.5h3c0-14-11.4-25.5-25.5-25.5v3Z"/><rect width="276" height="69" x="864" y="2062" fill="url(#m)" rx="20"/><path fill="#000" d="M931.8 2106.5v-17.9h5.8c1.9 0 3.5.4 4.9 1.2 1.3.7 2.4 1.7 3.1 3a9.4 9.4 0 0 1 1.2 4.8c0 1.7-.4 3.3-1.1 4.6a8 8 0 0 1-3.2 3.2c-1.4.7-3 1.1-4.9 1.1h-5.8Zm2.8-2.5h3c1.3 0 2.4-.3 3.4-.8s1.6-1.3 2.2-2.2c.5-1 .7-2.1.7-3.4 0-1.4-.2-2.5-.8-3.4-.5-1-1.2-1.7-2.1-2.3-1-.5-2-.8-3.3-.8h-3v12.9Zm20.8 2.8c-1.3 0-2.4-.3-3.5-.9-1-.6-1.7-1.4-2.3-2.5-.5-1-.8-2.2-.8-3.4a7 7 0 0 1 .8-3.5 6.4 6.4 0 0 1 5.6-3.3c1 0 1.8.2 2.6.5.8.4 1.4.8 2 1.4.5.6.9 1.3 1.1 2a6.6 6.6 0 0 1 .4 3.7h-10.4v-2.2h8.8l-1.3 1a3.4 3.4 0 0 0-1.3-3.5c-.6-.4-1.2-.6-2-.6a3.4 3.4 0 0 0-3.1 2.1c-.3.7-.5 1.5-.4 2.4 0 .9 0 1.6.4 2.3.3.7.8 1.2 1.4 1.5a4 4 0 0 0 2 .6c.8 0 1.5-.2 2-.5.6-.4 1-.8 1.3-1.4l2.2 1c-.2.7-.6 1.2-1.2 1.7a6 6 0 0 1-1.9 1.2 7 7 0 0 1-2.4.4Zm8.6 4.5v-17.8h2.6v2.7l-.3-.6a5 5 0 0 1 2-1.8 6 6 0 0 1 2.7-.6c1.2 0 2.3.3 3.3 1 1 .5 1.7 1.3 2.3 2.3a7 7 0 0 1 .9 3.5 6.9 6.9 0 0 1-3.2 5.9c-1 .6-2 .9-3.3.9-1 0-2-.2-2.8-.6-.8-.4-1.5-1-1.9-1.8l.4-.5v7.4H964Zm6.7-7c.8 0 1.4-.2 2-.6.6-.3 1-.9 1.4-1.5.4-.6.6-1.4.6-2.2 0-.8-.2-1.6-.6-2.2a3.8 3.8 0 0 0-3.4-2 3.8 3.8 0 0 0-3.5 2c-.3.6-.5 1.4-.5 2.2 0 .8.2 1.6.5 2.2a4 4 0 0 0 1.5 1.5 4 4 0 0 0 2 .6Zm9.4 2.2v-18.2h2.7v18.2h-2.7Zm12.1.3a6.8 6.8 0 0 1-5.8-3.3c-.6-1-1-2.2-1-3.5a6.6 6.6 0 0 1 3.4-5.9c1-.6 2.2-.9 3.4-.9a6.6 6.6 0 0 1 5.9 3.3c.6 1 1 2.2 1 3.5a6.7 6.7 0 0 1-3.4 6c-1 .5-2.2.8-3.5.8Zm0-2.5c.8 0 1.5-.2 2-.6.7-.3 1.1-.9 1.5-1.5.3-.6.5-1.4.5-2.2 0-.8-.2-1.6-.5-2.2-.4-.6-.8-1.1-1.4-1.5a3.8 3.8 0 0 0-5.5 1.5c-.3.7-.5 1.4-.5 2.2 0 .8.2 1.6.5 2.2a4 4 0 0 0 1.4 1.5 4 4 0 0 0 2 .6Zm10.4 7.5a5.2 5.2 0 0 1-1.8-.3v-2.4l.7.2h.8c.7 0 1.3-.1 1.6-.5.4-.3.7-.8 1-1.5l.9-2v2.3l-5.7-14h3l4 10.7h-1l4.2-10.8h3l-5.8 14.4c-.3.8-.7 1.5-1.1 2-.5.6-1 1-1.7 1.4-.6.3-1.3.5-2.1.5Zm12.5-5.3v-13h2.6v2.8l-.4-.4c.3-.9.8-1.6 1.5-2 .8-.5 1.6-.7 2.5-.7 1 0 2 .3 2.8.9.8.5 1.3 1.2 1.6 2.2h-.8c.4-1 1-1.8 1.8-2.3a5 5 0 0 1 2.7-.8 4.8 4.8 0 0 1 4.2 2.4c.4.7.6 1.6.6 2.5v8.4h-2.7v-7.7c0-.6 0-1.2-.3-1.6-.3-.5-.6-.8-1-1-.4-.3-.9-.4-1.4-.4-.5 0-1 0-1.4.3-.5.3-.8.6-1 1-.3.6-.4 1.1-.4 1.7v7.7h-2.7v-7.7c0-.6-.1-1.2-.3-1.6-.3-.5-.6-.8-1-1-.4-.3-.9-.4-1.4-.4-.6 0-1 0-1.5.3l-1 1c-.2.6-.3 1.1-.3 1.7v7.7h-2.7Zm28.1.3a6.4 6.4 0 0 1-5.8-3.3c-.5-1-.8-2.3-.8-3.5a7 7 0 0 1 .9-3.5 6.3 6.3 0 0 1 5.5-3.3c1 0 1.9.2 2.6.5a5.6 5.6 0 0 1 3.2 3.4 6.8 6.8 0 0 1 .3 3.7h-10.3v-2.2h8.8l-1.3 1c.1-.8 0-1.5-.2-2-.3-.7-.7-1.2-1.2-1.5-.5-.4-1.2-.6-1.9-.6a3.4 3.4 0 0 0-3.2 2.1 5 5 0 0 0-.3 2.4c-.1.9 0 1.6.3 2.3.4.7.8 1.2 1.4 1.5a4 4 0 0 0 2 .6c.8 0 1.5-.2 2-.5.6-.4 1-.8 1.4-1.4l2.2 1c-.3.7-.7 1.2-1.2 1.7a6 6 0 0 1-2 1.2 7 7 0 0 1-2.4.4Zm8.7-.3v-13h2.6v2.6l-.3-.4c.3-.8.8-1.4 1.5-1.8.7-.5 1.5-.7 2.4-.7 1 0 1.8.2 2.6.7.7.4 1.3 1 1.7 1.7.4.7.6 1.6.6 2.5v8.4h-2.7v-7.7c0-.6 0-1.2-.3-1.6-.3-.5-.6-.8-1-1a3 3 0 0 0-1.5-.4 3 3 0 0 0-1.5.3c-.5.3-.8.6-1 1-.3.6-.4 1.1-.4 1.7v7.7h-2.7Zm19.6.1c-1.3 0-2.4-.3-3.1-1.1-.8-.8-1.2-1.9-1.2-3.3v-6.2h-2.2v-2.5h.3c.6 0 1.1-.2 1.4-.5.4-.4.5-.8.5-1.4v-1h2.8v3h3v2.4h-3v6.1c0 .5 0 .9.2 1.2.1.3.3.5.7.7.3.2.7.2 1.2.2h.9v2.3l-.7.1h-.8Z"/><rect width="276" height="69" x="864" y="2246" fill="url(#n)" rx="20"/><path fill="#000" d="M928.7 2290.5v-17.9h2.6l6.8 9.3h-1.4l6.6-9.3h2.7v17.9h-2.8V2276l1 .2-6.7 9.3h-.3l-6.6-9.3 1-.2v14.5h-2.9Zm24.6.3c-.9 0-1.6-.2-2.3-.5-.7-.3-1.2-.7-1.6-1.3-.3-.5-.5-1.2-.5-2 0-.6.1-1.3.4-1.8.4-.6.9-1 1.5-1.4a7 7 0 0 1 2.5-.9l4.5-.7v2.1l-4 .7a3 3 0 0 0-1.6.7c-.3.3-.5.8-.5 1.3s.2.9.6 1.2c.4.3.8.5 1.4.5.8 0 1.4-.2 2-.5a3.4 3.4 0 0 0 1.7-3.1v-3.3a2 2 0 0 0-.7-1.6c-.5-.4-1.1-.6-1.9-.6-.7 0-1.3.2-1.9.6-.5.3-.9.8-1.2 1.4l-2.2-1.1c.2-.7.6-1.2 1.2-1.7.5-.5 1.1-.9 1.9-1.2.7-.2 1.5-.4 2.3-.4 1 0 2 .2 2.7.6a4.4 4.4 0 0 1 2.5 4v8.7h-2.6v-2.3h.6a5.2 5.2 0 0 1-2.8 2.3c-.6.2-1.3.3-2 .3Zm10-.3v-13h2.7v13h-2.7Zm0-14.8v-3h2.7v3h-2.7Zm5.9 14.8v-13h2.6v2.6l-.3-.4c.3-.8.8-1.4 1.5-1.8.7-.5 1.5-.7 2.4-.7 1 0 1.9.2 2.6.7.7.4 1.3 1 1.7 1.7.4.7.6 1.6.6 2.5v8.4h-2.6v-7.7c0-.6-.2-1.2-.4-1.6-.3-.5-.6-.8-1-1a3 3 0 0 0-1.5-.4 3 3 0 0 0-1.5.3c-.5.3-.8.6-1 1-.3.6-.4 1.1-.4 1.7v7.7h-2.7Zm19.7.1c-1.4 0-2.5-.3-3.2-1.1a4.4 4.4 0 0 1-1.1-3.3v-6.2h-2.3v-2.5h.3c.6 0 1.1-.2 1.5-.5.3-.4.5-.8.5-1.4v-1h2.7v3h3v2.4h-3v6.1c0 .5 0 .9.2 1.2.1.3.4.5.7.7.3.2.7.2 1.2.2h.9v2.3l-.7.1h-.7Zm10 .2c-1.4 0-2.5-.3-3.5-.9-1-.6-1.8-1.4-2.4-2.5-.5-1-.8-2.2-.8-3.4a7 7 0 0 1 .8-3.5 6.4 6.4 0 0 1 5.6-3.3c1 0 1.9.2 2.6.5.8.4 1.4.8 2 1.4a6.6 6.6 0 0 1 1.6 4.4v.7l-.1.6h-10.4v-2.2h8.9l-1.4 1c.2-.8.2-1.5-.1-2a3 3 0 0 0-1.2-1.5c-.5-.4-1.2-.6-1.9-.6a3.4 3.4 0 0 0-3.2 2.1c-.3.7-.4 1.5-.4 2.4 0 .9 0 1.6.4 2.3.3.7.8 1.2 1.4 1.5a4 4 0 0 0 2 .6c.8 0 1.5-.2 2-.5.6-.4 1-.8 1.4-1.4l2.2 1c-.3.7-.7 1.2-1.2 1.7a6 6 0 0 1-2 1.2 7 7 0 0 1-2.4.4Zm8.6-.3v-13h2.5v2.6l-.3-.4c.3-.8.9-1.4 1.6-1.8.7-.5 1.5-.7 2.4-.7 1 0 1.8.2 2.6.7.7.4 1.3 1 1.7 1.7.4.7.6 1.6.6 2.5v8.4h-2.7v-7.7c0-.6-.1-1.2-.3-1.6-.3-.5-.6-.8-1-1a3 3 0 0 0-1.6-.4 3 3 0 0 0-1.5.3l-1 1c-.2.6-.3 1.1-.3 1.7v7.7h-2.8Zm17.9.3c-.9 0-1.7-.2-2.3-.5-.7-.3-1.2-.7-1.6-1.3-.3-.5-.5-1.2-.5-2 0-.6.1-1.3.4-1.8.4-.6.9-1 1.5-1.4a7 7 0 0 1 2.5-.9l4.5-.7v2.1l-4 .7a3 3 0 0 0-1.6.7c-.3.3-.5.8-.5 1.3s.2.9.6 1.2c.3.3.8.5 1.4.5a3.7 3.7 0 0 0 3.3-1.8c.3-.5.4-1.1.4-1.8v-3.3a2 2 0 0 0-.7-1.6c-.5-.4-1.1-.6-1.9-.6-.7 0-1.3.2-1.9.6-.5.3-.9.8-1.2 1.4l-2.2-1.1c.2-.7.6-1.2 1.2-1.7.5-.5 1.1-.9 1.9-1.2.7-.2 1.5-.4 2.3-.4 1 0 2 .2 2.7.6.8.4 1.4 1 1.8 1.6.5.7.7 1.5.7 2.4v8.7h-2.6v-2.3h.6a5 5 0 0 1-2.8 2.3c-.6.2-1.3.3-2 .3Zm10-.3v-13h2.6v2.6l-.3-.4c.3-.8.8-1.4 1.5-1.8.7-.5 1.5-.7 2.5-.7s1.8.2 2.5.7c.7.4 1.3 1 1.7 1.7.4.7.6 1.6.6 2.5v8.4h-2.6v-7.7c0-.6-.2-1.2-.4-1.6-.2-.5-.6-.8-1-1a3 3 0 0 0-1.5-.4 3 3 0 0 0-1.5.3c-.5.3-.8.6-1 1-.3.6-.4 1.1-.4 1.7v7.7h-2.7Zm20.2.3c-1.3 0-2.4-.3-3.4-.9a6.8 6.8 0 0 1-3.3-6c0-1.2.3-2.4.9-3.4a6.6 6.6 0 0 1 5.8-3.3 6.4 6.4 0 0 1 4.5 1.8 5 5 0 0 1 1.3 1.9l-2.4 1c-.3-.6-.7-1.1-1.3-1.5-.6-.4-1.3-.7-2-.7a3.7 3.7 0 0 0-3.4 2.1c-.4.6-.5 1.4-.5 2.2 0 .8.1 1.6.5 2.2a4 4 0 0 0 1.3 1.5c.6.4 1.3.6 2 .6a3.5 3.5 0 0 0 3.4-2.3l2.4 1.1c-.3.7-.7 1.3-1.3 2a6.3 6.3 0 0 1-4.5 1.7Zm14.5 0a6.4 6.4 0 0 1-5.8-3.3c-.5-1-.8-2.3-.8-3.5a7 7 0 0 1 .8-3.5 6.3 6.3 0 0 1 5.6-3.3c1 0 1.8.2 2.6.5a5.6 5.6 0 0 1 3.2 3.4 6.8 6.8 0 0 1 .3 3.7h-10.4v-2.2h8.8l-1.3 1c.2-.8.1-1.5-.1-2-.3-.7-.7-1.2-1.2-1.5-.6-.4-1.2-.6-2-.6a3.4 3.4 0 0 0-3.1 2.1 5 5 0 0 0-.4 2.4c0 .9 0 1.6.4 2.3.3.7.8 1.2 1.4 1.5a4 4 0 0 0 2 .6c.8 0 1.5-.2 2-.5.6-.4 1-.8 1.3-1.4l2.3 1c-.3.7-.7 1.2-1.3 1.7a6 6 0 0 1-1.9 1.2 7 7 0 0 1-2.4.4Z"/><rect width="277" height="69" x="863" y="2431" fill="url(#o)" rx="20"/><path fill="#000" d="M944.7 2475.5v-17.9h11.6v2.5h-8.8v5.4h7.9v2.5h-7.9v7.5h-2.8Zm19.5.3c-1.3 0-2.5-.3-3.5-.9-1-.6-1.7-1.4-2.3-2.5-.6-1-.8-2.2-.8-3.4a7 7 0 0 1 .8-3.5 6.4 6.4 0 0 1 5.6-3.3c1 0 1.8.2 2.6.5.8.4 1.4.8 2 1.4.5.6.9 1.3 1.1 2a6.6 6.6 0 0 1 .3 3.7h-10.3v-2.2h8.8l-1.3 1a3.4 3.4 0 0 0-1.4-3.5c-.5-.4-1.1-.6-1.8-.6a3.4 3.4 0 0 0-3.2 2.1c-.3.7-.5 1.5-.4 2.4 0 .9 0 1.6.4 2.3.3.7.8 1.2 1.4 1.5a4 4 0 0 0 2 .6c.8 0 1.5-.2 2-.5.6-.4 1-.8 1.3-1.4l2.2 1c-.2.7-.6 1.2-1.2 1.7a6 6 0 0 1-1.9 1.2 7 7 0 0 1-2.4.4Zm14.7 0a6.4 6.4 0 0 1-5.8-3.3c-.5-1-.8-2.3-.8-3.5a7 7 0 0 1 .8-3.5 6.4 6.4 0 0 1 5.6-3.3c1 0 1.8.2 2.6.5.8.4 1.4.8 2 1.4a6.6 6.6 0 0 1 1.5 5.7h-10.4v-2.2h8.8l-1.3 1a3.4 3.4 0 0 0-1.3-3.5c-.6-.4-1.2-.6-2-.6a3.4 3.4 0 0 0-3.1 2.1c-.3.7-.4 1.5-.4 2.4 0 .9 0 1.6.4 2.3.3.7.8 1.2 1.4 1.5a4 4 0 0 0 2 .6c.8 0 1.5-.2 2-.5.6-.4 1-.8 1.3-1.4l2.3 1c-.3.7-.7 1.2-1.2 1.7a6 6 0 0 1-2 1.2 7 7 0 0 1-2.4.4Zm14.6 0c-1.2 0-2.3-.3-3.3-.9a6.7 6.7 0 0 1-3.2-5.9 7 7 0 0 1 .9-3.5c.5-1 1.3-1.8 2.3-2.4 1-.6 2-.9 3.3-.9 1 0 2 .2 2.8.7.8.4 1.4 1 1.9 1.7l-.4.6v-7.9h2.7v18.2h-2.6v-2.6l.3.5c-.5.8-1.1 1.3-2 1.8a6 6 0 0 1-2.7.6Zm.3-2.5a3.8 3.8 0 0 0 3.4-2.1c.4-.6.6-1.4.6-2.2 0-.8-.2-1.6-.6-2.2a3.8 3.8 0 0 0-3.4-2 3.8 3.8 0 0 0-3.5 2c-.3.6-.5 1.4-.5 2.2 0 .8.2 1.6.5 2.2.4.6.8 1.2 1.4 1.5a4 4 0 0 0 2.1.6Zm16.8 2.5c-1 0-2-.2-2.8-.6-.8-.4-1.5-1-2-1.8l.4-.5v2.6h-2.6v-18.2h2.7v7.9l-.4-.6a5 5 0 0 1 2-1.8 6 6 0 0 1 2.6-.6c1.3 0 2.4.3 3.4 1 1 .5 1.7 1.3 2.3 2.3a7 7 0 0 1 .8 3.5 7 7 0 0 1-3.1 5.9c-1 .6-2.1.9-3.4.9Zm-.3-2.5c.8 0 1.4-.2 2-.6.6-.3 1-.9 1.4-1.5.4-.6.5-1.4.5-2.2 0-.8-.1-1.6-.5-2.2a3.8 3.8 0 0 0-3.4-2 3.9 3.9 0 0 0-3.5 2c-.3.6-.5 1.4-.5 2.2 0 .8.2 1.6.5 2.2a4 4 0 0 0 1.4 1.5 4 4 0 0 0 2 .6Zm13.3 2.5c-.9 0-1.7-.2-2.4-.5-.6-.3-1.1-.7-1.5-1.3-.4-.5-.5-1.2-.5-2 0-.6.1-1.3.4-1.8.3-.6.8-1 1.5-1.4a7 7 0 0 1 2.4-.9l4.6-.7v2.1l-4 .7a3 3 0 0 0-1.6.7c-.3.3-.5.8-.5 1.3s.2.9.5 1.2c.4.3 1 .5 1.5.5a3.7 3.7 0 0 0 3.2-1.8c.3-.5.5-1.1.5-1.8v-3.3a2 2 0 0 0-.7-1.6c-.5-.4-1.1-.6-2-.6-.6 0-1.3.2-1.8.6-.5.3-1 .8-1.2 1.4l-2.2-1.1c.2-.7.6-1.2 1.1-1.7a6.5 6.5 0 0 1 4.2-1.6c1 0 2 .2 2.8.6a4.4 4.4 0 0 1 2.5 4v8.7h-2.6v-2.3h.5c-.3.6-.6 1-1.1 1.4-.5.4-1 .7-1.6.9-.6.2-1.3.3-2 .3Zm16.1 0c-1.3 0-2.4-.3-3.4-.9a6.7 6.7 0 0 1-3.3-6c0-1.2.3-2.4.9-3.4a6.6 6.6 0 0 1 5.8-3.3c1 0 1.7.2 2.5.5a6 6 0 0 1 2 1.3 5 5 0 0 1 1.3 1.9l-2.4 1c-.3-.6-.7-1.1-1.3-1.5-.6-.4-1.3-.7-2-.7a3.7 3.7 0 0 0-3.4 2.1c-.4.6-.5 1.4-.5 2.2 0 .8.1 1.6.5 2.2a4 4 0 0 0 1.3 1.5c.6.4 1.3.6 2 .6.8 0 1.5-.2 2-.6.7-.4 1.1-1 1.4-1.7l2.4 1.1a5 5 0 0 1-1.3 2 6.2 6.2 0 0 1-4.5 1.7Zm8.4-.3v-18.2h2.7v12.2l-1-.3 6.5-6.7h3.4l-5 5.2 5.2 7.8h-3.1l-4.6-6.9 1.6-.2-3.8 4 .8-1.7v4.8h-2.7Z"/><path fill="#60A5FA" d="M700 2280.8a1.5 1.5 0 1 0 0 3v-3Zm163.6 2.6c.5-.6.5-1.6 0-2.2l-9.6-9.5c-.6-.6-1.5-.6-2.1 0-.6.6-.6 1.5 0 2.1l8.5 8.5-8.5 8.5a1.5 1.5 0 1 0 2.1 2.1l9.6-9.5Zm-163.6.4h162.5v-3H700v3Z"/><defs><linearGradient id="a" x1="0" x2="275" y1="1585.5" y2="1585.5" gradientUnits="userSpaceOnUse"><stop stop-color="#EFF6FF"/><stop offset="1" stop-color="#93C5FD"/></linearGradient><linearGradient id="b" x1="0" x2="275" y1="1770.5" y2="1770.5" gradientUnits="userSpaceOnUse"><stop stop-color="#EFF6FF"/><stop offset="1" stop-color="#93C5FD"/></linearGradient><linearGradient id="c" x1="0" x2="275" y1="1955.5" y2="1955.5" gradientUnits="userSpaceOnUse"><stop stop-color="#EFF6FF"/><stop offset="1" stop-color="#93C5FD"/></linearGradient><linearGradient id="d" x1="864" x2="1140" y1="1075.5" y2="1075.5" gradientUnits="userSpaceOnUse"><stop stop-color="#93C5FD"/><stop offset="1" stop-color="#EFF6FF"/></linearGradient><linearGradient id="e" x1="864" x2="1140" y1="1259.5" y2="1259.5" gradientUnits="userSpaceOnUse"><stop stop-color="#93C5FD"/><stop offset="1" stop-color="#EFF6FF"/></linearGradient><linearGradient id="f" x1="863" x2="1140" y1="1444.5" y2="1444.5" gradientUnits="userSpaceOnUse"><stop stop-color="#93C5FD"/><stop offset="1" stop-color="#EFF6FF"/></linearGradient><linearGradient id="g" x1="0" x2="275" y1="564.5" y2="564.5" gradientUnits="userSpaceOnUse"><stop stop-color="#EFF6FF"/><stop offset="1" stop-color="#93C5FD"/></linearGradient><linearGradient id="h" x1="0" x2="275" y1="749.5" y2="749.5" gradientUnits="userSpaceOnUse"><stop stop-color="#EFF6FF"/><stop offset="1" stop-color="#93C5FD"/></linearGradient><linearGradient id="i" x1="0" x2="275" y1="934.5" y2="934.5" gradientUnits="userSpaceOnUse"><stop stop-color="#EFF6FF"/><stop offset="1" stop-color="#93C5FD"/></linearGradient><linearGradient id="j" x1="864" x2="1140" y1="54.5" y2="54.5" gradientUnits="userSpaceOnUse"><stop stop-color="#93C5FD"/><stop offset="1" stop-color="#EFF6FF"/></linearGradient><linearGradient id="k" x1="864" x2="1140" y1="238.5" y2="238.5" gradientUnits="userSpaceOnUse"><stop stop-color="#93C5FD"/><stop offset="1" stop-color="#EFF6FF"/></linearGradient><linearGradient id="l" x1="863" x2="1140" y1="423.5" y2="423.5" gradientUnits="userSpaceOnUse"><stop stop-color="#93C5FD"/><stop offset="1" stop-color="#EFF6FF"/></linearGradient><linearGradient id="m" x1="864" x2="1140" y1="2096.5" y2="2096.5" gradientUnits="userSpaceOnUse"><stop stop-color="#93C5FD"/><stop offset="1" stop-color="#EFF6FF"/></linearGradient><linearGradient id="n" x1="864" x2="1140" y1="2280.5" y2="2280.5" gradientUnits="userSpaceOnUse"><stop stop-color="#93C5FD"/><stop offset="1" stop-color="#EFF6FF"/></linearGradient><linearGradient id="o" x1="863" x2="1140" y1="2465.5" y2="2465.5" gradientUnits="userSpaceOnUse"><stop stop-color="#93C5FD"/><stop offset="1" stop-color="#EFF6FF"/></linearGradient></defs></svg>